ply
format ascii 1.0
comment Created by Blender 2.83.4 - www.blender.org, source file: 'q_2.blend'
element vertex 167
property float x
property float y
property float z
property float nx
property float ny
property float nz
property float s
property float t
element face 8
property list uchar uint vertex_indices
end_header
0.041402 -0.456915 3.625295 0.201264 -0.064045 0.977441 1.000000 0.833333
0.126384 -0.746411 3.655557 0.201264 -0.064045 0.977441 1.000000 1.000000
0.210547 -0.896728 3.661205 0.201264 -0.064045 0.977441 0.833333 1.000000
0.319058 -1.008034 3.652009 0.201264 -0.064045 0.977441 0.666667 1.000000
0.541211 -1.190120 3.618940 0.201264 -0.064045 0.977441 0.500000 1.000000
0.811471 -1.309698 3.568247 0.201264 -0.064045 0.977441 0.333333 1.000000
1.251716 -1.345180 3.507380 0.201264 -0.064045 0.977441 0.166667 1.000000
1.628411 -1.318543 3.425794 0.201264 -0.064045 0.977441 0.000000 1.000000
2.016568 -1.195049 3.334030 0.201264 -0.064045 0.977441 0.000000 0.833333
2.298209 -1.040277 3.192615 0.201264 -0.064045 0.977441 0.000000 0.666667
2.548565 -0.738138 3.003130 0.201264 -0.064045 0.977441 0.000000 0.500000
2.382520 -0.396983 3.217405 0.201264 -0.064045 0.977441 0.000000 0.333333
2.148801 -0.186110 3.372911 0.201264 -0.064045 0.977441 0.000000 0.166667
1.804602 0.025798 3.477599 0.201264 -0.064045 0.977441 0.000000 0.000000
1.446657 0.142218 3.564698 0.201264 -0.064045 0.977441 0.166667 0.000000
1.011526 0.216715 3.627069 0.201264 -0.064045 0.977441 0.333333 0.000000
0.719107 0.167227 3.671247 0.201264 -0.064045 0.977441 0.500000 0.000000
0.457264 0.046475 3.692646 0.201264 -0.064045 0.977441 0.666667 0.000000
0.323680 -0.033526 3.694470 0.201264 -0.064045 0.977441 0.833333 0.000000
0.203732 -0.156251 3.678299 0.201264 -0.064045 0.977441 1.000000 0.000000
-0.419781 0.443643 5.136768 0.021234 0.006623 0.999753 1.000000 0.666667
-0.414141 0.425561 5.136768 0.021234 0.006623 0.999753 1.000000 0.833333
-0.336963 0.332088 5.162381 0.021234 0.006623 0.999753 1.000000 1.000000
-0.281518 0.290409 5.174572 0.021234 0.006623 0.999753 0.833333 1.000000
-0.222592 0.267470 5.181612 0.021234 0.006623 0.999753 0.666667 1.000000
-0.108534 0.237639 5.189165 0.021234 0.006623 0.999753 0.500000 1.000000
0.013944 0.239327 5.191601 0.021234 0.006623 0.999753 0.333333 1.000000
0.185083 0.301137 5.200289 0.021234 0.006623 0.999753 0.166667 1.000000
0.324235 0.375441 5.194458 0.021234 0.006623 0.999753 0.000000 1.000000
0.452114 0.487773 5.182956 0.021234 0.006623 0.999753 0.000000 0.833333
0.539739 0.594080 5.142955 0.021234 0.006623 0.999753 0.000000 0.666667
0.594958 0.750248 5.077687 0.021234 0.006623 0.999753 0.000000 0.500000
0.460744 0.847327 5.142955 0.021234 0.006623 0.999753 0.000000 0.333333
0.328219 0.884963 5.182956 0.021234 0.006623 0.999753 0.000000 0.166667
0.159153 0.904670 5.194458 0.021234 0.006623 0.999753 0.000000 0.000000
0.002434 0.886683 5.200289 0.021234 0.006623 0.999753 0.166667 0.000000
-0.173496 0.840232 5.191601 0.021234 0.006623 0.999753 0.333333 0.000000
-0.275212 0.771988 5.189165 0.021234 0.006623 0.999753 0.500000 0.000000
-0.352083 0.682600 5.181612 0.021234 0.006623 0.999753 0.666667 0.000000
-0.387517 0.630227 5.174572 0.021234 0.006623 0.999753 0.833333 0.000000
-0.409433 0.564417 5.162381 0.021234 0.006623 0.999753 1.000000 0.000000
-0.473855 -0.361870 3.705822 -0.153343 0.039909 0.987367 1.000000 0.833333
-0.444910 -0.065757 3.764349 -0.153343 0.039909 0.987367 1.000000 1.000000
-0.467147 0.103729 3.786490 -0.153343 0.039909 0.987367 0.833333 1.000000
-0.526622 0.247551 3.791612 -0.153343 0.039909 0.987367 0.666667 1.000000
-0.665530 0.501022 3.784024 -0.153343 0.039909 0.987367 0.500000 1.000000
-0.872489 0.716139 3.755700 -0.153343 0.039909 0.987367 0.333333 1.000000
-1.268598 0.917201 3.717608 -0.153343 0.039909 0.987367 0.166667 1.000000
-1.628982 1.039361 3.650794 -0.153343 0.039909 0.987367 0.000000 1.000000
-2.036090 1.077177 3.566110 -0.153343 0.039909 0.987367 0.000000 0.833333
-2.356399 1.051513 3.424629 -0.153343 0.039909 0.987367 0.000000 0.666667
-2.702871 0.882650 3.221371 -0.153343 0.039909 0.987367 0.000000 0.500000
-2.673431 0.485520 3.398269 -0.153343 0.039909 0.987367 0.000000 0.333333
-2.533320 0.189479 3.524768 -0.153343 0.039909 0.987367 0.000000 0.166667
-2.291507 -0.143436 3.595708 -0.153343 0.039909 0.987367 0.000000 0.000000
-2.001624 -0.391462 3.656660 -0.153343 0.039909 0.987367 0.166667 0.000000
-1.624743 -0.626852 3.693154 -0.153343 0.039909 0.987367 0.333333 0.000000
-1.334463 -0.693217 3.728405 -0.153343 0.039909 0.987367 0.500000 0.000000
-1.046310 -0.680241 3.748403 -0.153343 0.039909 0.987367 0.666667 0.000000
-0.892554 -0.655745 3.751120 -0.153343 0.039909 0.987367 0.833333 0.000000
-0.735756 -0.585001 3.740166 -0.153343 0.039909 0.987367 1.000000 0.000000
-0.496491 -0.402283 3.703939 -0.153343 0.039909 0.987367 1.000000 0.166667
-0.342199 0.357926 4.361672 -0.207911 -0.015984 0.978017 1.000000 0.666667
-0.310370 0.351779 4.368338 -0.207911 -0.015984 0.978017 1.000000 0.833333
-0.117368 0.392313 4.457598 -0.207911 -0.015984 0.978017 1.000000 1.000000
-0.014975 0.442749 4.503574 -0.207911 -0.015984 0.978017 0.833333 1.000000
0.063709 0.514269 4.536008 -0.207911 -0.015984 0.978017 0.666667 1.000000
0.196202 0.665064 4.584102 -0.207911 -0.015984 0.978017 0.500000 1.000000
0.289531 0.855039 4.616065 -0.207911 -0.015984 0.978017 0.333333 1.000000
0.327990 1.168933 4.652112 -0.207911 -0.015984 0.978017 0.166667 1.000000
0.327633 1.444744 4.652286 -0.207911 -0.015984 0.978017 0.000000 1.000000
0.262902 1.734769 4.628901 -0.207911 -0.015984 0.978017 0.000000 0.833333
0.186029 1.959695 4.549373 -0.207911 -0.015984 0.978017 0.000000 0.666667
0.017422 2.177269 4.404455 -0.207911 -0.015984 0.978017 0.000000 0.500000
-0.259746 2.045789 4.456015 -0.207911 -0.015984 0.978017 0.000000 0.333333
-0.436248 1.869797 4.482480 -0.207911 -0.015984 0.978017 0.000000 0.166667
-0.603936 1.624661 4.457189 -0.207911 -0.015984 0.978017 0.000000 0.000000
-0.702711 1.367994 4.436254 -0.207911 -0.015984 0.978017 0.166667 0.000000
-0.768206 1.059322 4.394545 -0.207911 -0.015984 0.978017 0.333333 0.000000
-0.744379 0.846721 4.387117 -0.207911 -0.015984 0.978017 0.500000 0.000000
-0.667019 0.655396 4.382973 -0.207911 -0.015984 0.978017 0.666667 0.000000
-0.613135 0.558273 4.378302 -0.207911 -0.015984 0.978017 0.833333 0.000000
-0.526323 0.471296 4.371951 -0.207911 -0.015984 0.978017 1.000000 0.000000
-0.673049 0.446751 5.085424 -0.022242 0.487034 0.873100 1.000000 0.833333
-0.725743 0.573739 5.048300 -0.022242 0.487034 0.873100 1.000000 1.000000
-0.772317 0.637080 5.029013 -0.022242 0.487034 0.873100 0.833333 1.000000
-0.829126 0.680619 5.013992 -0.022242 0.487034 0.873100 0.666667 1.000000
-0.944074 0.747531 4.986608 -0.022242 0.487034 0.873100 0.500000 1.000000
-1.079049 0.783889 4.969533 -0.022242 0.487034 0.873100 0.333333 1.000000
-1.287999 0.780678 4.982759 -0.022242 0.487034 0.873100 0.166667 1.000000
-1.466126 0.747803 4.993423 -0.022242 0.487034 0.873100 0.000000 1.000000
-1.644900 0.671940 5.020602 -0.022242 0.487034 0.873100 0.000000 0.833333
-1.777440 0.573859 5.022665 -0.022242 0.487034 0.873100 0.000000 0.666667
-1.891486 0.404161 5.031420 -0.022242 0.487034 0.873100 0.000000 0.500000
-1.777440 0.307558 5.171213 -0.022242 0.487034 0.873100 0.000000 0.333333
-1.644900 0.254275 5.253585 -0.022242 0.487034 0.873100 0.000000 0.166667
-1.466126 0.191294 5.303856 -0.022242 0.487034 0.873100 0.000000 0.000000
-1.287999 0.164949 5.326227 -0.022242 0.487034 0.873100 0.166667 0.000000
-1.079049 0.152008 5.322010 -0.022242 0.487034 0.873100 0.333333 0.000000
-0.944074 0.185638 5.300044 -0.022242 0.487034 0.873100 0.500000 0.000000
-0.829126 0.244091 5.257497 -0.022242 0.487034 0.873100 0.666667 0.000000
-0.772317 0.279745 5.228342 -0.022242 0.487034 0.873100 0.833333 0.000000
-0.725743 0.329433 5.184578 -0.022242 0.487034 0.873100 1.000000 0.000000
-0.673049 0.427737 5.096031 -0.022242 0.487034 0.873100 1.000000 0.166667
-0.476759 0.008353 4.351556 0.163072 0.046730 0.985507 1.000000 0.833333
-0.662068 -0.068311 4.433061 0.163072 0.046730 0.985507 1.000000 1.000000
-0.754906 -0.137392 4.474905 0.163072 0.046730 0.985507 0.833333 1.000000
-0.819996 -0.222635 4.504145 0.163072 0.046730 0.985507 0.666667 1.000000
-0.923657 -0.395950 4.546846 0.163072 0.046730 0.985507 0.500000 1.000000
-0.980909 -0.600288 4.574958 0.163072 0.046730 0.985507 0.333333 1.000000
-0.961246 -0.916113 4.609248 0.163072 0.046730 0.985507 0.166667 1.000000
-0.909225 -1.186975 4.609259 0.163072 0.046730 0.985507 0.000000 1.000000
-0.790442 -1.459557 4.588275 0.163072 0.046730 0.985507 0.000000 0.833333
-0.669756 -1.665469 4.511714 0.163072 0.046730 0.985507 0.000000 0.666667
-0.457869 -1.846460 4.373461 0.163072 0.046730 0.985507 0.000000 0.500000
-0.212460 -1.665841 4.436063 0.163072 0.046730 0.985507 0.000000 0.333333
-0.073222 -1.460140 4.469625 0.163072 0.046730 0.985507 0.000000 0.166667
0.046421 -1.187751 4.451166 0.163072 0.046730 0.985507 0.000000 0.000000
0.096095 -0.916972 4.434331 0.163072 0.046730 0.985507 0.166667 0.000000
0.104167 -0.601169 4.395453 0.163072 0.046730 0.985507 0.333333 0.000000
0.041234 -0.396733 4.387223 0.163072 0.046730 0.985507 0.500000 0.000000
-0.070381 -0.223244 4.380136 0.163072 0.046730 0.985507 0.666667 0.000000
-0.141285 -0.137890 4.373393 0.163072 0.046730 0.985507 0.833333 0.000000
-0.242543 -0.068652 4.363658 0.163072 0.046730 0.985507 1.000000 0.000000
-0.444107 0.008327 4.346154 0.163072 0.046730 0.985507 1.000000 0.166667
-0.563556 -0.003660 2.184901 -0.113773 0.277333 0.954014 1.000000 0.833333
-0.375056 0.232830 2.206941 -0.113773 0.277333 0.954014 1.000000 1.000000
-0.299285 0.387631 2.204556 -0.113773 0.277333 0.954014 0.833333 1.000000
-0.268584 0.539046 2.185078 -0.113773 0.277333 0.954014 0.666667 1.000000
-0.242638 0.821899 2.131024 -0.113773 0.277333 0.954014 0.500000 1.000000
-0.294387 1.107256 2.054849 -0.113773 0.277333 0.954014 0.333333 1.000000
-0.510944 1.483263 1.952373 -0.113773 0.277333 0.954014 0.166667 1.000000
-0.741544 1.770293 1.835319 -0.113773 0.277333 0.954014 0.000000 1.000000
-1.057777 2.010875 1.707043 -0.113773 0.277333 0.954014 0.000000 0.833333
-1.336806 2.142547 1.539474 -0.113773 0.277333 0.954014 0.000000 0.666667
-1.716799 2.161086 1.327030 -0.113773 0.277333 0.954014 0.000000 0.500000
-1.915170 1.847983 1.556130 -0.113773 0.277333 0.954014 0.000000 0.333333
-1.964880 1.548883 1.733166 -0.113773 0.277333 0.954014 0.000000 0.166667
-1.950196 1.154720 1.870127 -0.113773 0.277333 0.954014 0.000000 0.000000
-1.848213 0.802185 1.990885 -0.113773 0.277333 0.954014 0.166667 0.000000
-1.666735 0.408312 2.094371 -0.113773 0.277333 0.954014 0.333333 0.000000
-1.462983 0.200371 2.166168 -0.113773 0.277333 0.954014 0.500000 0.000000
-1.216657 0.056188 2.212382 -0.113773 0.277333 0.954014 0.666667 0.000000
-1.075360 -0.007628 2.226907 -0.113773 0.277333 0.954014 0.833333 0.000000
-0.905649 -0.037404 2.222221 -0.113773 0.277333 0.954014 1.000000 0.000000
-0.604852 -0.024692 2.186090 -0.113773 0.277333 0.954014 1.000000 0.166667
-0.295703 0.000845 2.099360 0.150422 -0.251454 0.956109 0.898219 0.911630
-0.503965 -0.349048 2.131922 0.150422 -0.251454 0.956109 0.758421 0.957680
-0.576738 -0.569545 2.130519 0.150422 -0.251454 0.956109 0.673949 0.966085
-0.589980 -0.777458 2.105985 0.150422 -0.251454 0.956109 0.597540 0.954317
-0.572803 -1.160295 2.036304 0.150422 -0.251454 0.956109 0.458725 0.917375
-0.451473 -1.532490 1.936738 0.150422 -0.251454 0.956109 0.330836 0.845086
-0.093586 -1.995770 1.802486 0.150422 -0.251454 0.956109 0.189744 0.686851
0.266748 -2.337893 1.647601 0.150422 -0.251454 0.956109 0.089961 0.534765
0.732862 -2.602469 1.476961 0.150422 -0.251454 0.956109 0.025941 0.352414
1.129375 -2.728944 1.252254 0.150422 -0.251454 0.956109 0.000000 0.198579
1.639917 -2.686438 0.965707 0.150422 -0.251454 0.956109 0.039191 0.014907
1.847322 -2.229716 1.270597 0.150422 -0.251454 0.956109 0.242987 0.000000
1.858885 -1.819484 1.505730 0.150422 -0.251454 0.956109 0.407041 0.040963
1.767095 -1.294620 1.685933 0.150422 -0.251454 0.956109 0.597750 0.119779
1.566419 -0.841478 1.844898 0.150422 -0.251454 0.956109 0.751569 0.227704
1.252075 -0.347919 1.980262 0.150422 -0.251454 0.956109 0.907398 0.373895
0.942059 -0.106929 2.075008 0.150422 -0.251454 0.956109 0.971426 0.498374
0.586901 0.040892 2.136053 0.150422 -0.251454 0.956109 0.995853 0.628799
0.386634 0.100340 2.155133 0.150422 -0.251454 0.956109 1.000000 0.699623
0.154681 0.108945 2.148750 0.150422 -0.251454 0.956109 0.981338 0.775502
-0.244440 0.036491 2.100670 0.150422 -0.251454 0.956109 0.915568 0.897451
20 0 1 2 3 4 5 6 7 8 9 10 11 12 13 14 15 16 17 18 19
21 20 21 22 23 24 25 26 27 28 29 30 31 32 33 34 35 36 37 38 39 40
21 41 42 43 44 45 46 47 48 49 50 51 52 53 54 55 56 57 58 59 60 61
21 62 63 64 65 66 67 68 69 70 71 72 73 74 75 76 77 78 79 80 81 82
21 83 84 85 86 87 88 89 90 91 92 93 94 95 96 97 98 99 100 101 102 103
21 104 105 106 107 108 109 110 111 112 113 114 115 116 117 118 119 120 121 122 123 124
21 125 126 127 128 129 130 131 132 133 134 135 136 137 138 139 140 141 142 143 144 145
21 146 147 148 149 150 151 152 153 154 155 156 157 158 159 160 161 162 163 164 165 166
