ply
format ascii 1.0
comment Created by Blender 2.83.4 - www.blender.org, source file: 'q_3.blend'
element vertex 167
property float x
property float y
property float z
property float nx
property float ny
property float nz
property float s
property float t
element face 8
property list uchar uint vertex_indices
end_header
-0.248340 0.410410 3.876776 0.287359 0.037212 0.957100 1.000000 0.833333
-0.184037 0.120244 3.936898 0.287359 0.037212 0.957100 1.000000 1.000000
-0.111871 -0.035261 3.954803 0.287359 0.037212 0.957100 0.833333 1.000000
-0.013866 -0.156209 3.950955 0.287359 0.037212 0.957100 0.666667 1.000000
0.189047 -0.360294 3.923095 0.287359 0.037212 0.957100 0.500000 1.000000
0.442973 -0.509080 3.865705 0.287359 0.037212 0.957100 0.333333 1.000000
0.871269 -0.591340 3.773102 0.287359 0.037212 0.957100 0.166667 1.000000
1.239449 -0.608969 3.657356 0.287359 0.037212 0.957100 0.000000 1.000000
1.625700 -0.533130 3.518085 0.287359 0.037212 0.957100 0.000000 0.833333
1.904014 -0.422776 3.334681 0.287359 0.037212 0.957100 0.000000 0.666667
2.158381 -0.169762 3.087389 0.287359 0.037212 0.957100 0.000000 0.500000
2.040912 0.208493 3.269035 0.287359 0.037212 0.957100 0.000000 0.333333
1.840410 0.456948 3.415127 0.287359 0.037212 0.957100 0.000000 0.166667
1.525535 0.710241 3.520170 0.287359 0.037212 0.957100 0.000000 0.000000
1.187798 0.868253 3.621318 0.287359 0.037212 0.957100 0.166667 0.000000
0.767805 0.988799 3.709939 0.287359 0.037212 0.957100 0.333333 0.000000
0.477901 0.971679 3.784582 0.287359 0.037212 0.957100 0.500000 0.000000
0.210541 0.878587 3.843346 0.287359 0.037212 0.957100 0.666667 0.000000
0.071824 0.811804 3.866716 0.287359 0.037212 0.957100 0.833333 0.000000
-0.058446 0.699373 3.876674 0.287359 0.037212 0.957100 1.000000 0.000000
0.401458 0.177865 4.947659 0.100225 -0.000000 0.994965 1.000000 0.666667
0.401458 0.158923 4.947659 0.100225 -0.000000 0.994965 1.000000 0.833333
0.449159 0.046709 4.969615 0.100225 -0.000000 0.994965 1.000000 1.000000
0.490506 -0.009589 4.978605 0.100225 -0.000000 0.994965 0.833333 1.000000
0.540327 -0.049035 4.981766 0.100225 -0.000000 0.994965 0.666667 1.000000
0.640613 -0.111477 4.981488 0.100225 -0.000000 0.994965 0.500000 1.000000
0.757869 -0.146336 4.974750 0.100225 -0.000000 0.994965 0.333333 1.000000
0.939773 -0.138292 4.969220 0.100225 -0.000000 0.994965 0.166667 1.000000
1.093810 -0.108795 4.951308 0.100225 -0.000000 0.994965 0.000000 1.000000
1.247966 -0.039639 4.927699 0.100225 -0.000000 0.994965 0.000000 0.833333
1.359797 0.035753 4.878818 0.100225 -0.000000 0.994965 0.000000 0.666667
1.453615 0.168394 4.806004 0.100225 -0.000000 0.994965 0.000000 0.500000
1.359797 0.301035 4.878818 0.100225 -0.000000 0.994965 0.000000 0.333333
1.247966 0.376427 4.927699 0.100225 -0.000000 0.994965 0.000000 0.166667
1.093810 0.445583 4.951308 0.100225 -0.000000 0.994965 0.000000 0.000000
0.939773 0.475080 4.969220 0.100225 -0.000000 0.994965 0.166667 0.000000
0.757869 0.483124 4.974750 0.100225 -0.000000 0.994965 0.333333 0.000000
0.640613 0.448265 4.981488 0.100225 -0.000000 0.994965 0.500000 0.000000
0.540327 0.385823 4.981766 0.100225 -0.000000 0.994965 0.666667 0.000000
0.490506 0.346377 4.978605 0.100225 -0.000000 0.994965 0.833333 0.000000
0.449159 0.290079 4.969615 0.100225 -0.000000 0.994965 1.000000 0.000000
0.010557 -0.118247 3.407658 -0.080747 0.006577 0.996713 1.000000 0.833333
-0.019102 0.177290 3.468687 -0.080747 0.006577 0.996713 1.000000 1.000000
-0.074775 0.338240 3.495256 -0.080747 0.006577 0.996713 0.833333 1.000000
-0.162650 0.466231 3.507275 -0.080747 0.006577 0.996713 0.666667 1.000000
-0.352035 0.684593 3.514494 -0.080747 0.006577 0.996713 0.500000 1.000000
-0.601261 0.851076 3.505600 -0.080747 0.006577 0.996713 0.333333 1.000000
-1.032594 0.963821 3.501169 -0.080747 0.006577 0.996713 0.166667 1.000000
-1.414725 1.007003 3.464074 -0.080747 0.006577 0.996713 0.000000 1.000000
-1.825994 0.957868 3.411338 -0.080747 0.006577 0.996713 0.000000 0.833333
-2.143738 0.865045 3.294307 -0.080747 0.006577 0.996713 0.000000 0.666667
-2.461606 0.626729 3.115318 -0.080747 0.006577 0.996713 0.000000 0.500000
-2.335379 0.244808 3.282873 -0.080747 0.006577 0.996713 0.000000 0.333333
-2.126563 -0.014907 3.393407 -0.080747 0.006577 0.996713 0.000000 0.166667
-1.815212 -0.289153 3.440182 -0.080747 0.006577 0.996713 0.000000 0.000000
-1.475699 -0.470265 3.474734 -0.080747 0.006577 0.996713 0.166667 0.000000
-1.055989 -0.620627 3.478472 -0.080747 0.006577 0.996713 0.333333 0.000000
-0.756397 -0.624102 3.490370 -0.080747 0.006577 0.996713 0.500000 0.000000
-0.476795 -0.550481 3.488533 -0.080747 0.006577 0.996713 0.666667 0.000000
-0.331928 -0.494022 3.479915 -0.080747 0.006577 0.996713 0.833333 0.000000
-0.194915 -0.391718 3.458198 -0.080747 0.006577 0.996713 1.000000 0.000000
-0.003127 -0.162533 3.406841 -0.080747 0.006577 0.996713 1.000000 0.166667
0.522626 -0.100546 4.435045 0.017509 -0.015984 0.999719 1.000000 0.666667
0.555138 -0.106693 4.434378 0.017509 -0.015984 0.999719 1.000000 0.833333
0.763277 -0.066159 4.477915 0.017509 -0.015984 0.999719 1.000000 1.000000
0.873389 -0.015723 4.499670 0.017509 -0.015984 0.999719 0.833333 1.000000
0.957353 0.055797 4.513566 0.017509 -0.015984 0.999719 0.666667 1.000000
1.097271 0.206592 4.530610 0.017509 -0.015984 0.999719 0.500000 1.000000
1.195399 0.396567 4.540751 0.017509 -0.015984 0.999719 0.333333 1.000000
1.240983 0.710460 4.567218 0.017509 -0.015984 0.999719 0.166667 1.000000
1.240675 0.986272 4.567469 0.017509 -0.015984 0.999719 0.000000 1.000000
1.172342 1.276297 4.559251 0.017509 -0.015984 0.999719 0.000000 0.833333
1.079543 1.501223 4.499061 0.017509 -0.015984 0.999719 0.000000 0.666667
0.882650 1.718797 4.395803 0.017509 -0.015984 0.999719 0.000000 0.500000
0.624194 1.587317 4.508413 0.017509 -0.015984 0.999719 0.000000 0.333333
0.458174 1.411325 4.573918 0.017509 -0.015984 0.999719 0.000000 0.166667
0.289096 1.166189 4.587012 0.017509 -0.015984 0.999719 0.000000 0.000000
0.188143 0.909522 4.588841 0.017509 -0.015984 0.999719 0.166667 0.000000
0.114942 0.600850 4.562942 0.017509 -0.015984 0.999719 0.333333 0.000000
0.136487 0.388249 4.550342 0.017509 -0.015984 0.999719 0.500000 0.000000
0.210930 0.196924 4.528895 0.017509 -0.015984 0.999719 0.666667 0.000000
0.262381 0.099801 4.512218 0.017509 -0.015984 0.999719 0.833333 0.000000
0.345537 0.012824 4.486495 0.017509 -0.015984 0.999719 1.000000 0.000000
-0.163278 0.124050 5.355378 0.055877 0.000000 0.998438 1.000000 0.833333
-0.213513 0.253036 5.388843 0.055877 0.000000 0.998438 1.000000 1.000000
-0.258851 0.317748 5.406449 0.055877 0.000000 0.998438 0.833333 1.000000
-0.314855 0.363089 5.418952 0.055877 0.000000 0.998438 0.666667 1.000000
-0.428774 0.434864 5.436581 0.055877 0.000000 0.998438 0.500000 1.000000
-0.563118 0.474934 5.449911 0.055877 0.000000 0.998438 0.333333 1.000000
-0.770651 0.465687 5.476180 0.055877 0.000000 0.998438 0.166667 1.000000
-0.948758 0.431782 5.483404 0.055877 0.000000 0.998438 0.000000 1.000000
-1.128018 0.352289 5.484180 0.055877 0.000000 0.998438 0.000000 0.833333
-1.263743 0.265629 5.448689 0.055877 0.000000 0.998438 0.000000 0.666667
-1.383298 0.113163 5.382798 0.055877 0.000000 0.998438 0.000000 0.500000
-1.263743 -0.039302 5.448689 0.055877 0.000000 0.998438 0.000000 0.333333
-1.128018 -0.125962 5.484180 0.055877 0.000000 0.998438 0.000000 0.166667
-0.948758 -0.205455 5.483404 0.055877 0.000000 0.998438 0.000000 0.000000
-0.770651 -0.239361 5.476180 0.055877 0.000000 0.998438 0.166667 0.000000
-0.563118 -0.248608 5.449911 0.055877 0.000000 0.998438 0.333333 0.000000
-0.428774 -0.208538 5.436581 0.055877 0.000000 0.998438 0.500000 0.000000
-0.314855 -0.136763 5.418952 0.055877 0.000000 0.998438 0.666667 0.000000
-0.258851 -0.091422 5.406449 0.055877 0.000000 0.998438 0.833333 0.000000
-0.213513 -0.026709 5.388843 0.055877 0.000000 0.998438 1.000000 0.000000
-0.163278 0.102277 5.355378 0.055877 0.000000 0.998438 1.000000 0.166667
0.066302 -0.173648 4.494089 0.245270 0.016342 0.969317 1.000000 0.833333
-0.122886 -0.215389 4.590659 0.245270 0.016342 0.969317 1.000000 1.000000
-0.223140 -0.266462 4.640481 0.245270 0.016342 0.969317 0.833333 1.000000
-0.300101 -0.338469 4.675838 0.245270 0.016342 0.969317 0.666667 1.000000
-0.429770 -0.490079 4.728825 0.245270 0.016342 0.969317 0.500000 1.000000
-0.520695 -0.680624 4.764143 0.245270 0.016342 0.969317 0.333333 1.000000
-0.555915 -0.994769 4.801296 0.245270 0.016342 0.969317 0.166667 1.000000
-0.553949 -1.270574 4.801153 0.245270 0.016342 0.969317 0.000000 1.000000
-0.488482 -1.560194 4.774978 0.245270 0.016342 0.969317 0.000000 0.833333
-0.413419 -1.784598 4.692305 0.245270 0.016342 0.969317 0.000000 0.666667
-0.249248 -2.001055 4.540772 0.245270 0.016342 0.969317 0.000000 0.500000
0.028929 -1.868001 4.581782 0.245270 0.016342 0.969317 0.000000 0.333333
0.205293 -1.691004 4.601635 0.245270 0.016342 0.969317 0.000000 0.166667
0.370458 -1.444869 4.570186 0.245270 0.016342 0.969317 0.000000 0.000000
0.466862 -1.187612 4.545751 0.245270 0.016342 0.969317 0.166667 0.000000
0.528911 -0.878525 4.501894 0.245270 0.016342 0.969317 0.333333 0.000000
0.503580 -0.666061 4.495623 0.245270 0.016342 0.969317 0.500000 0.000000
0.425009 -0.475188 4.494667 0.245270 0.016342 0.969317 0.666667 0.000000
0.370422 -0.378377 4.492177 0.245270 0.016342 0.969317 0.833333 0.000000
0.282926 -0.291904 4.489265 0.245270 0.016342 0.969317 1.000000 0.000000
0.097887 -0.179603 4.486197 0.245270 0.016342 0.969317 1.000000 0.166667
0.005644 0.165140 2.355166 -0.132249 0.390292 0.911143 1.000000 0.833333
0.177736 0.414585 2.344816 -0.132249 0.390292 0.911143 1.000000 1.000000
0.242876 0.572499 2.321788 -0.132249 0.390292 0.911143 0.833333 1.000000
0.263276 0.721830 2.282642 -0.132249 0.390292 0.911143 0.666667 1.000000
0.270053 0.996398 2.192270 -0.132249 0.390292 0.911143 0.500000 1.000000
0.199144 1.265375 2.080320 -0.132249 0.390292 0.911143 0.333333 1.000000
-0.042321 1.609586 1.932020 -0.132249 0.390292 0.911143 0.166667 1.000000
-0.291786 1.862942 1.780883 -0.132249 0.390292 0.911143 0.000000 1.000000
-0.623551 2.063156 1.625370 -0.132249 0.390292 0.911143 0.000000 0.833333
-0.910837 2.153028 1.444640 -0.132249 0.390292 0.911143 0.000000 0.666667
-1.291215 2.118402 1.234914 -0.132249 0.390292 0.911143 0.000000 0.500000
-1.467980 1.825024 1.504275 -0.132249 0.390292 0.911143 0.000000 0.333333
-1.497369 1.548716 1.718901 -0.132249 0.390292 0.911143 0.000000 0.166667
-1.456089 1.177486 1.905507 -0.132249 0.390292 0.911143 0.000000 0.000000
-1.330522 0.851187 2.069906 -0.132249 0.390292 0.911143 0.166667 0.000000
-1.122847 0.487083 2.221822 -0.132249 0.390292 0.911143 0.333333 0.000000
-0.905512 0.304311 2.318099 -0.132249 0.390292 0.911143 0.500000 0.000000
-0.650009 0.184155 2.380397 -0.132249 0.390292 0.911143 0.666667 0.000000
-0.504723 0.132368 2.401809 -0.132249 0.390292 0.911143 0.833333 0.000000
-0.333388 0.113673 2.399525 -0.132249 0.390292 0.911143 1.000000 0.000000
-0.034137 0.141720 2.359425 -0.132249 0.390292 0.911143 1.000000 0.166667
-0.059556 -0.045988 2.183580 0.080730 -0.273103 0.958591 0.898219 0.911630
-0.262356 -0.400492 2.191241 0.080730 -0.273103 0.958591 0.758421 0.957680
-0.330170 -0.622220 2.178802 0.080730 -0.273103 0.958591 0.673949 0.966085
-0.337108 -0.829645 2.148281 0.080730 -0.273103 0.958591 0.597540 0.954317
-0.306550 -1.210165 2.070917 0.080730 -0.273103 0.958591 0.458725 0.917375
-0.170075 -1.577303 1.972188 0.080730 -0.273103 0.958591 0.330836 0.845086
0.206794 -2.030100 1.855228 0.080730 -0.273103 0.958591 0.189744 0.686851
0.585175 -2.361224 1.720827 0.080730 -0.273103 0.958591 0.089961 0.534765
1.068595 -2.612428 1.580894 0.080730 -0.273103 0.958591 0.025941 0.352414
1.483964 -2.725529 1.384962 0.080730 -0.273103 0.958591 0.000000 0.198579
2.014271 -2.665981 1.140425 0.080730 -0.273103 0.958591 0.039191 0.014907
2.187699 -2.213413 1.471598 0.080730 -0.273103 0.958591 0.242987 0.000000
2.172329 -1.809229 1.716772 0.080730 -0.273103 0.958591 0.407041 0.040963
2.055824 -1.291018 1.901876 0.080730 -0.273103 0.958591 0.597750 0.119779
1.833941 -0.846009 2.055542 0.080730 -0.273103 0.958591 0.751569 0.227704
1.499753 -0.362152 2.177757 0.080730 -0.273103 0.958591 0.907398 0.373895
1.178325 -0.129605 2.253716 0.080730 -0.273103 0.958591 0.971426 0.498374
0.816477 0.009831 2.290296 0.080730 -0.273103 0.958591 0.995853 0.628799
0.614133 0.064960 2.295053 0.080730 -0.273103 0.958591 1.000000 0.699623
0.383253 0.069325 2.270720 0.080730 -0.273103 0.958591 0.981338 0.775502
-0.009308 -0.009422 2.189766 0.080730 -0.273103 0.958591 0.915568 0.897451
20 0 1 2 3 4 5 6 7 8 9 10 11 12 13 14 15 16 17 18 19
21 20 21 22 23 24 25 26 27 28 29 30 31 32 33 34 35 36 37 38 39 40
21 41 42 43 44 45 46 47 48 49 50 51 52 53 54 55 56 57 58 59 60 61
21 62 63 64 65 66 67 68 69 70 71 72 73 74 75 76 77 78 79 80 81 82
21 83 84 85 86 87 88 89 90 91 92 93 94 95 96 97 98 99 100 101 102 103
21 104 105 106 107 108 109 110 111 112 113 114 115 116 117 118 119 120 121 122 123 124
21 125 126 127 128 129 130 131 132 133 134 135 136 137 138 139 140 141 142 143 144 145
21 146 147 148 149 150 151 152 153 154 155 156 157 158 159 160 161 162 163 164 165 166
