ply
format ascii 1.0
comment Created by Blender 2.83.4 - www.blender.org, source file: 'q_5.blend'
element vertex 167
property float x
property float y
property float z
property float nx
property float ny
property float nz
property float s
property float t
element face 8
property list uchar uint vertex_indices
end_header
-0.189659 -0.011302 3.745932 0.287359 -0.087046 0.953859 1.000000 0.833333
-0.125355 -0.306810 3.767972 0.287359 -0.087046 0.953859 1.000000 1.000000
-0.053190 -0.463325 3.765587 0.287359 -0.087046 0.953859 0.833333 1.000000
0.044815 -0.582757 3.746109 0.287359 -0.087046 0.953859 0.666667 1.000000
0.247729 -0.781515 3.692054 0.287359 -0.087046 0.953859 0.500000 1.000000
0.501655 -0.921616 3.615880 0.287359 -0.087046 0.953859 0.333333 1.000000
0.929950 -0.991191 3.513404 0.287359 -0.087046 0.953859 0.166667 1.000000
1.298131 -0.993683 3.396349 0.287359 -0.087046 0.953859 0.000000 1.000000
1.684382 -0.900446 3.268073 0.287359 -0.087046 0.953859 0.000000 0.833333
1.962696 -0.767271 3.100504 0.287359 -0.087046 0.953859 0.000000 0.666667
2.217062 -0.484363 2.888060 0.287359 -0.087046 0.953859 0.000000 0.500000
2.099593 -0.132816 3.117161 0.287359 -0.087046 0.953859 0.000000 0.333333
1.899091 0.094628 3.294197 0.287359 -0.087046 0.953859 0.000000 0.166667
1.584216 0.332185 3.431157 0.287359 -0.087046 0.953859 0.000000 0.000000
1.246479 0.475767 3.551916 0.287359 -0.087046 0.953859 0.166667 0.000000
0.826486 0.583822 3.655402 0.287359 -0.087046 0.953859 0.333333 0.000000
0.536582 0.557179 3.727199 0.287359 -0.087046 0.953859 0.500000 0.000000
0.269222 0.457261 3.773412 0.287359 -0.087046 0.953859 0.666667 0.000000
0.130505 0.388015 3.787937 0.287359 -0.087046 0.953859 0.833333 0.000000
0.000235 0.275240 3.783252 0.287359 -0.087046 0.953859 1.000000 0.000000
-0.153487 -0.580988 4.745582 0.022242 -0.000000 0.999753 1.000000 0.666667
-0.153487 -0.596430 4.745582 0.022242 -0.000000 0.999753 1.000000 0.833333
-0.116115 -0.687911 4.766463 0.022242 -0.000000 0.999753 1.000000 1.000000
-0.083083 -0.733808 4.776402 0.022242 -0.000000 0.999753 0.833333 1.000000
-0.042792 -0.765965 4.782141 0.022242 -0.000000 0.999753 0.666667 1.000000
0.038733 -0.816871 4.788298 0.022242 -0.000000 0.999753 0.500000 1.000000
0.134462 -0.845290 4.790285 0.022242 -0.000000 0.999753 0.333333 1.000000
0.282657 -0.838732 4.797367 0.022242 -0.000000 0.999753 0.166667 1.000000
0.408991 -0.814685 4.792614 0.022242 -0.000000 0.999753 0.000000 1.000000
0.535785 -0.758305 4.783237 0.022242 -0.000000 0.999753 0.000000 0.833333
0.629787 -0.696843 4.750626 0.022242 -0.000000 0.999753 0.000000 0.666667
0.710672 -0.588709 4.697417 0.022242 -0.000000 0.999753 0.000000 0.500000
0.629787 -0.480575 4.750626 0.022242 -0.000000 0.999753 0.000000 0.333333
0.535785 -0.419112 4.783237 0.022242 -0.000000 0.999753 0.000000 0.166667
0.408991 -0.362733 4.792614 0.022242 -0.000000 0.999753 0.000000 0.000000
0.282657 -0.338686 4.797367 0.022242 -0.000000 0.999753 0.166667 0.000000
0.134462 -0.332128 4.790285 0.022242 -0.000000 0.999753 0.333333 0.000000
0.038734 -0.360547 4.788298 0.022242 -0.000000 0.999753 0.500000 0.000000
-0.042792 -0.411452 4.782141 0.022242 -0.000000 0.999753 0.666667 0.000000
-0.083083 -0.443610 4.776402 0.022242 -0.000000 0.999753 0.833333 0.000000
-0.116115 -0.489506 4.766463 0.022242 -0.000000 0.999753 1.000000 0.000000
-0.412671 -0.064028 3.291053 -0.234661 -0.134007 0.962796 1.000000 0.833333
-0.437081 0.220708 3.392419 -0.234661 -0.134007 0.962796 1.000000 1.000000
-0.488326 0.379592 3.435318 -0.234661 -0.134007 0.962796 0.833333 1.000000
-0.570676 0.510406 3.454141 -0.234661 -0.134007 0.962796 0.666667 1.000000
-0.748035 0.738368 3.467490 -0.234661 -0.134007 0.962796 0.500000 1.000000
-0.984443 0.921807 3.448235 -0.234661 -0.134007 0.962796 0.333333 1.000000
-1.403822 1.064646 3.398259 -0.234661 -0.134007 0.962796 0.166667 1.000000
-1.772948 1.140120 3.312739 -0.234661 -0.134007 0.962796 0.000000 1.000000
-2.172872 1.128904 3.193267 -0.234661 -0.134007 0.962796 0.000000 0.833333
-2.472627 1.077311 3.017887 -0.234661 -0.134007 0.962796 0.000000 0.666667
-2.769921 0.891283 2.759273 -0.234661 -0.134007 0.962796 0.000000 0.500000
-2.690057 0.480842 2.881873 -0.234661 -0.134007 0.962796 0.000000 0.333333
-2.513886 0.193405 2.979944 -0.234661 -0.134007 0.962796 0.000000 0.166667
-2.227326 -0.106367 3.028501 -0.234661 -0.134007 0.962796 0.000000 0.000000
-1.906552 -0.314485 3.083774 -0.234661 -0.134007 0.962796 0.166667 0.000000
-1.500360 -0.493500 3.125501 -0.234661 -0.134007 0.962796 0.333333 0.000000
-1.206808 -0.520178 3.180502 -0.234661 -0.134007 0.962796 0.500000 0.000000
-0.927093 -0.467345 3.231183 -0.234661 -0.134007 0.962796 0.666667 0.000000
-0.780082 -0.420778 3.252809 -0.234661 -0.134007 0.962796 0.833333 0.000000
-0.636551 -0.326495 3.267640 -0.234661 -0.134007 0.962796 1.000000 0.000000
-0.428196 -0.106617 3.281341 -0.234661 -0.134007 0.962796 1.000000 0.166667
-0.381136 0.105905 4.053658 -0.162925 0.077291 0.983606 1.000000 0.666667
-0.350665 0.097511 4.059364 -0.162925 0.077291 0.983606 1.000000 0.833333
-0.157242 0.109715 4.115367 -0.162925 0.077291 0.983606 1.000000 1.000000
-0.053665 0.138901 4.142482 -0.162925 0.077291 0.983606 0.833333 1.000000
0.026863 0.186996 4.159659 -0.162925 0.077291 0.983606 0.666667 1.000000
0.162886 0.291624 4.183118 -0.162925 0.077291 0.983606 0.500000 1.000000
0.261723 0.431151 4.193251 -0.162925 0.077291 0.983606 0.333333 1.000000
0.314218 0.674911 4.194706 -0.162925 0.077291 0.983606 0.166667 1.000000
0.324584 0.891978 4.177136 -0.162925 0.077291 0.983606 0.000000 1.000000
0.272228 1.127035 4.142467 -0.162925 0.077291 0.983606 0.000000 0.833333
0.199446 1.310167 4.080989 -0.162925 0.077291 0.983606 0.000000 0.666667
0.032541 1.495990 3.979728 -0.162925 0.077291 0.983606 0.000000 0.500000
-0.227315 1.427720 4.001062 -0.162925 0.077291 0.983606 0.000000 0.333333
-0.397101 1.311404 4.017112 -0.162925 0.077291 0.983606 0.000000 0.166667
-0.567251 1.137638 4.010108 -0.162925 0.077291 0.983606 0.000000 0.000000
-0.672521 0.946712 4.009905 -0.162925 0.077291 0.983606 0.166667 0.000000
-0.750898 0.710082 4.003602 -0.162925 0.077291 0.983606 0.333333 0.000000
-0.737577 0.539660 4.014475 -0.162925 0.077291 0.983606 0.500000 0.000000
-0.672697 0.379693 4.028642 -0.162925 0.077291 0.983606 0.666667 0.000000
-0.626312 0.296639 4.035234 -0.162925 0.077291 0.983606 0.833333 0.000000
-0.548754 0.217559 4.042042 -0.162925 0.077291 0.983606 1.000000 0.000000
-0.607773 -0.231186 4.894686 -0.022242 0.000000 0.999753 1.000000 0.833333
-0.660467 -0.102200 4.924127 -0.022242 0.000000 0.999753 1.000000 1.000000
-0.707042 -0.037487 4.938140 -0.022242 0.000000 0.999753 0.833333 1.000000
-0.763850 0.007854 4.946233 -0.022242 0.000000 0.999753 0.666667 1.000000
-0.878798 0.079629 4.954914 -0.022242 0.000000 0.999753 0.500000 1.000000
-1.013773 0.119699 4.957715 -0.022242 0.000000 0.999753 0.333333 1.000000
-1.222723 0.110452 4.967701 -0.022242 0.000000 0.999753 0.166667 1.000000
-1.400850 0.076546 4.960999 -0.022242 0.000000 0.999753 0.000000 1.000000
-1.579625 -0.002946 4.947777 -0.022242 0.000000 0.999753 0.000000 0.833333
-1.712164 -0.089607 4.901798 -0.022242 0.000000 0.999753 0.000000 0.666667
-1.826210 -0.242072 4.826775 -0.022242 0.000000 0.999753 0.000000 0.500000
-1.712164 -0.394538 4.901798 -0.022242 0.000000 0.999753 0.000000 0.333333
-1.579625 -0.481198 4.947777 -0.022242 0.000000 0.999753 0.000000 0.166667
-1.400850 -0.560691 4.960999 -0.022242 0.000000 0.999753 0.000000 0.000000
-1.222723 -0.594596 4.967701 -0.022242 0.000000 0.999753 0.166667 0.000000
-1.013773 -0.603843 4.957715 -0.022242 0.000000 0.999753 0.333333 0.000000
-0.878798 -0.563773 4.954914 -0.022242 0.000000 0.999753 0.500000 0.000000
-0.763850 -0.491998 4.946233 -0.022242 0.000000 0.999753 0.666667 0.000000
-0.707042 -0.446657 4.938140 -0.022242 0.000000 0.999753 0.833333 0.000000
-0.660467 -0.381945 4.924127 -0.022242 0.000000 0.999753 1.000000 0.000000
-0.607773 -0.252959 4.894686 -0.022242 0.000000 0.999753 1.000000 0.166667
-0.579163 -0.461139 3.929601 0.168846 0.016342 0.985507 1.000000 0.833333
-0.775313 -0.502879 4.011106 0.168846 0.016342 0.985507 1.000000 1.000000
-0.879151 -0.553953 4.052950 0.168846 0.016342 0.985507 0.833333 1.000000
-0.958638 -0.625960 4.082190 0.168846 0.016342 0.985507 0.666667 1.000000
-1.092047 -0.777570 4.124891 0.168846 0.016342 0.985507 0.500000 1.000000
-1.185452 -0.968115 4.153004 0.168846 0.016342 0.985507 0.333333 1.000000
-1.223465 -1.282260 4.187294 0.168846 0.016342 0.985507 0.166667 1.000000
-1.221494 -1.558065 4.187304 0.168846 0.016342 0.985507 0.000000 1.000000
-1.154184 -1.847685 4.166320 0.168846 0.016342 0.985507 0.000000 0.833333
-1.072895 -2.072088 4.089759 0.168846 0.016342 0.985507 0.000000 0.666667
-0.897395 -2.288546 3.951506 0.168846 0.016342 0.985507 0.000000 0.500000
-0.623268 -2.155492 4.014108 0.168846 0.016342 0.985507 0.000000 0.333333
-0.448993 -1.978495 4.047670 0.168846 0.016342 0.985507 0.000000 0.166667
-0.281877 -1.732360 4.029211 0.168846 0.016342 0.985507 0.000000 0.000000
-0.183859 -1.475102 4.012377 0.168846 0.016342 0.985507 0.166667 0.000000
-0.118576 -1.166016 3.973499 0.168846 0.016342 0.985507 0.333333 0.000000
-0.143340 -0.953551 3.965268 0.168846 0.016342 0.985507 0.500000 0.000000
-0.221597 -0.762678 3.958181 0.168846 0.016342 0.985507 0.666667 0.000000
-0.275823 -0.665868 3.951438 0.168846 0.016342 0.985507 0.833333 0.000000
-0.362825 -0.579394 3.941703 0.168846 0.016342 0.985507 1.000000 0.000000
-0.547059 -0.467094 3.924200 0.168846 0.016342 0.985507 1.000000 0.166667
-0.455364 0.266447 2.072062 -0.225104 0.311654 0.923147 1.000000 0.833333
-0.343559 0.559847 2.116449 -0.225104 0.311654 0.923147 1.000000 1.000000
-0.315476 0.738331 2.120152 -0.225104 0.311654 0.923147 0.833333 1.000000
-0.328841 0.900120 2.097781 -0.225104 0.311654 0.923147 0.666667 1.000000
-0.382519 1.191881 2.028842 -0.225104 0.311654 0.923147 0.500000 1.000000
-0.511403 1.465377 1.927109 -0.225104 0.311654 0.923147 0.333333 1.000000
-0.829658 1.795093 1.793732 -0.225104 0.311654 0.923147 0.166667 1.000000
-1.131963 2.024536 1.632158 -0.225104 0.311654 0.923147 0.000000 1.000000
-1.503884 2.184874 1.452258 -0.225104 0.311654 0.923147 0.000000 0.833333
-1.798375 2.228582 1.202393 -0.225104 0.311654 0.923147 0.000000 0.666667
-2.151778 2.121805 0.877188 -0.225104 0.311654 0.923147 0.000000 0.500000
-2.289044 1.803447 1.226272 -0.225104 0.311654 0.923147 0.000000 0.333333
-2.273445 1.518096 1.489709 -0.225104 0.311654 0.923147 0.000000 0.166667
-2.157351 1.136100 1.682059 -0.225104 0.311654 0.923147 0.000000 0.000000
-1.964161 0.812115 1.848943 -0.225104 0.311654 0.923147 0.166667 0.000000
-1.675665 0.456615 1.983768 -0.225104 0.311654 0.923147 0.333333 0.000000
-1.417826 0.294850 2.079226 -0.225104 0.311654 0.923147 0.500000 0.000000
-1.133160 0.203225 2.136923 -0.225104 0.311654 0.923147 0.666667 0.000000
-0.973877 0.167867 2.152194 -0.225104 0.311654 0.923147 0.833333 0.000000
-0.793700 0.169827 2.138355 -0.225104 0.311654 0.923147 1.000000 0.000000
-0.490399 0.236091 2.073767 -0.225104 0.311654 0.923147 1.000000 0.166667
-0.392083 0.321025 2.502024 0.150422 -0.259290 0.954014 0.898219 0.911630
-0.600345 -0.029124 2.531715 0.150422 -0.259290 0.954014 0.758421 0.957680
-0.673118 -0.249601 2.528503 0.150422 -0.259290 0.954014 0.673949 0.966085
-0.686360 -0.457306 2.502263 0.150422 -0.259290 0.954014 0.597540 0.954317
-0.669182 -0.839558 2.429444 0.150422 -0.259290 0.954014 0.458725 0.917375
-0.547853 -1.210924 2.326828 0.150422 -0.259290 0.954014 0.330836 0.845086
-0.189966 -1.673087 2.188779 0.150422 -0.259290 0.954014 0.189744 0.686851
0.170368 -2.013928 2.031092 0.150422 -0.259290 0.954014 0.089961 0.534765
0.636482 -2.277094 1.858288 0.150422 -0.259290 0.954014 0.025941 0.352414
1.032995 -2.401721 1.632551 0.150422 -0.259290 0.954014 0.000000 0.198579
1.543538 -2.356866 1.346362 0.150422 -0.259290 0.954014 0.039191 0.014907
1.750942 -1.902661 1.654989 0.150422 -0.259290 0.954014 0.242987 0.000000
1.762504 -1.494372 1.893480 0.150422 -0.259290 0.954014 0.407041 0.040963
1.670715 -0.971004 2.077983 0.150422 -0.259290 0.954014 0.597750 0.119779
1.470039 -0.519182 2.240660 0.150422 -0.259290 0.954014 0.751569 0.227704
1.155695 -0.026750 2.380069 0.150422 -0.259290 0.954014 0.907398 0.373895
0.845679 0.213455 2.476789 0.150422 -0.259290 0.954014 0.971426 0.498374
0.490521 0.360769 2.539044 0.150422 -0.259290 0.954014 0.995853 0.628799
0.290254 0.420060 2.558611 0.150422 -0.259290 0.954014 1.000000 0.699623
0.058302 0.428716 2.552299 0.150422 -0.259290 0.954014 0.981338 0.775502
-0.340820 0.356659 2.503627 0.150422 -0.259290 0.954014 0.915568 0.897451
20 0 1 2 3 4 5 6 7 8 9 10 11 12 13 14 15 16 17 18 19
21 20 21 22 23 24 25 26 27 28 29 30 31 32 33 34 35 36 37 38 39 40
21 41 42 43 44 45 46 47 48 49 50 51 52 53 54 55 56 57 58 59 60 61
21 62 63 64 65 66 67 68 69 70 71 72 73 74 75 76 77 78 79 80 81 82
21 83 84 85 86 87 88 89 90 91 92 93 94 95 96 97 98 99 100 101 102 103
21 104 105 106 107 108 109 110 111 112 113 114 115 116 117 118 119 120 121 122 123 124
21 125 126 127 128 129 130 131 132 133 134 135 136 137 138 139 140 141 142 143 144 145
21 146 147 148 149 150 151 152 153 154 155 156 157 158 159 160 161 162 163 164 165 166
