ply
format ascii 1.0
comment Created by Blender 2.83.4 - www.blender.org, source file: 'q_8.blend'
element vertex 167
property float x
property float y
property float z
element face 8
property list uchar uint vertex_indices
end_header
-0.207271 0.365813 3.210228
-0.131795 0.071380 3.268041
-0.049690 -0.087327 3.283620
0.060478 -0.211794 3.276729
0.288014 -0.422768 3.242544
0.570927 -0.579131 3.177537
1.044307 -0.672277 3.073160
1.450909 -0.698894 2.947062
1.875805 -0.631544 2.797228
2.182655 -0.527189 2.605288
2.461594 -0.278450 2.349900
2.320330 0.107665 2.539269
2.091734 0.364156 2.693685
1.738619 0.627809 2.809098
1.362633 0.795605 2.920514
0.897603 0.927255 3.020887
0.578507 0.916769 3.103245
0.286159 0.828879 3.168509
0.135048 0.764548 3.195033
-0.005491 0.653798 3.207475
0.346490 0.287856 4.885324
0.346490 0.261043 4.885324
0.394192 0.102195 4.907280
0.435539 0.022500 4.916271
0.485360 -0.033339 4.919431
0.585646 -0.121730 4.919154
0.702901 -0.171077 4.912416
0.884806 -0.159690 4.906885
1.038843 -0.117934 4.888973
1.192999 -0.020038 4.865364
1.304830 0.086686 4.816483
1.398648 0.274449 4.743669
1.304830 0.462213 4.816483
1.192999 0.568937 4.865364
1.038843 0.666833 4.888973
0.884806 0.708588 4.906885
0.702902 0.719976 4.912416
0.585646 0.670629 4.919154
0.485360 0.582238 4.919431
0.435539 0.526399 4.916271
0.394192 0.446705 4.907280
-0.235356 0.460892 3.128591
-0.247018 0.746297 3.190653
-0.286294 0.899879 3.218182
-0.353837 1.019966 3.231403
-0.501882 1.222977 3.241076
-0.702128 1.372857 3.235101
-1.056925 1.462197 3.235222
-1.373552 1.486264 3.202044
-1.718628 1.419409 3.153275
-1.987025 1.314341 3.039250
-2.261659 1.067998 2.862943
-2.175632 0.703924 3.027998
-2.014438 0.462035 3.135628
-1.767699 0.210630 3.178530
-1.493015 0.050817 3.209206
-1.149656 -0.075543 3.208402
-0.899842 -0.064997 3.217335
-0.663008 0.019352 3.212958
-0.539376 0.080795 3.203084
-0.420047 0.186298 3.180331
-0.248823 0.417307 3.127788
0.108592 0.122740 4.334540
0.141349 0.116547 4.333868
0.353793 0.171890 4.377923
0.467159 0.235519 4.400140
0.554717 0.323203 4.414603
0.701683 0.506747 4.432797
0.807591 0.735270 4.444295
0.864423 1.108989 4.472882
0.873412 1.435857 4.474938
0.813901 1.777219 4.468540
0.727333 2.040265 4.409688
0.534929 2.290806 4.307582
0.268571 2.127004 4.419110
0.094383 1.913259 4.483317
-0.085297 1.617121 4.494627
-0.196306 1.309543 4.494667
-0.280961 0.941084 4.466652
-0.266300 0.689765 4.452677
-0.197299 0.465388 4.430048
-0.148427 0.351909 4.412783
-0.067077 0.251464 4.386567
-0.349974 0.273403 5.160051
-0.400208 0.377971 5.193516
-0.445547 0.430433 5.211123
-0.501550 0.467191 5.223626
-0.615470 0.525378 5.241254
-0.749814 0.557862 5.254584
-0.957346 0.550366 5.280853
-1.135453 0.522879 5.288077
-1.314714 0.458435 5.288854
-1.450439 0.388180 5.253362
-1.569993 0.264578 5.187471
-1.450439 0.140976 5.253362
-1.314714 0.070721 5.288854
-1.135453 0.006277 5.288077
-0.957346 -0.021210 5.280853
-0.749814 -0.028707 5.254584
-0.615470 0.003778 5.241254
-0.501550 0.061965 5.223626
-0.445547 0.098723 5.211123
-0.400208 0.151185 5.193516
-0.349974 0.255752 5.160051
-0.447985 -0.152100 4.458549
-0.638069 -0.193811 4.554048
-0.738766 -0.244880 4.603367
-0.816022 -0.316895 4.638443
-0.946115 -0.468526 4.691155
-1.037262 -0.659120 4.726410
-1.072568 -0.973411 4.763150
-1.070397 -1.249338 4.763254
-1.004451 -1.539108 4.737545
-0.928523 -1.763586 4.656682
-0.762884 -1.980117 4.508085
-0.484811 -1.847247 4.545818
-0.308536 -1.670321 4.563668
-0.143138 -1.424170 4.531574
-0.046636 -1.166848 4.506816
0.015580 -0.857632 4.463352
-0.009886 -0.645050 4.457234
-0.088675 -0.454035 4.456712
-0.143374 -0.357140 4.454606
-0.231006 -0.270562 4.452342
-0.416303 -0.158074 4.450633
0.380960 0.422701 1.860108
0.566454 0.705985 1.842854
0.634083 0.887456 1.813005
0.651161 1.061146 1.764931
0.647479 1.382262 1.655792
0.555833 1.700400 1.521652
0.268298 2.112890 1.341305
-0.025210 2.420577 1.161180
-0.409893 2.669732 0.976575
-0.741111 2.790583 0.769600
-1.173760 2.771605 0.533761
-1.357547 2.427671 0.835582
-1.376706 2.100543 1.080060
-1.313422 1.662171 1.299067
-1.156998 1.273779 1.493865
-0.906850 0.839279 1.678214
-0.653196 0.616520 1.795013
-0.359320 0.466248 1.873090
-0.193078 0.400484 1.901542
0.000934 0.373047 1.903385
0.336945 0.396789 1.864820
-0.092420 0.065111 1.477681
-0.312645 -0.300974 1.464862
-0.388346 -0.529706 1.442251
-0.399748 -0.743600 1.405205
-0.375062 -1.136340 1.319516
-0.238880 -1.514401 1.216136
0.147452 -1.975837 1.089899
0.538233 -2.314005 0.956999
1.040842 -2.568582 0.823189
1.475877 -2.686963 0.653566
2.035662 -2.629424 0.453892
2.223037 -2.143246 0.745547
2.212683 -1.715821 0.967452
2.099630 -1.177760 1.149220
1.875004 -0.718679 1.302575
1.533987 -0.224266 1.434389
1.201440 0.010898 1.513596
0.825021 0.147678 1.555984
0.614227 0.199877 1.565676
0.372802 0.197833 1.549246
-0.039072 0.103933 1.484249
20 0 1 2 3 4 5 6 7 8 9 10 11 12 13 14 15 16 17 18 19
21 20 21 22 23 24 25 26 27 28 29 30 31 32 33 34 35 36 37 38 39 40
21 41 42 43 44 45 46 47 48 49 50 51 52 53 54 55 56 57 58 59 60 61
21 62 63 64 65 66 67 68 69 70 71 72 73 74 75 76 77 78 79 80 81 82
21 83 84 85 86 87 88 89 90 91 92 93 94 95 96 97 98 99 100 101 102 103
21 104 105 106 107 108 109 110 111 112 113 114 115 116 117 118 119 120 121 122 123 124
21 125 126 127 128 129 130 131 132 133 134 135 136 137 138 139 140 141 142 143 144 145
21 146 147 148 149 150 151 152 153 154 155 156 157 158 159 160 161 162 163 164 165 166
