ply
format ascii 1.0
comment Created by Blender 2.83.4 - www.blender.org, source file: 'five_hole_leaf_2.blend'
element vertex 76
property float x
property float y
property float z
element face 4
property list uchar uint vertex_indices
end_header
0.746800 -0.642952 1.953117
0.735728 -0.551176 1.971282
0.824962 -0.553053 1.962178
0.902278 -0.570831 1.951285
0.962311 -0.599429 1.940074
1.080385 -0.624576 1.894244
1.133728 -0.686210 1.881684
1.361630 -0.412940 1.935604
1.006472 -0.265625 1.997860
0.806205 -0.206335 2.017426
0.574253 -0.197678 2.011115
0.175131 -0.269735 1.962442
0.123868 -0.305369 1.960840
-0.084394 -0.655518 1.990530
-0.157167 -0.875996 1.987318
-0.170409 -1.083700 1.961078
-0.153231 -1.465953 1.888260
-0.031902 -1.837318 1.785643
0.325985 -2.299481 1.647595
0.559784 -1.823088 1.722287
0.443385 -1.649717 1.774068
0.392724 -1.560573 1.799572
0.362435 -1.422034 1.833292
0.402457 -1.323244 1.849814
0.493923 -1.332146 1.845534
0.568214 -1.364744 1.828521
0.964150 -0.808757 1.892411
0.864978 -0.756660 1.917473
0.758727 -0.654420 1.949813
1.194673 -0.793163 1.842722
0.672641 -1.490337 1.794642
0.646347 -1.500464 1.734413
0.596159 -1.700725 1.744362
1.248573 -1.260967 1.750310
1.245096 -1.140920 1.787490
1.280056 -0.940778 1.813774
1.357172 -1.030853 1.774657
1.424452 -1.083719 1.745957
1.480565 -1.141409 1.715421
1.671646 -0.653145 1.838884
1.533184 -1.238023 1.698417
1.570096 -1.342715 1.663937
1.527278 -1.466171 1.673957
1.353428 -1.428798 1.667934
1.292176 -1.329047 1.708754
0.686319 -2.640322 1.489908
0.955276 -2.317389 1.528593
0.847476 -2.215833 1.577376
0.822430 -2.097894 1.611905
0.831086 -1.945032 1.650636
0.893993 -1.857538 1.664316
0.952391 -1.926685 1.637668
0.958589 -1.934546 1.634703
1.207917 -1.906388 1.565330
1.436123 -1.775032 1.604331
1.524617 -1.767825 1.592647
1.556218 -1.770477 1.587059
2.186666 -1.597399 1.536798
1.985990 -1.145576 1.699475
1.604669 -1.777928 1.577813
1.669278 -1.800825 1.562095
1.793943 -1.877486 1.515773
1.877002 -1.956466 1.475758
1.886349 -2.072324 1.411086
1.679506 -2.073719 1.454874
1.520607 -2.040576 1.473242
1.406792 -2.017677 1.509940
0.992361 -2.001128 1.612333
1.061767 -2.211334 1.543072
1.076690 -2.331844 1.526868
1.029053 -2.415168 1.478203
1.152433 -2.903488 1.317103
1.548946 -3.028116 1.091366
2.059489 -2.983261 0.805177
2.266893 -2.529055 1.113804
2.278455 -2.120766 1.352295
29 0 1 2 3 4 5 6 7 8 9 10 11 12 13 14 15 16 17 18 19 20 21 22 23 24 25 26 27 28
15 7 6 29 26 25 30 31 32 33 34 35 36 37 38 39
25 39 38 40 41 42 43 44 33 32 19 18 45 46 47 48 49 50 51 52 53 54 55 56 57 58
23 57 56 59 60 61 62 63 64 65 66 53 52 67 68 69 70 46 45 71 72 73 74 75
