ply
format ascii 1.0
comment Created by Blender 2.83.4 - www.blender.org, source file: 'two_hole_leaf_2.blend'
element vertex 40
property float x
property float y
property float z
element face 3
property list uchar uint vertex_indices
end_header
1.361630 -0.412940 1.935604
1.006472 -0.265625 1.997860
0.806205 -0.206335 2.017426
0.574253 -0.197678 2.011115
0.175131 -0.269735 1.962442
0.123868 -0.305369 1.960840
-0.084394 -0.655518 1.990530
-0.157167 -0.875996 1.987318
-0.170409 -1.083700 1.961078
-0.153231 -1.465953 1.888260
-0.031902 -1.837318 1.785643
0.325985 -2.299481 1.647595
0.559784 -1.823088 1.722287
0.443385 -1.649717 1.774068
0.392724 -1.560573 1.799572
0.362435 -1.422034 1.833292
0.402457 -1.323244 1.849814
0.493923 -1.332146 1.845534
0.568214 -1.364744 1.828521
0.672641 -1.490337 1.794642
0.646347 -1.500464 1.734413
0.596159 -1.700725 1.744362
1.248573 -1.260967 1.750310
1.245096 -1.140920 1.787490
1.280056 -0.940778 1.813774
1.357172 -1.030853 1.774657
1.424452 -1.083719 1.745957
1.480565 -1.141409 1.715421
1.671646 -0.653145 1.838884
1.152433 -2.903488 1.317103
1.548946 -3.028116 1.091366
2.059489 -2.983261 0.805177
2.266893 -2.529055 1.113804
2.278455 -2.120766 1.352295
1.985990 -1.145576 1.699475
1.533184 -1.238023 1.698417
1.570096 -1.342715 1.663937
1.527278 -1.466171 1.673957
1.353428 -1.428798 1.667934
1.292176 -1.329047 1.708754
19 0 1 2 3 4 5 6 7 8 9 10 11 12 13 14 15 16 17 18
12 0 18 19 20 21 22 23 24 25 26 27 28
17 11 29 30 31 32 33 34 28 27 35 36 37 38 39 22 21 12
