ply
format ascii 1.0
comment Created by Blender 2.83.4 - www.blender.org, source file: 'plant3.blend'
element vertex 21
property float x
property float y
property float z
element face 1
property list uchar uint vertex_indices
end_header
0.123868 -0.305369 1.960840
-0.084394 -0.655518 1.990530
-0.157167 -0.875996 1.987318
-0.170409 -1.083700 1.961078
-0.153231 -1.465953 1.888260
-0.031902 -1.837318 1.785643
0.325985 -2.299481 1.647595
0.686319 -2.640322 1.489908
1.152433 -2.903488 1.317103
1.548946 -3.028116 1.091366
2.059489 -2.983261 0.805177
2.266893 -2.529055 1.113804
2.278455 -2.120766 1.352295
2.186666 -1.597399 1.536798
1.985990 -1.145576 1.699475
1.671646 -0.653145 1.838884
1.361630 -0.412940 1.935604
1.006472 -0.265625 1.997860
0.806205 -0.206335 2.017426
0.574253 -0.197678 2.011115
0.175131 -0.269735 1.962442
21 0 1 2 3 4 5 6 7 8 9 10 11 12 13 14 15 16 17 18 19 20
