ply
format ascii 1.0
comment Created by Blender 2.83.4 - www.blender.org, source file: 'q_4.blend'
element vertex 167
property float x
property float y
property float z
property float nx
property float ny
property float nz
property float s
property float t
element face 8
property list uchar uint vertex_indices
end_header
-0.478209 0.292986 3.277504 0.287359 -0.087046 0.953859 1.000000 0.833333
-0.413905 -0.002522 3.299544 0.287359 -0.087046 0.953859 1.000000 1.000000
-0.341740 -0.159037 3.297159 0.287359 -0.087046 0.953859 0.833333 1.000000
-0.243734 -0.278469 3.277681 0.287359 -0.087046 0.953859 0.666667 1.000000
-0.040821 -0.477227 3.223626 0.287359 -0.087046 0.953859 0.500000 1.000000
0.213105 -0.617328 3.147452 0.287359 -0.087046 0.953859 0.333333 1.000000
0.641401 -0.686903 3.044976 0.287359 -0.087046 0.953859 0.166667 1.000000
1.009581 -0.689395 2.927922 0.287359 -0.087046 0.953859 0.000000 1.000000
1.395832 -0.596158 2.799646 0.287359 -0.087046 0.953859 0.000000 0.833333
1.674146 -0.462983 2.632077 0.287359 -0.087046 0.953859 0.000000 0.666667
1.928513 -0.180075 2.419632 0.287359 -0.087046 0.953859 0.000000 0.500000
1.811044 0.171472 2.648733 0.287359 -0.087046 0.953859 0.000000 0.333333
1.610542 0.398916 2.825769 0.287359 -0.087046 0.953859 0.000000 0.166667
1.295666 0.636473 2.962729 0.287359 -0.087046 0.953859 0.000000 0.000000
0.957930 0.780055 3.083488 0.287359 -0.087046 0.953859 0.166667 0.000000
0.537937 0.888110 3.186974 0.287359 -0.087046 0.953859 0.333333 0.000000
0.248032 0.861467 3.258771 0.287359 -0.087046 0.953859 0.500000 0.000000
-0.019328 0.761549 3.304985 0.287359 -0.087046 0.953859 0.666667 0.000000
-0.158044 0.692303 3.319510 0.287359 -0.087046 0.953859 0.833333 0.000000
-0.288314 0.579528 3.314824 0.287359 -0.087046 0.953859 1.000000 0.000000
-0.463827 -0.677515 4.986841 0.022242 0.000000 0.999753 1.000000 0.666667
-0.463827 -0.692957 4.986841 0.022242 0.000000 0.999753 1.000000 0.833333
-0.426455 -0.784438 5.007721 0.022242 0.000000 0.999753 1.000000 1.000000
-0.393422 -0.830335 5.017660 0.022242 0.000000 0.999753 0.833333 1.000000
-0.353132 -0.862493 5.023400 0.022242 0.000000 0.999753 0.666667 1.000000
-0.271606 -0.913398 5.029557 0.022242 0.000000 0.999753 0.500000 1.000000
-0.175877 -0.941817 5.031543 0.022242 0.000000 0.999753 0.333333 1.000000
-0.027682 -0.935259 5.038626 0.022242 0.000000 0.999753 0.166667 1.000000
0.098652 -0.911212 5.033872 0.022242 0.000000 0.999753 0.000000 1.000000
0.225445 -0.854833 5.024495 0.022242 0.000000 0.999753 0.000000 0.833333
0.319447 -0.793370 4.991885 0.022242 0.000000 0.999753 0.000000 0.666667
0.400333 -0.685236 4.938676 0.022242 0.000000 0.999753 0.000000 0.500000
0.319447 -0.577102 4.991885 0.022242 0.000000 0.999753 0.000000 0.333333
0.225445 -0.515639 5.024495 0.022242 0.000000 0.999753 0.000000 0.166667
0.098652 -0.459260 5.033872 0.022242 0.000000 0.999753 0.000000 0.000000
-0.027682 -0.435213 5.038626 0.022242 0.000000 0.999753 0.166667 0.000000
-0.175877 -0.428655 5.031543 0.022242 0.000000 0.999753 0.333333 0.000000
-0.271606 -0.457074 5.029557 0.022242 0.000000 0.999753 0.500000 0.000000
-0.353131 -0.507979 5.023400 0.022242 0.000000 0.999753 0.666667 0.000000
-0.393422 -0.540137 5.017660 0.022242 0.000000 0.999753 0.833333 0.000000
-0.426455 -0.586033 5.007721 0.022242 0.000000 0.999753 1.000000 0.000000
-0.692389 -0.031909 2.931479 -0.158315 0.006577 0.987367 1.000000 0.833333
-0.726722 0.263627 2.990006 -0.158315 0.006577 0.987367 1.000000 1.000000
-0.784299 0.424577 3.012148 -0.158315 0.006577 0.987367 0.833333 1.000000
-0.872844 0.552568 3.017270 -0.158315 0.006577 0.987367 0.666667 1.000000
-1.062215 0.770930 3.009681 -0.158315 0.006577 0.987367 0.500000 1.000000
-1.309986 0.937413 2.981357 -0.158315 0.006577 0.987367 0.333333 1.000000
-1.739657 1.050158 2.943265 -0.158315 0.006577 0.987367 0.166667 1.000000
-2.117725 1.093341 2.876451 -0.158315 0.006577 0.987367 0.000000 1.000000
-2.523622 1.044205 2.791767 -0.158315 0.006577 0.987367 0.000000 0.833333
-2.831259 0.951382 2.650286 -0.158315 0.006577 0.987367 0.000000 0.666667
-3.134183 0.713066 2.447028 -0.158315 0.006577 0.987367 0.000000 0.500000
-3.021423 0.331145 2.623927 -0.158315 0.006577 0.987367 0.000000 0.333333
-2.821873 0.071430 2.750425 -0.158315 0.006577 0.987367 0.000000 0.166667
-2.515125 -0.202815 2.821365 -0.158315 0.006577 0.987367 0.000000 0.000000
-2.179346 -0.383927 2.882318 -0.158315 0.006577 0.987367 0.166667 0.000000
-1.761208 -0.534289 2.918811 -0.158315 0.006577 0.987367 0.333333 0.000000
-1.463459 -0.537764 2.954062 -0.158315 0.006577 0.987367 0.500000 0.000000
-1.184567 -0.464143 2.974060 -0.158315 0.006577 0.987367 0.666667 0.000000
-1.039469 -0.407685 2.976777 -0.158315 0.006577 0.987367 0.833333 0.000000
-0.901179 -0.305381 2.965823 -0.158315 0.006577 0.987367 1.000000 0.000000
-0.705967 -0.076196 2.929597 -0.158315 0.006577 0.987367 1.000000 0.166667
-0.382579 -0.452972 4.131789 -0.160948 0.084297 0.983356 1.000000 0.666667
-0.351179 -0.461621 4.137670 -0.160948 0.084297 0.983356 1.000000 0.833333
-0.151141 -0.432896 4.215257 -0.160948 0.084297 0.983356 1.000000 1.000000
-0.042376 -0.389073 4.252560 -0.160948 0.084297 0.983356 0.833333 1.000000
0.044129 -0.323137 4.275526 -0.160948 0.084297 0.983356 0.666667 1.000000
0.192319 -0.182523 4.305094 -0.160948 0.084297 0.983356 0.500000 1.000000
0.304446 -0.000555 4.316816 -0.160948 0.084297 0.983356 0.333333 1.000000
0.373799 0.309999 4.324163 -0.160948 0.084297 0.983356 0.166667 1.000000
0.399254 0.583625 4.300639 -0.160948 0.084297 0.983356 0.000000 1.000000
0.360883 0.875685 4.255036 -0.160948 0.084297 0.983356 0.000000 0.833333
0.301632 1.099768 4.159629 -0.160948 0.084297 0.983356 0.000000 0.666667
0.147308 1.320139 4.003461 -0.160948 0.084297 0.983356 0.000000 0.500000
-0.138125 1.220901 4.077269 -0.160948 0.084297 0.983356 0.000000 0.333333
-0.328829 1.065669 4.125864 -0.160948 0.084297 0.983356 0.000000 0.166667
-0.519740 0.836766 4.128525 -0.160948 0.084297 0.983356 0.000000 0.000000
-0.642989 0.590078 4.133733 -0.160948 0.084297 0.983356 0.166667 0.000000
-0.739013 0.286871 4.121392 -0.160948 0.084297 0.983356 0.333333 0.000000
-0.735565 0.073067 4.131315 -0.160948 0.084297 0.983356 0.500000 0.000000
-0.676735 -0.124572 4.140518 -0.160948 0.084297 0.983356 0.666667 0.000000
-0.632462 -0.226531 4.142045 -0.160948 0.084297 0.983356 0.833333 0.000000
-0.554576 -0.321768 4.139700 -0.160948 0.084297 0.983356 1.000000 0.000000
-0.807510 -0.214412 5.064618 -0.022242 0.000000 0.999753 1.000000 0.833333
-0.860203 -0.085426 5.094059 -0.022242 0.000000 0.999753 1.000000 1.000000
-0.906778 -0.020713 5.108072 -0.022242 0.000000 0.999753 0.833333 1.000000
-0.963587 0.024628 5.116165 -0.022242 0.000000 0.999753 0.666667 1.000000
-1.078535 0.096403 5.124846 -0.022242 0.000000 0.999753 0.500000 1.000000
-1.213509 0.136473 5.127647 -0.022242 0.000000 0.999753 0.333333 1.000000
-1.422459 0.127226 5.137633 -0.022242 0.000000 0.999753 0.166667 1.000000
-1.600586 0.093320 5.130931 -0.022242 0.000000 0.999753 0.000000 1.000000
-1.779361 0.013828 5.117710 -0.022242 0.000000 0.999753 0.000000 0.833333
-1.911901 -0.072833 5.071730 -0.022242 0.000000 0.999753 0.000000 0.666667
-2.025946 -0.225298 4.996707 -0.022242 0.000000 0.999753 0.000000 0.500000
-1.911901 -0.377764 5.071730 -0.022242 0.000000 0.999753 0.000000 0.333333
-1.779361 -0.464424 5.117710 -0.022242 0.000000 0.999753 0.000000 0.166667
-1.600586 -0.543917 5.130931 -0.022242 0.000000 0.999753 0.000000 0.000000
-1.422459 -0.577822 5.137633 -0.022242 0.000000 0.999753 0.166667 0.000000
-1.213509 -0.587069 5.127647 -0.022242 0.000000 0.999753 0.333333 0.000000
-1.078535 -0.546999 5.124846 -0.022242 0.000000 0.999753 0.500000 0.000000
-0.963587 -0.475224 5.116165 -0.022242 0.000000 0.999753 0.666667 0.000000
-0.906778 -0.429883 5.108072 -0.022242 0.000000 0.999753 0.833333 0.000000
-0.860203 -0.365171 5.094059 -0.022242 0.000000 0.999753 1.000000 0.000000
-0.807510 -0.236185 5.064618 -0.022242 0.000000 0.999753 1.000000 0.166667
-0.432039 -0.673916 4.215159 0.168846 0.016342 0.985507 1.000000 0.833333
-0.628189 -0.715656 4.296664 0.168846 0.016342 0.985507 1.000000 1.000000
-0.732027 -0.766730 4.338508 0.168846 0.016342 0.985507 0.833333 1.000000
-0.811514 -0.838737 4.367748 0.168846 0.016342 0.985507 0.666667 1.000000
-0.944923 -0.990347 4.410449 0.168846 0.016342 0.985507 0.500000 1.000000
-1.038328 -1.180892 4.438562 0.168846 0.016342 0.985507 0.333333 1.000000
-1.076341 -1.495037 4.472852 0.168846 0.016342 0.985507 0.166667 1.000000
-1.074370 -1.770842 4.472863 0.168846 0.016342 0.985507 0.000000 1.000000
-1.007059 -2.060462 4.451879 0.168846 0.016342 0.985507 0.000000 0.833333
-0.925770 -2.284866 4.375318 0.168846 0.016342 0.985507 0.000000 0.666667
-0.750271 -2.501323 4.237064 0.168846 0.016342 0.985507 0.000000 0.500000
-0.476144 -2.368269 4.299666 0.168846 0.016342 0.985507 0.000000 0.333333
-0.301868 -2.191272 4.333228 0.168846 0.016342 0.985507 0.000000 0.166667
-0.134752 -1.945137 4.314769 0.168846 0.016342 0.985507 0.000000 0.000000
-0.036735 -1.687879 4.297935 0.168846 0.016342 0.985507 0.166667 0.000000
0.028548 -1.378793 4.259057 0.168846 0.016342 0.985507 0.333333 0.000000
0.003785 -1.166328 4.250826 0.168846 0.016342 0.985507 0.500000 0.000000
-0.074472 -0.975455 4.243739 0.168846 0.016342 0.985507 0.666667 0.000000
-0.128698 -0.878645 4.236996 0.168846 0.016342 0.985507 0.833333 0.000000
-0.215700 -0.792171 4.227262 0.168846 0.016342 0.985507 1.000000 0.000000
-0.399935 -0.679871 4.209758 0.168846 0.016342 0.985507 1.000000 0.166667
-0.528759 0.366479 2.285042 -0.138197 0.278781 0.950359 1.000000 0.833333
-0.365292 0.631763 2.343842 -0.138197 0.278781 0.950359 1.000000 1.000000
-0.305829 0.801823 2.358079 -0.138197 0.278781 0.950359 0.833333 1.000000
-0.290889 0.964636 2.346982 -0.138197 0.278781 0.950359 0.666667 1.000000
-0.293899 1.265494 2.299718 -0.138197 0.278781 0.950359 0.500000 1.000000
-0.375118 1.563965 2.221748 -0.138197 0.278781 0.950359 0.333333 1.000000
-0.633564 1.953108 2.123963 -0.138197 0.278781 0.950359 0.166667 1.000000
-0.894997 2.243037 1.990798 -0.138197 0.278781 0.950359 0.000000 1.000000
-1.237741 2.478636 1.837771 -0.138197 0.278781 0.950359 0.000000 0.833333
-1.527165 2.591204 1.604040 -0.138197 0.278781 0.950359 0.000000 0.666667
-1.903556 2.571778 1.287804 -0.138197 0.278781 0.950359 0.000000 0.500000
-2.084647 2.258035 1.620706 -0.138197 0.278781 0.950359 0.000000 0.333333
-2.112092 1.956097 1.863911 -0.138197 0.278781 0.950359 0.000000 0.166667
-2.060010 1.546789 2.025627 -0.138197 0.278781 0.950359 0.000000 0.000000
-1.922550 1.182770 2.162498 -0.138197 0.278781 0.950359 0.166667 0.000000
-1.697916 0.773421 2.261294 -0.138197 0.278781 0.950359 0.333333 0.000000
-1.470182 0.562511 2.334884 -0.138197 0.278781 0.950359 0.500000 0.000000
-1.204731 0.418496 2.374302 -0.138197 0.278781 0.950359 0.666667 0.000000
-1.053883 0.354762 2.380443 -0.138197 0.278781 0.950359 0.833333 0.000000
-0.876728 0.326113 2.359132 -0.138197 0.278781 0.950359 1.000000 0.000000
-0.568564 0.342690 2.286232 -0.138197 0.278781 0.950359 1.000000 0.166667
-0.486648 0.121804 2.290483 0.150422 -0.259290 0.954014 0.898219 0.911630
-0.694910 -0.228345 2.320173 0.150422 -0.259290 0.954014 0.758421 0.957680
-0.767683 -0.448823 2.316961 0.150422 -0.259290 0.954014 0.673949 0.966085
-0.780925 -0.656527 2.290721 0.150422 -0.259290 0.954014 0.597540 0.954317
-0.763748 -1.038780 2.217903 0.150422 -0.259290 0.954014 0.458725 0.917375
-0.642418 -1.410145 2.115286 0.150422 -0.259290 0.954014 0.330836 0.845086
-0.284531 -1.872308 1.977238 0.150422 -0.259290 0.954014 0.189744 0.686851
0.075803 -2.213149 1.819551 0.150422 -0.259290 0.954014 0.089961 0.534765
0.541917 -2.476315 1.646746 0.150422 -0.259290 0.954014 0.025941 0.352414
0.938430 -2.600943 1.421009 0.150422 -0.259290 0.954014 0.000000 0.198579
1.448972 -2.556088 1.134820 0.150422 -0.259290 0.954014 0.039191 0.014907
1.656376 -2.101882 1.443447 0.150422 -0.259290 0.954014 0.242987 0.000000
1.667939 -1.693593 1.681938 0.150422 -0.259290 0.954014 0.407041 0.040963
1.576150 -1.170226 1.866441 0.150422 -0.259290 0.954014 0.597750 0.119779
1.375474 -0.718403 2.029118 0.150422 -0.259290 0.954014 0.751569 0.227704
1.061130 -0.225972 2.168527 0.150422 -0.259290 0.954014 0.907398 0.373895
0.751114 0.014233 2.265247 0.150422 -0.259290 0.954014 0.971426 0.498374
0.395956 0.161548 2.327503 0.150422 -0.259290 0.954014 0.995853 0.628799
0.195689 0.220838 2.347070 0.150422 -0.259290 0.954014 1.000000 0.699623
-0.036263 0.229495 2.340758 0.150422 -0.259290 0.954014 0.981338 0.775502
-0.435385 0.157438 2.292085 0.150422 -0.259290 0.954014 0.915568 0.897451
20 0 1 2 3 4 5 6 7 8 9 10 11 12 13 14 15 16 17 18 19
21 20 21 22 23 24 25 26 27 28 29 30 31 32 33 34 35 36 37 38 39 40
21 41 42 43 44 45 46 47 48 49 50 51 52 53 54 55 56 57 58 59 60 61
21 62 63 64 65 66 67 68 69 70 71 72 73 74 75 76 77 78 79 80 81 82
21 83 84 85 86 87 88 89 90 91 92 93 94 95 96 97 98 99 100 101 102 103
21 104 105 106 107 108 109 110 111 112 113 114 115 116 117 118 119 120 121 122 123 124
21 125 126 127 128 129 130 131 132 133 134 135 136 137 138 139 140 141 142 143 144 145
21 146 147 148 149 150 151 152 153 154 155 156 157 158 159 160 161 162 163 164 165 166
