ply
format ascii 1.0
comment Created by Blender 2.83.4 - www.blender.org, source file: 'q_9.blend'
element vertex 167
property float x
property float y
property float z
element face 8
property list uchar uint vertex_indices
end_header
-0.642195 -0.267456 3.426157
-0.603260 -0.542827 3.388528
-0.534511 -0.703865 3.345411
-0.427732 -0.843587 3.284464
-0.199409 -1.090929 3.151476
0.101451 -1.309908 2.993249
0.630238 -1.546204 2.780192
1.093984 -1.697849 2.575561
1.593748 -1.777352 2.370280
1.966462 -1.769026 2.153550
2.331842 -1.619988 1.918437
2.222064 -1.312469 2.241506
1.994633 -1.061290 2.508229
1.628135 -0.743747 2.759368
1.221231 -0.490572 2.983558
0.707946 -0.226586 3.201951
0.339910 -0.127597 3.337061
-0.008741 -0.095184 3.428643
-0.191532 -0.091236 3.463434
-0.368770 -0.123979 3.469219
-0.109462 -0.830500 5.104829
-0.109004 -0.846611 5.104248
-0.061097 -0.941408 5.118276
-0.020567 -0.988426 5.123301
0.027578 -1.020700 5.123813
0.124078 -1.071040 5.119816
0.235981 -1.097256 5.110953
0.408083 -1.085232 5.103225
0.553264 -1.055355 5.086319
0.697596 -0.991569 5.065867
0.801671 -0.922884 5.025265
0.887287 -0.805279 4.966747
0.795262 -0.697235 5.033405
0.687543 -0.637662 5.078634
0.539870 -0.583799 5.103330
0.393263 -0.563496 5.122046
0.220772 -0.561835 5.130268
0.110553 -0.594923 5.136991
0.017071 -0.650809 5.137156
-0.029168 -0.685640 5.134223
-0.066977 -0.734396 5.125743
-0.673285 -0.063384 3.850280
-0.760032 0.152142 3.901958
-0.853609 0.275984 3.919307
-0.979025 0.381615 3.919433
-1.238811 0.568350 3.902206
-1.560011 0.727838 3.863744
-2.088464 0.878354 3.812100
-2.545273 0.971479 3.734276
-3.020680 1.003466 3.639771
-3.373986 0.989689 3.491310
-3.699854 0.872502 3.283811
-3.500405 0.577361 3.473786
-3.218956 0.356774 3.612287
-2.809461 0.109806 3.697655
-2.380765 -0.075013 3.771583
-1.859979 -0.250537 3.822163
-1.505555 -0.301659 3.865231
-1.186256 -0.294286 3.890707
-1.023244 -0.277297 3.895793
-0.876010 -0.226129 3.885881
-0.682311 -0.092825 3.849029
-0.365967 0.897961 3.704854
-0.333781 0.894441 3.711710
-0.136128 0.964042 3.766012
-0.031467 1.026813 3.781750
0.048656 1.103774 3.777825
0.183073 1.258424 3.752873
0.277297 1.443030 3.699350
0.316463 1.743498 3.601919
0.314970 1.995338 3.489461
0.247794 2.251812 3.353227
0.165531 2.426200 3.193079
-0.012048 2.569015 2.981330
-0.285236 2.475503 3.097051
-0.459186 2.329137 3.202619
-0.627032 2.098369 3.288786
-0.725781 1.857493 3.379889
-0.792286 1.560015 3.471496
-0.768042 1.362452 3.550257
-0.690255 1.184593 3.620415
-0.636326 1.092970 3.652897
-0.549663 1.009272 3.677917
-0.807510 -0.238406 5.064618
-0.860203 -0.134368 5.094059
-0.906778 -0.082172 5.108072
-0.963587 -0.045601 5.116165
-1.078535 0.012291 5.124846
-1.213509 0.044611 5.127647
-1.422459 0.037152 5.137633
-1.600586 0.009805 5.130931
-1.779361 -0.054312 5.117710
-1.911901 -0.124211 5.071730
-2.025946 -0.247186 4.996707
-1.911901 -0.370162 5.071730
-1.779361 -0.440060 5.117710
-1.600586 -0.504177 5.130931
-1.422459 -0.531525 5.137633
-1.213509 -0.538983 5.127647
-1.078535 -0.506664 5.124846
-0.963587 -0.448772 5.116165
-0.906778 -0.412200 5.108072
-0.860203 -0.360004 5.094059
-0.807510 -0.255967 5.064618
-0.561759 -0.174643 4.160420
-0.734424 -0.230749 4.236250
-0.825312 -0.292612 4.279833
-0.894250 -0.376655 4.315812
-1.009216 -0.552455 4.374931
-1.088281 -0.768968 4.428325
-1.117509 -1.115608 4.511138
-1.111352 -1.420016 4.556227
-1.047464 -1.735599 4.586640
-0.970388 -1.984503 4.552472
-0.809331 -2.222571 4.461646
-0.575925 -2.040140 4.517374
-0.428791 -1.822859 4.531591
-0.287012 -1.536284 4.482879
-0.205449 -1.244249 4.429984
-0.152296 -0.900984 4.345043
-0.176903 -0.669849 4.300874
-0.247634 -0.467857 4.258277
-0.296004 -0.367268 4.232736
-0.372542 -0.281790 4.204050
-0.533593 -0.178616 4.157915
-1.092184 0.246609 2.253239
-0.999063 0.501391 2.334459
-0.976201 0.668373 2.355847
-0.987992 0.831748 2.344885
-1.033048 1.136559 2.292922
-1.142709 1.444876 2.197887
-1.421879 1.855778 2.054080
-1.682204 2.168478 1.875492
-2.002969 2.432166 1.664939
-2.244231 2.572188 1.383081
-2.528973 2.587951 1.006340
-2.687646 2.269478 1.317238
-2.698418 1.957398 1.561672
-2.608842 1.535882 1.737896
-2.447125 1.155865 1.901842
-2.194848 0.726604 2.041656
-1.968651 0.497843 2.153996
-1.714852 0.335537 2.236954
-1.571195 0.262183 2.267497
-1.405854 0.223683 2.274055
-1.123845 0.224995 2.248538
-1.035027 -0.068212 2.269583
-1.234447 -0.314227 2.238588
-1.312223 -0.487410 2.206014
-1.339597 -0.667658 2.160521
-1.353771 -1.011582 2.058630
-1.283662 -1.379145 1.943586
-1.043437 -1.907439 1.820978
-0.782524 -2.325454 1.689434
-0.431964 -2.708800 1.565173
-0.102972 -2.938339 1.389625
0.343421 -3.049226 1.185290
0.471661 -2.739687 1.560864
0.469285 -2.397236 1.833742
0.418328 -1.910317 2.047284
0.285203 -1.448125 2.216909
0.079829 -0.907782 2.349902
-0.141302 -0.592428 2.419942
-0.397641 -0.342022 2.441221
-0.541156 -0.220850 2.435790
-0.707277 -0.131984 2.395683
-0.993997 -0.054028 2.281810
20 0 1 2 3 4 5 6 7 8 9 10 11 12 13 14 15 16 17 18 19
21 20 21 22 23 24 25 26 27 28 29 30 31 32 33 34 35 36 37 38 39 40
21 41 42 43 44 45 46 47 48 49 50 51 52 53 54 55 56 57 58 59 60 61
21 62 63 64 65 66 67 68 69 70 71 72 73 74 75 76 77 78 79 80 81 82
21 83 84 85 86 87 88 89 90 91 92 93 94 95 96 97 98 99 100 101 102 103
21 104 105 106 107 108 109 110 111 112 113 114 115 116 117 118 119 120 121 122 123 124
21 125 126 127 128 129 130 131 132 133 134 135 136 137 138 139 140 141 142 143 144 145
21 146 147 148 149 150 151 152 153 154 155 156 157 158 159 160 161 162 163 164 165 166
