ply
format ascii 1.0
comment Created by Blender 2.83.4 - www.blender.org, source file: 'four_hole_leaf_3.blend'
element vertex 66
property float x
property float y
property float z
element face 5
property list uchar uint vertex_indices
end_header
0.175131 -0.269735 1.962442
0.123868 -0.305369 1.960840
-0.084394 -0.655518 1.990530
-0.157167 -0.875996 1.987318
-0.170409 -1.083700 1.961078
0.203907 -1.061385 1.932753
0.209324 -0.997402 1.947764
0.231270 -0.937452 1.960366
0.230147 -0.832086 1.973927
0.285292 -0.754637 1.979195
0.380615 -0.690235 1.983687
0.806205 -0.206335 2.017426
0.574253 -0.197678 2.011115
0.487357 -0.834589 1.966998
0.474018 -0.919978 1.948547
0.755293 -0.722837 1.953117
0.735728 -0.687091 1.954980
0.824962 -0.553053 1.962178
0.902278 -0.570831 1.951285
0.962311 -0.599429 1.940074
1.080385 -0.624576 1.894244
1.133728 -0.905510 1.881683
1.361630 -0.412940 1.935604
1.006472 -0.265625 1.997860
2.186666 -1.597399 1.536798
1.735107 -1.617368 1.587059
1.829278 -1.673262 1.577813
1.866118 -1.720753 1.551166
2.033262 -1.877486 1.515773
2.040795 -1.956466 1.475758
1.886349 -2.072324 1.411086
1.679506 -2.073719 1.454874
1.520607 -2.040576 1.473242
1.406792 -2.017677 1.509940
1.384072 -1.906388 1.565330
1.120918 -1.967514 1.583437
1.278009 -2.183921 1.550072
1.278260 -2.211334 1.543072
1.330229 -2.331844 1.502477
1.256212 -2.349398 1.478203
1.132045 -2.317389 1.527756
0.686319 -2.640322 1.489908
1.152433 -2.903488 1.317103
1.548946 -3.028116 1.091366
2.059489 -2.983261 0.805177
2.266893 -2.529055 1.113804
2.278455 -2.120766 1.352295
1.055426 -0.969446 1.842722
1.006280 -0.995134 1.880434
1.326355 -1.221600 1.743591
1.671646 -0.653145 1.838884
0.984095 -0.949013 1.908766
0.914382 -0.835539 1.933854
0.363749 -1.046863 1.925045
0.213330 -1.128858 1.915029
-0.153231 -1.465953 1.888260
-0.031902 -1.837318 1.785643
0.325985 -2.299481 1.647595
1.009739 -2.215833 1.557844
0.897986 -2.065475 1.614031
0.923355 -1.978705 1.650636
1.008711 -1.857538 1.647360
1.082093 -1.926685 1.614228
1.436123 -1.775032 1.604331
1.524617 -1.667186 1.592647
1.985990 -1.145576 1.699475
13 0 1 2 3 4 5 6 7 8 9 10 11 12
13 11 10 13 14 15 16 17 18 19 20 21 22 23
23 24 25 26 27 28 29 30 31 32 33 34 35 36 37 38 39 40 41 42 43 44 45 46
6 22 21 47 48 49 50
28 49 48 51 52 15 14 53 54 5 4 55 56 57 41 40 58 59 60 61 62 35 34 63 64 25 24 65 50
