ply
format ascii 1.0
comment Created by Blender 2.83.4 - www.blender.org, source file: 'two_hole_leaf_3.blend'
element vertex 42
property float x
property float y
property float z
element face 2
property list uchar uint vertex_indices
end_header
2.186666 -1.597399 1.536798
1.735107 -1.617368 1.587059
1.829278 -1.673262 1.577813
1.866118 -1.720753 1.551166
2.033262 -1.877486 1.515773
2.040795 -1.956466 1.475758
1.886349 -2.072324 1.411086
1.679506 -2.073719 1.454874
1.520607 -2.040576 1.473242
1.406792 -2.017677 1.509940
1.384072 -1.906388 1.565330
1.120918 -1.967514 1.583437
1.278009 -2.183921 1.550072
1.278260 -2.211334 1.543072
1.330229 -2.331844 1.502477
1.256212 -2.349398 1.478203
1.132045 -2.317389 1.527756
0.686319 -2.640322 1.489908
1.152433 -2.903488 1.317103
1.548946 -3.028116 1.091366
2.059489 -2.983261 0.805177
2.266893 -2.529055 1.113804
2.278455 -2.120766 1.352295
-0.157167 -0.875996 1.987318
-0.153231 -1.465953 1.888260
-0.031902 -1.837318 1.785643
0.325985 -2.299481 1.647595
1.009739 -2.215833 1.557844
0.897986 -2.065475 1.614031
0.923355 -1.978705 1.650636
1.008711 -1.857538 1.647360
1.082093 -1.926685 1.614228
1.436123 -1.775032 1.604331
1.524617 -1.667186 1.592647
1.985990 -1.145576 1.699475
1.671646 -0.653145 1.838884
1.361630 -0.412940 1.935604
1.006472 -0.265625 1.997860
0.574253 -0.197678 2.011115
0.175131 -0.269735 1.962442
0.123868 -0.305369 1.960840
-0.084394 -0.655518 1.990530
23 0 1 2 3 4 5 6 7 8 9 10 11 12 13 14 15 16 17 18 19 20 21 22
25 23 24 25 26 17 16 27 28 29 30 31 11 10 32 33 1 0 34 35 36 37 38 39 40 41
