ply
format ascii 1.0
comment Created by Blender 2.83.4 - www.blender.org, source file: 'five_hole_leaf.blend'
element vertex 75
property float x
property float y
property float z
element face 4
property list uchar uint vertex_indices
end_header
0.175131 -0.269735 1.962442
0.123868 -0.305369 1.960840
-0.084394 -0.655518 1.990530
-0.157167 -0.875996 1.987318
-0.170409 -1.083700 1.961078
0.160650 -1.061385 1.932753
0.129009 -0.997402 1.947764
0.114270 -0.937452 1.960366
0.111778 -0.832086 1.973927
0.130406 -0.754637 1.979195
0.185003 -0.678342 1.983687
0.806205 -0.206335 2.017426
0.574253 -0.197678 2.011115
0.325985 -2.299481 1.647595
0.559784 -1.823088 1.722287
0.443385 -1.649717 1.774068
0.392724 -1.560573 1.799572
0.362435 -1.422034 1.833292
0.402457 -1.323244 1.849814
0.474464 -1.376310 1.829523
0.526472 -1.434221 1.810624
0.557772 -1.490337 1.794641
0.592599 -1.609591 1.764546
0.596159 -1.700725 1.744362
1.291946 -1.236871 1.761531
1.245096 -1.140920 1.787490
1.249615 -1.049992 1.806345
1.323857 -1.073841 1.792540
1.382659 -1.108906 1.778157
1.427388 -1.151756 1.763768
1.671646 -0.653145 1.838884
1.361630 -0.412940 1.935604
1.006472 -0.265625 1.997860
0.241787 -0.834589 1.966998
0.267901 -0.919978 1.948546
0.266776 -1.046863 1.925045
0.213330 -1.128858 1.915029
-0.153231 -1.465953 1.888260
-0.031902 -1.837318 1.785643
1.491381 -1.248503 1.735626
1.522269 -1.334696 1.713309
1.527278 -1.466171 1.673957
1.370144 -1.320080 1.734606
1.302981 -1.251141 1.757192
0.686319 -2.640322 1.489908
0.969206 -2.652851 1.412893
0.847476 -2.215833 1.577376
0.822430 -2.097894 1.611905
0.831086 -1.945032 1.650636
0.893993 -1.857538 1.664316
0.952391 -1.926685 1.637668
0.958589 -1.934546 1.634703
1.442151 -1.801792 1.596152
1.436123 -1.775032 1.604331
1.524617 -1.767825 1.592647
1.556218 -1.770477 1.587059
2.186666 -1.597399 1.536798
1.985990 -1.145576 1.699475
1.604669 -1.777928 1.577813
1.669278 -1.800825 1.562095
1.793943 -1.877486 1.515773
1.877002 -1.956466 1.475758
1.979682 -2.121669 1.405198
1.699990 -2.020805 1.486195
1.588593 -1.972395 1.521361
1.469369 -1.875307 1.572942
0.992361 -2.001128 1.612333
1.061767 -2.211334 1.543072
1.090625 -2.373551 1.489839
1.078691 -2.521267 1.444260
1.152433 -2.903488 1.317103
1.548946 -3.028116 1.091366
2.059489 -2.983261 0.805177
2.266893 -2.529055 1.113804
2.278455 -2.120766 1.352295
13 0 1 2 3 4 5 6 7 8 9 10 11 12
30 13 14 15 16 17 18 19 20 21 22 23 24 25 26 27 28 29 30 31 32 11 10 33 34 35 36 5 4 37 38
25 30 29 39 40 41 42 43 24 23 14 13 44 45 46 47 48 49 50 51 52 53 54 55 56 57
23 56 55 58 59 60 61 62 63 64 65 52 51 66 67 68 69 45 44 70 71 72 73 74
