ply
format ascii 1.0
comment Created by Blender 2.83.4 - www.blender.org, source file: 'q_7_a.blend'
element vertex 167
property float x
property float y
property float z
element face 8
property list uchar uint vertex_indices
end_header
0.014153 -0.347497 3.800770
0.106723 -0.631992 3.850157
0.194686 -0.779459 3.865199
0.305829 -0.888489 3.862342
0.532046 -1.067052 3.839062
0.804569 -1.183370 3.793124
1.244780 -1.212450 3.728718
1.619654 -1.182583 3.640164
2.003437 -1.056574 3.534472
2.279347 -0.905459 3.378552
2.519704 -0.611544 3.164743
2.347826 -0.260178 3.356762
2.110837 -0.044521 3.500296
1.762758 0.165908 3.594626
1.403112 0.279540 3.678334
0.967054 0.347756 3.741419
0.676533 0.294485 3.793084
0.418080 0.169275 3.826622
0.286573 0.086407 3.835959
0.169545 -0.040009 3.830167
-0.326560 0.097689 5.363257
-0.325812 0.078777 5.364007
-0.276661 -0.030406 5.395831
-0.234484 -0.084489 5.411832
-0.183872 -0.121575 5.422376
-0.081875 -0.179523 5.436340
0.036636 -0.209410 5.444794
0.217446 -0.193578 5.460336
0.371233 -0.157981 5.459472
0.524247 -0.082977 5.451401
0.638029 -0.004482 5.413038
0.734523 0.129552 5.346547
0.627542 0.260384 5.402543
0.507800 0.332437 5.434940
0.349318 0.395530 5.437540
0.193199 0.418833 5.436069
0.011753 0.419066 5.419891
-0.104002 0.379342 5.414195
-0.201062 0.312602 5.405172
-0.248555 0.270920 5.397749
-0.286281 0.212583 5.386203
-0.513637 -0.022579 2.961161
-0.561238 0.267656 3.034941
-0.626278 0.424124 3.066534
-0.721073 0.546879 3.080432
-0.921551 0.755054 3.088955
-1.178314 0.909369 3.075952
-1.614194 1.000936 3.055866
-1.995898 1.027188 3.002230
-2.401204 0.960724 2.927077
-2.707975 0.858537 2.790245
-3.004517 0.614372 2.584532
-2.866775 0.231049 2.739330
-2.650265 -0.023424 2.847223
-2.327756 -0.284121 2.895830
-1.981365 -0.449915 2.938144
-1.555117 -0.579539 2.955142
-1.256619 -0.568941 2.981526
-0.981384 -0.481719 2.996972
-0.839363 -0.417868 2.998214
-0.706922 -0.308004 2.988232
-0.524976 -0.067383 2.957525
-0.081592 -0.050403 4.966176
-0.049014 -0.055072 4.969669
0.149265 -0.007155 5.042120
0.252903 0.047185 5.080176
0.330656 0.121732 5.107660
0.459475 0.277763 5.148489
0.545907 0.471330 5.178211
0.572050 0.785604 5.221290
0.558112 1.060895 5.230939
0.477256 1.347703 5.223555
0.382275 1.570552 5.159187
0.190315 1.783196 5.037938
-0.073985 1.635944 5.110258
-0.238339 1.450262 5.146816
-0.395368 1.197548 5.128689
-0.482894 0.936799 5.108160
-0.536709 0.626491 5.062113
-0.503229 0.415738 5.045249
-0.417259 0.228923 5.027455
-0.359327 0.134930 5.014522
-0.269309 0.052835 4.997233
-0.533836 0.147279 5.451440
-0.583729 0.278410 5.475857
-0.628863 0.344716 5.486796
-0.684598 0.391773 5.492070
-0.797718 0.466815 5.495604
-0.931565 0.510547 5.493584
-1.140883 0.507183 5.498066
-1.319633 0.477881 5.487399
-1.500109 0.402861 5.471456
-1.633706 0.318514 5.424249
-1.749856 0.167096 5.350342
-1.642099 0.013814 5.432646
-1.513274 -0.075028 5.484625
-1.337173 -0.158872 5.504946
-1.160290 -0.197331 5.517480
-0.951481 -0.212446 5.513508
-0.815428 -0.176099 5.513320
-0.698357 -0.107701 5.505834
-0.640125 -0.064143 5.498063
-0.591429 -0.001123 5.483560
-0.534435 0.125523 5.452040
-0.208776 -0.027766 4.882329
-0.419013 -0.048407 4.929599
-0.533561 -0.087930 4.951011
-0.624730 -0.150583 4.962008
-0.780399 -0.285786 4.971713
-0.899184 -0.463857 4.969969
-0.979448 -0.771847 4.972763
-1.010463 -1.045037 4.950914
-0.975743 -1.339156 4.917156
-0.910632 -1.567192 4.835998
-0.742378 -1.795922 4.708951
-0.467918 -1.703839 4.822792
-0.281392 -1.553473 4.896445
-0.085290 -1.330600 4.923317
0.044177 -1.087797 4.942230
0.151291 -0.788095 4.938635
0.153724 -0.574111 4.943849
0.100981 -0.374580 4.940361
0.060492 -0.271289 4.933291
-0.012866 -0.173767 4.917484
-0.177166 -0.037523 4.881387
-0.184884 0.191479 2.488703
0.020243 0.414238 2.472977
0.106562 0.561135 2.446892
0.147222 0.705549 2.405181
0.191368 0.975098 2.310338
0.157595 1.249648 2.194620
-0.034912 1.621986 2.042681
-0.248056 1.905446 1.889436
-0.550154 2.147731 1.733318
-0.823873 2.274178 1.553421
-1.207443 2.289942 1.347272
-1.420734 2.028196 1.622713
-1.486266 1.761936 1.841996
-1.495361 1.391400 2.034241
-1.414948 1.053238 2.202896
-1.258640 0.665982 2.359037
-1.068003 0.456079 2.456544
-0.831171 0.302328 2.518768
-0.694332 0.231066 2.539872
-0.527319 0.188573 2.536546
-0.227501 0.173915 2.493651
0.037139 -0.323805 2.625193
-0.202859 -0.654328 2.621350
-0.295709 -0.865761 2.597023
-0.327935 -1.067848 2.550904
-0.345700 -1.441263 2.441541
-0.258539 -1.810695 2.303387
0.056006 -2.288669 2.120800
0.384362 -2.644747 1.930358
0.825343 -2.932217 1.732173
1.210233 -3.070839 1.494780
1.724790 -3.046275 1.213358
1.971124 -2.645081 1.563976
2.018718 -2.264462 1.840699
1.974452 -1.755009 2.074961
1.815304 -1.304250 2.280790
1.546907 -0.800454 2.467575
1.259773 -0.542918 2.587543
0.919340 -0.369933 2.664332
0.725288 -0.294460 2.689873
0.495185 -0.263736 2.684830
0.091468 -0.293405 2.630134
20 0 1 2 3 4 5 6 7 8 9 10 11 12 13 14 15 16 17 18 19
21 20 21 22 23 24 25 26 27 28 29 30 31 32 33 34 35 36 37 38 39 40
21 41 42 43 44 45 46 47 48 49 50 51 52 53 54 55 56 57 58 59 60 61
21 62 63 64 65 66 67 68 69 70 71 72 73 74 75 76 77 78 79 80 81 82
21 83 84 85 86 87 88 89 90 91 92 93 94 95 96 97 98 99 100 101 102 103
21 104 105 106 107 108 109 110 111 112 113 114 115 116 117 118 119 120 121 122 123 124
21 125 126 127 128 129 130 131 132 133 134 135 136 137 138 139 140 141 142 143 144 145
21 146 147 148 149 150 151 152 153 154 155 156 157 158 159 160 161 162 163 164 165 166
