ply
format ascii 1.0
comment Created by Blender 2.83.4 - www.blender.org, source file: 'q_8_a.blend'
element vertex 167
property float x
property float y
property float z
element face 8
property list uchar uint vertex_indices
end_header
0.273588 0.160572 2.787740
0.320900 -0.138872 2.794108
0.383408 -0.299036 2.781832
0.473231 -0.422931 2.753018
0.661564 -0.630430 2.681778
0.903412 -0.781377 2.588857
1.322357 -0.870902 2.465368
1.684781 -0.889366 2.332807
2.070517 -0.812896 2.192458
2.349426 -0.688521 2.019211
2.611634 -0.411366 1.808727
2.524637 -0.064527 2.057736
2.345317 0.165771 2.252880
2.050933 0.414641 2.413314
1.727473 0.571869 2.554443
1.319154 0.699239 2.680269
1.031258 0.686191 2.763065
0.760443 0.599939 2.816169
0.618514 0.538267 2.833526
0.481640 0.433582 2.829450
-0.394735 0.020138 5.520521
-0.393243 0.001314 5.522017
-0.341051 -0.104455 5.559943
-0.297408 -0.156079 5.579695
-0.245811 -0.190571 5.593698
-0.142208 -0.243583 5.614008
-0.023036 -0.268073 5.628428
0.156149 -0.244009 5.650739
0.308245 -0.201952 5.654816
0.458259 -0.120846 5.650169
0.570251 -0.039018 5.613542
0.663901 0.096508 5.546017
0.549364 0.224608 5.592589
0.425500 0.292624 5.617308
0.264596 0.348968 5.611030
0.107856 0.365537 5.602294
-0.072597 0.357461 5.578713
-0.186279 0.312667 5.569799
-0.280049 0.241573 5.559352
-0.325435 0.197667 5.551580
-0.360212 0.137397 5.540721
-0.422176 -0.006727 3.309133
-0.458832 0.287991 3.370317
-0.517722 0.448230 3.394102
-0.607374 0.575379 3.400746
-0.798712 0.792098 3.395948
-1.048094 0.956595 3.370275
-1.478938 1.065816 3.335297
-1.857711 1.106181 3.270753
-2.263583 1.054136 3.187704
-2.571103 0.959759 3.046999
-2.872933 0.720458 2.843271
-2.755883 0.338092 3.016379
-2.553391 0.079118 3.139682
-2.243861 -0.192963 3.206766
-1.906179 -0.371576 3.264501
-1.486542 -0.518501 3.297622
-1.188597 -0.519614 3.331343
-0.910272 -0.443677 3.350554
-0.765669 -0.385950 3.353015
-0.628351 -0.282328 3.342227
-0.435370 -0.051115 3.306947
-0.175772 0.506220 3.809087
-0.143502 0.505060 3.816340
0.037114 0.568337 3.917503
0.127743 0.630341 3.973033
0.191535 0.710344 4.016489
0.293609 0.875497 4.086576
0.350434 1.073902 4.143397
0.330853 1.383220 4.215829
0.280723 1.652666 4.246782
0.165216 1.927379 4.253258
0.050685 2.142915 4.196216
-0.151363 2.342709 4.069622
-0.401265 2.159157 4.094627
-0.543620 1.952854 4.093927
-0.663751 1.686609 4.034485
-0.714126 1.420775 3.980941
-0.721957 1.112442 3.902348
-0.660003 0.909768 3.872226
-0.549316 0.736969 3.849962
-0.478703 0.652136 3.836718
-0.377507 0.583238 3.824305
-0.499722 0.138872 5.575145
-0.540874 0.274871 5.584713
-0.581377 0.344937 5.586609
-0.633516 0.396135 5.583643
-0.740420 0.479083 5.572187
-0.869975 0.531914 5.556190
-1.078707 0.543914 5.544685
-1.257980 0.526628 5.522641
-1.442153 0.463575 5.498994
-1.578206 0.385155 5.448689
-1.700228 0.236497 5.378746
-1.610853 0.083760 5.481527
-1.493356 -0.009130 5.550496
-1.326205 -0.103219 5.591264
-1.154191 -0.152957 5.620611
-0.947439 -0.183237 5.634107
-0.809304 -0.156857 5.641474
-0.687032 -0.097921 5.637471
-0.625183 -0.059488 5.630672
-0.570824 -0.001629 5.614839
-0.502053 0.117352 5.577490
-0.419140 0.049447 4.886738
-0.598634 -0.007434 4.993539
-0.690391 -0.066364 5.050545
-0.757070 -0.144302 5.093415
-0.866078 -0.306067 5.160914
-0.932668 -0.503111 5.211529
-0.929366 -0.816127 5.269127
-0.894965 -1.089287 5.285641
-0.796821 -1.370519 5.274359
-0.698789 -1.589685 5.202371
-0.515650 -1.795194 5.057479
-0.253807 -1.628580 5.078594
-0.098913 -1.431523 5.080228
0.034948 -1.170570 5.026975
0.099503 -0.906060 4.982936
0.123189 -0.595403 4.917830
0.072831 -0.388137 4.899746
-0.027641 -0.208061 4.890516
-0.093294 -0.118557 4.884456
-0.190406 -0.043117 4.879985
-0.387368 0.046670 4.877900
-0.161097 0.230287 1.708703
-0.020041 0.493437 1.761627
0.025364 0.658813 1.778937
0.026973 0.814522 1.778258
-0.001033 1.101657 1.759027
-0.106030 1.379372 1.717085
-0.390135 1.717808 1.657717
-0.671502 1.968637 1.572969
-1.028384 2.159521 1.470324
-1.328685 2.255939 1.316062
-1.707382 2.228602 1.102256
-1.841447 1.858563 1.289257
-1.832597 1.536279 1.428284
-1.743059 1.138211 1.516953
-1.575722 0.799013 1.595740
-1.322715 0.436476 1.653483
-1.082957 0.263197 1.702469
-0.813563 0.163131 1.734319
-0.662683 0.125596 1.742969
-0.490450 0.128883 1.737037
-0.197709 0.201913 1.706789
-0.063981 -0.385922 2.162189
-0.243630 -0.748217 2.219877
-0.298390 -0.973394 2.234481
-0.294646 -1.182929 2.225210
-0.246137 -1.567175 2.183783
-0.094439 -1.934591 2.111973
0.300651 -2.375936 2.012703
0.688582 -2.698148 1.883988
1.175822 -2.935860 1.734090
1.582990 -3.045863 1.520021
2.090687 -2.983166 1.232127
2.258220 -2.490172 1.503161
2.234848 -2.064318 1.707647
2.099660 -1.536879 1.848755
1.861888 -1.091091 1.973721
1.507751 -0.616045 2.071969
1.178593 -0.394672 2.148209
0.812212 -0.272023 2.197573
0.607663 -0.227743 2.211857
0.375829 -0.238424 2.204410
-0.015768 -0.346244 2.160985
20 0 1 2 3 4 5 6 7 8 9 10 11 12 13 14 15 16 17 18 19
21 20 21 22 23 24 25 26 27 28 29 30 31 32 33 34 35 36 37 38 39 40
21 41 42 43 44 45 46 47 48 49 50 51 52 53 54 55 56 57 58 59 60 61
21 62 63 64 65 66 67 68 69 70 71 72 73 74 75 76 77 78 79 80 81 82
21 83 84 85 86 87 88 89 90 91 92 93 94 95 96 97 98 99 100 101 102 103
21 104 105 106 107 108 109 110 111 112 113 114 115 116 117 118 119 120 121 122 123 124
21 125 126 127 128 129 130 131 132 133 134 135 136 137 138 139 140 141 142 143 144 145
21 146 147 148 149 150 151 152 153 154 155 156 157 158 159 160 161 162 163 164 165 166
