ply
format ascii 1.0
comment Created by Blender 2.83.4 - www.blender.org, source file: 'one_hole_leaf.blend'
element vertex 27
property float x
property float y
property float z
element face 2
property list uchar uint vertex_indices
end_header
32.598587 -229.948120 164.759445
55.978409 -182.308777 172.228683
44.338573 -164.971680 177.406830
39.272400 -156.057312 179.957184
36.243484 -142.203400 183.329193
40.245766 -132.324387 184.981384
47.446411 -137.630997 182.952271
52.647190 -143.422028 181.062347
55.777241 -149.033676 179.464127
59.259983 -160.959045 176.454620
59.615978 -170.072449 174.436203
167.164612 -65.314407 183.888428
136.162964 -41.293907 193.560410
100.647156 -26.562452 199.785980
57.425251 -19.767809 201.111465
17.513119 -26.973486 196.244186
12.386826 -30.536884 196.083969
-8.439387 -65.551788 199.052979
-15.716702 -87.599594 198.731766
-15.323099 -146.595245 188.825958
-3.190140 -183.731812 178.564285
115.243408 -290.348785 131.710327
154.894730 -302.811462 109.136642
205.949005 -298.326019 80.517700
226.689377 -252.905426 111.380463
227.845612 -212.076492 135.229523
198.599014 -114.557510 169.947510
21 0 1 2 3 4 5 6 7 8 9 10 11 12 13 14 15 16 17 18 19 20
10 0 21 22 23 24 25 26 11 10 1
