ply
format ascii 1.0
comment Created by Blender 2.83.4 - www.blender.org, source file: 'three_hole_leaf.blend'
element vertex 52
property float x
property float y
property float z
element face 3
property list uchar uint vertex_indices
end_header
32.598587 -229.948120 164.759445
55.978409 -182.308777 172.228683
44.338573 -164.971680 177.406830
39.272400 -156.057312 179.957184
36.243484 -142.203400 183.329193
40.245766 -132.324387 184.981384
47.446411 -137.630997 182.952271
52.647190 -143.422028 181.062347
55.777241 -149.033676 179.464127
59.259983 -160.959045 176.454620
59.615978 -170.072449 174.436203
129.194672 -123.687019 176.153046
124.509621 -114.091965 178.748962
124.961517 -104.999123 180.634491
132.385696 -107.384071 179.254013
138.265900 -110.890549 177.815765
142.738831 -115.175545 176.376831
167.164612 -65.314407 183.888428
136.162964 -41.293907 193.560410
100.647156 -26.562452 199.785980
57.425251 -19.767809 201.111465
17.513119 -26.973486 196.244186
12.386826 -30.536884 196.083969
-8.439387 -65.551788 199.052979
-15.716702 -87.599594 198.731766
-15.323099 -146.595245 188.825958
-3.190140 -183.731812 178.564285
149.138092 -124.850266 173.562607
152.226959 -133.469513 171.330887
152.727814 -146.617020 167.395660
137.014435 -132.007965 173.460571
130.298096 -125.113998 175.719223
68.631996 -264.032196 148.990753
144.215103 -180.179169 159.615265
143.612305 -177.503174 160.433075
152.461731 -176.782455 159.264679
155.621887 -177.047607 158.705872
218.666656 -159.739761 153.679840
198.599014 -114.557510 169.947510
160.466919 -177.792740 157.781281
166.927811 -180.082474 156.209534
179.394363 -187.748489 151.577332
187.700211 -195.646484 147.575806
197.968262 -212.166809 140.519806
169.998993 -202.080414 148.619492
158.859375 -197.239441 152.136078
146.936981 -187.530655 157.294174
115.243408 -290.348785 131.710327
154.894730 -302.811462 109.136642
205.949005 -298.326019 80.517700
226.689377 -252.905426 111.380463
227.845612 -212.076492 135.229523
27 0 1 2 3 4 5 6 7 8 9 10 11 12 13 14 15 16 17 18 19 20 21 22 23 24 25 26
18 17 16 27 28 29 30 31 11 10 1 0 32 33 34 35 36 37 38
17 37 36 39 40 41 42 43 44 45 46 33 32 47 48 49 50 51
