ply
format ascii 1.0
comment Created by Blender 2.83.4 - www.blender.org, source file: 'q_10.blend'
element vertex 167
property float x
property float y
property float z
element face 8
property list uchar uint vertex_indices
end_header
0.223710 -0.247742 3.582663
0.278495 -0.672510 3.612925
0.332751 -0.893063 3.618573
0.402704 -1.056379 3.609377
0.545916 -1.323547 3.576308
0.720142 -1.499001 3.525615
1.003950 -1.551062 3.464748
1.246789 -1.511979 3.383162
1.497019 -1.330779 3.291398
1.678581 -1.103689 3.149983
1.839975 -0.660370 2.960498
1.732933 -0.159806 3.174773
1.582264 0.149601 3.330279
1.360373 0.460526 3.434968
1.129620 0.631345 3.522066
0.849109 0.740652 3.584437
0.660599 0.668039 3.628614
0.491799 0.490864 3.650013
0.405683 0.373481 3.651838
0.328357 0.193412 3.635668
-0.433481 0.090833 5.121944
-0.428454 0.066020 5.121944
-0.359661 -0.062246 5.162915
-0.310240 -0.119439 5.182416
-0.257716 -0.150917 5.193678
-0.156050 -0.191852 5.205759
-0.046879 -0.189536 5.209657
0.105666 -0.104718 5.223554
0.229700 -0.002756 5.214226
0.343686 0.151389 5.195827
0.421790 0.297268 5.131841
0.471009 0.511566 5.027438
0.351378 0.644781 5.131841
0.233251 0.696426 5.195827
0.082554 0.723468 5.214226
-0.057138 0.698786 5.223554
-0.213954 0.635045 5.209657
-0.304619 0.541398 5.205759
-0.373139 0.418737 5.193678
-0.404723 0.346869 5.182416
-0.424258 0.256563 5.162915
-0.921110 0.350519 3.301758
-0.899683 0.758561 3.343653
-0.916144 0.992112 3.359502
-0.960172 1.190299 3.363169
-1.063002 1.539581 3.357736
-1.216210 1.836010 3.337462
-1.509440 2.113073 3.310195
-1.776225 2.281410 3.262368
-2.077597 2.333519 3.201750
-2.314716 2.298154 3.100475
-2.571201 2.065462 2.954978
-2.549407 1.518220 3.081606
-2.445686 1.110276 3.172156
-2.266677 0.651521 3.222936
-2.052083 0.309741 3.266567
-1.773087 -0.014624 3.292690
-1.558199 -0.106075 3.317923
-1.344886 -0.088195 3.332238
-1.231063 -0.054439 3.334183
-1.114990 0.043046 3.326343
-0.937867 0.294831 3.300411
-0.318375 0.135689 4.339385
-0.278721 0.131084 4.346051
-0.038272 0.161453 4.435311
0.089292 0.199241 4.481287
0.187319 0.252826 4.513721
0.352384 0.365806 4.561814
0.468656 0.508141 4.593778
0.516569 0.743319 4.629824
0.516124 0.949965 4.629999
0.435481 1.167260 4.606615
0.339709 1.335782 4.527085
0.129653 1.498795 4.382168
-0.215653 1.400285 4.433728
-0.435545 1.268428 4.460193
-0.644457 1.084764 4.434902
-0.767514 0.892462 4.413966
-0.849110 0.661196 4.372258
-0.819425 0.501909 4.364830
-0.723048 0.358563 4.360686
-0.655917 0.285795 4.356015
-0.547763 0.220629 4.349664
-0.708951 0.039128 5.067553
-0.758411 0.238516 5.030428
-0.802127 0.337970 5.011141
-0.855449 0.406332 4.996120
-0.963343 0.511392 4.968736
-1.090034 0.568479 4.951662
-1.286160 0.563438 4.964888
-1.453356 0.511819 4.975552
-1.621158 0.392704 5.002731
-1.745564 0.238704 5.004793
-1.852611 -0.027744 5.013549
-1.745564 -0.179424 5.153341
-1.621158 -0.263085 5.235713
-1.453356 -0.361974 5.285985
-1.286160 -0.403339 5.308355
-1.090034 -0.423657 5.304139
-0.963343 -0.370855 5.282172
-0.855449 -0.279076 5.239625
-0.802127 -0.223093 5.210470
-0.758411 -0.145076 5.166707
-0.708951 0.009273 5.078159
-0.489946 -0.171367 4.351556
-0.747632 -0.229140 4.433061
-0.876729 -0.281199 4.474905
-0.967241 -0.345437 4.504145
-1.111389 -0.476045 4.546845
-1.191003 -0.630031 4.574958
-1.163659 -0.868033 4.609249
-1.091321 -1.072151 4.609259
-0.926145 -1.277566 4.588275
-0.758322 -1.432738 4.511714
-0.463678 -1.569131 4.373461
-0.122419 -1.433018 4.436063
0.071201 -1.278005 4.469625
0.237574 -1.072736 4.451166
0.306649 -0.868680 4.434331
0.317873 -0.630696 4.395453
0.230361 -0.476635 4.387223
0.075152 -0.345896 4.380136
-0.023446 -0.281574 4.373393
-0.164252 -0.229397 4.363658
-0.444541 -0.171387 4.346155
1.414802 0.277515 1.975454
1.664585 0.425555 1.997494
1.764990 0.522459 1.995109
1.805671 0.617243 1.975631
1.840052 0.794307 1.921577
1.771479 0.972937 1.845402
1.484518 1.208314 1.742926
1.178949 1.387993 1.625871
0.759906 1.538594 1.497595
0.390163 1.621020 1.330027
-0.113369 1.632625 1.117583
-0.376232 1.436625 1.346683
-0.442103 1.249391 1.523719
-0.422645 1.002650 1.660679
-0.287507 0.781966 1.781438
-0.047029 0.535405 1.884924
0.222965 0.405236 1.956721
0.549372 0.314978 2.002934
0.736607 0.275031 2.017459
0.961491 0.256391 2.012774
1.360080 0.264348 1.976643
-0.377599 -0.275230 2.032491
-0.606916 -0.537349 2.056885
-0.687046 -0.702532 2.055834
-0.701627 -0.858287 2.037454
-0.682713 -1.145085 1.985254
-0.549118 -1.423911 1.910665
-0.155050 -1.770972 1.810092
0.241712 -2.027270 1.694061
0.754948 -2.225474 1.566228
1.191546 -2.320221 1.397892
1.753702 -2.288379 1.183227
1.982074 -1.946230 1.411633
1.994806 -1.638909 1.587780
1.893737 -1.245713 1.722777
1.672774 -0.906247 1.841864
1.326651 -0.536503 1.943271
0.985294 -0.355968 2.014248
0.594231 -0.245230 2.059979
0.373718 -0.200695 2.074273
0.118316 -0.194249 2.069491
-0.321154 -0.248526 2.033473
20 0 1 2 3 4 5 6 7 8 9 10 11 12 13 14 15 16 17 18 19
21 20 21 22 23 24 25 26 27 28 29 30 31 32 33 34 35 36 37 38 39 40
21 41 42 43 44 45 46 47 48 49 50 51 52 53 54 55 56 57 58 59 60 61
21 62 63 64 65 66 67 68 69 70 71 72 73 74 75 76 77 78 79 80 81 82
21 83 84 85 86 87 88 89 90 91 92 93 94 95 96 97 98 99 100 101 102 103
21 104 105 106 107 108 109 110 111 112 113 114 115 116 117 118 119 120 121 122 123 124
21 125 126 127 128 129 130 131 132 133 134 135 136 137 138 139 140 141 142 143 144 145
21 146 147 148 149 150 151 152 153 154 155 156 157 158 159 160 161 162 163 164 165 166
