ply
format ascii 1.0
comment Created by Blender 2.83.4 - www.blender.org, source file: 'q_6.blend'
element vertex 167
property float x
property float y
property float z
element face 8
property list uchar uint vertex_indices
end_header
-0.618507 0.273978 2.895085
-0.536494 0.075762 2.882657
-0.455530 -0.030049 2.862271
-0.351387 -0.111516 2.829629
-0.138568 -0.247170 2.755033
0.120530 -0.345515 2.664668
0.544803 -0.406192 2.549745
0.906753 -0.417908 2.431938
1.280010 -0.367416 2.312709
1.547548 -0.279749 2.169723
1.783333 -0.088389 2.004214
1.635204 0.121185 2.236040
1.417488 0.261407 2.416719
1.089934 0.419954 2.570525
0.747476 0.520831 2.703080
0.328521 0.605825 2.822024
0.046385 0.598798 2.894960
-0.207699 0.545709 2.938337
-0.337910 0.507943 2.951257
-0.456079 0.443580 2.943496
-0.743995 0.730447 4.447708
-0.744519 0.713564 4.449607
-0.705905 0.614706 4.482738
-0.670838 0.564514 4.498406
-0.627447 0.528562 4.507606
-0.539327 0.470634 4.518511
-0.434945 0.436256 4.521725
-0.271518 0.438799 4.524864
-0.131891 0.459829 4.513468
0.009202 0.515627 4.493027
0.113714 0.575362 4.447392
0.204775 0.684096 4.373828
0.121062 0.811821 4.420787
0.020726 0.886489 4.451299
-0.116536 0.953976 4.457869
-0.254529 0.985531 4.463348
-0.417510 0.997329 4.458596
-0.523823 0.969562 4.462374
-0.615402 0.916174 4.463994
-0.660979 0.881806 4.462706
-0.699164 0.831635 4.458330
-1.336208 0.020780 2.937462
-1.382543 0.328680 3.040247
-1.445623 0.500489 3.075511
-1.536905 0.641946 3.078936
-1.728028 0.888453 3.057425
-1.975326 1.086815 2.989388
-2.410841 1.241274 2.851888
-2.785812 1.322889 2.686738
-3.186669 1.310760 2.479317
-3.469851 1.254970 2.232655
-3.733666 1.053808 1.898056
-3.673487 0.609976 2.044387
-3.506050 0.299156 2.184039
-3.211365 -0.025004 2.293300
-2.881679 -0.250053 2.416584
-2.458514 -0.443631 2.542665
-2.157697 -0.472479 2.660181
-1.870711 -0.415348 2.770322
-1.718870 -0.364992 2.822885
-1.569360 -0.263039 2.867529
-1.350748 -0.025274 2.924019
-0.740395 0.702699 3.534260
-0.707010 0.693426 3.526600
-0.486369 0.706910 3.498012
-0.369484 0.739156 3.479792
-0.280332 0.792295 3.461671
-0.132192 0.907896 3.425435
-0.027600 1.062056 3.392102
0.026220 1.331381 3.370421
0.028971 1.571214 3.348050
-0.039359 1.830922 3.336025
-0.140206 2.033261 3.305851
-0.353948 2.238573 3.276895
-0.607773 2.163143 3.413131
-0.772687 2.034628 3.504282
-0.948139 1.842638 3.572241
-1.054868 1.631688 3.618469
-1.137046 1.370240 3.646657
-1.118754 1.181946 3.651795
-1.046782 1.005202 3.637528
-0.996886 0.913437 3.623745
-0.915316 0.826064 3.596431
-0.842456 0.123504 4.311676
-0.887131 0.241159 4.343856
-0.927872 0.300187 4.361416
-0.978505 0.341545 4.374681
-1.081760 0.407015 4.394548
-1.203776 0.443565 4.411178
-1.392076 0.435131 4.442042
-1.554187 0.404204 4.454565
-1.717566 0.331694 4.461249
-1.842468 0.252646 4.433422
-1.953645 0.113574 4.377346
-1.842468 -0.025498 4.433422
-1.717566 -0.104545 4.461249
-1.554187 -0.177055 4.454565
-1.392076 -0.207982 4.442042
-1.203776 -0.216417 4.411178
-1.081760 -0.179867 4.394548
-0.978505 -0.114397 4.374681
-0.927872 -0.073039 4.361416
-0.887131 -0.014011 4.343856
-0.842456 0.103644 4.311676
-0.895113 0.195901 3.505160
-1.130401 0.112877 3.589663
-1.248390 0.034467 3.638776
-1.331107 -0.064836 3.680134
-1.462428 -0.268629 3.749584
-1.535458 -0.511451 3.812821
-1.515158 -0.887922 3.905250
-1.451608 -1.214098 3.958385
-1.304196 -1.544761 3.994400
-1.148456 -1.801307 3.966420
-0.874592 -2.034801 3.879355
-0.581379 -1.810765 3.909936
-0.414796 -1.559594 3.905811
-0.266545 -1.233862 3.840347
-0.203987 -0.909789 3.774650
-0.189894 -0.533892 3.678795
-0.265901 -0.288584 3.630404
-0.401537 -0.080339 3.587544
-0.487461 0.021777 3.562984
-0.610163 0.104201 3.537844
-0.854623 0.195226 3.501127
-0.673207 0.635301 1.803800
-0.478999 0.907294 1.846706
-0.402061 1.081406 1.849332
-0.372378 1.247663 1.825799
-0.349375 1.553966 1.754588
-0.408878 1.858056 1.650414
-0.648644 2.259377 1.513731
-0.898917 2.556307 1.349409
-1.239584 2.798434 1.166992
-1.531747 2.906865 0.915214
-1.925157 2.876477 0.588632
-2.152172 2.582076 0.940971
-2.212654 2.289037 1.207389
-2.195465 1.877571 1.403236
-2.083164 1.508414 1.573285
-1.881026 1.087395 1.711530
-1.658466 0.868664 1.808935
-1.389398 0.715258 1.868021
-1.234574 0.645590 1.883894
-1.048179 0.609331 1.870335
-0.717507 0.612110 1.805640
-0.856382 0.503873 1.874878
-1.177116 0.385949 1.899782
-1.341065 0.280841 1.897087
-1.459493 0.152580 1.875078
-1.650388 -0.105432 1.813998
-1.767701 -0.411415 1.727924
-1.778964 -0.901586 1.612131
-1.724496 -1.314043 1.479864
-1.560078 -1.731838 1.334918
-1.367745 -2.022618 1.145571
-1.011556 -2.263311 0.905518
-0.636370 -2.077168 1.164392
-0.412995 -1.817394 1.364436
-0.196087 -1.428041 1.519196
-0.087911 -1.027715 1.655647
-0.032291 -0.540853 1.772583
-0.107193 -0.220533 1.853710
-0.260600 0.063159 1.905930
-0.359674 0.207643 1.922342
-0.506150 0.335904 1.917048
-0.804160 0.499978 1.876221
20 0 1 2 3 4 5 6 7 8 9 10 11 12 13 14 15 16 17 18 19
21 20 21 22 23 24 25 26 27 28 29 30 31 32 33 34 35 36 37 38 39 40
21 41 42 43 44 45 46 47 48 49 50 51 52 53 54 55 56 57 58 59 60 61
21 62 63 64 65 66 67 68 69 70 71 72 73 74 75 76 77 78 79 80 81 82
21 83 84 85 86 87 88 89 90 91 92 93 94 95 96 97 98 99 100 101 102 103
21 104 105 106 107 108 109 110 111 112 113 114 115 116 117 118 119 120 121 122 123 124
21 125 126 127 128 129 130 131 132 133 134 135 136 137 138 139 140 141 142 143 144 145
21 146 147 148 149 150 151 152 153 154 155 156 157 158 159 160 161 162 163 164 165 166
