ply
format ascii 1.0
comment Created by Blender 2.83.4 - www.blender.org, source file: 'q_7.blend'
element vertex 167
property float x
property float y
property float z
element face 8
property list uchar uint vertex_indices
end_header
-0.396512 0.789101 1.772509
-0.344311 0.590846 1.758822
-0.275023 0.474730 1.745483
-0.174740 0.373750 1.727168
0.037538 0.194644 1.685459
0.307578 0.035835 1.640322
0.759216 -0.134872 1.602405
1.156404 -0.245201 1.556407
1.576410 -0.303468 1.515816
1.900657 -0.300197 1.441872
2.216153 -0.196560 1.352109
2.044253 0.032119 1.543138
1.801625 0.217734 1.674642
1.456487 0.449264 1.768031
1.091232 0.633495 1.836549
0.648304 0.824356 1.880607
0.340524 0.895828 1.899129
0.060646 0.918493 1.893167
-0.082340 0.920646 1.881366
-0.212576 0.895714 1.851724
0.106834 0.419604 3.565318
0.106191 0.398927 3.567644
0.136863 0.277408 3.599631
0.165217 0.215950 3.614887
0.200636 0.172240 3.624099
0.272759 0.102205 3.635643
0.358623 0.061422 3.639703
0.493748 0.066385 3.642019
0.609443 0.094232 3.631395
0.726786 0.164890 3.611685
0.813968 0.240998 3.570767
0.890664 0.377909 3.504357
0.822967 0.530585 3.538184
0.740899 0.619076 3.560582
0.628248 0.699405 3.563304
0.514555 0.735956 3.566683
0.379975 0.748556 3.562391
0.291746 0.713232 3.566893
0.215387 0.646940 3.570689
0.177292 0.604531 3.571166
0.145118 0.543077 3.569739
-0.502666 0.530211 1.796060
-0.568821 0.765103 1.835136
-0.633047 0.889944 1.840219
-0.714744 0.985877 1.825047
-0.880433 1.146688 1.777914
-1.082476 1.261006 1.701525
-1.419433 1.316418 1.577284
-1.703603 1.320681 1.441701
-1.997271 1.248245 1.285746
-2.197949 1.150375 1.106754
-2.368361 0.936697 0.879973
-2.284731 0.632306 1.042702
-2.133378 0.435709 1.185288
-1.884957 0.238033 1.307847
-1.620085 0.118562 1.429187
-1.288392 0.031728 1.549542
-1.063542 0.053567 1.642765
-0.856999 0.136642 1.720051
-0.749495 0.194776 1.754271
-0.648435 0.289825 1.776375
-0.508862 0.493219 1.791486
-0.601053 0.799912 2.970953
-0.570663 0.791470 2.963980
-0.369819 0.803745 2.937957
-0.263422 0.833098 2.921372
-0.182269 0.881469 2.904877
-0.047421 0.986697 2.871892
0.047787 1.127025 2.841550
0.096778 1.372185 2.821815
0.099282 1.590499 2.801450
0.037083 1.826905 2.790504
-0.054716 2.011089 2.763037
-0.249279 2.197979 2.736680
-0.480330 2.129317 2.860692
-0.630448 2.012333 2.943665
-0.790157 1.837570 3.005526
-0.887310 1.645548 3.047606
-0.962114 1.407558 3.073265
-0.945464 1.236158 3.077942
-0.879950 1.075272 3.064955
-0.834530 0.991742 3.052409
-0.760280 0.912207 3.027545
-0.216814 0.001473 3.597399
-0.250652 0.158314 3.621773
-0.281510 0.237002 3.635074
-0.319860 0.292134 3.645121
-0.398068 0.379409 3.660169
-0.490486 0.428132 3.672765
-0.633108 0.416889 3.696142
-0.755895 0.375661 3.705627
-0.879642 0.279002 3.710690
-0.974246 0.173627 3.689612
-1.058453 -0.011764 3.647139
-0.974246 -0.197155 3.689612
-0.879642 -0.302530 3.710690
-0.755895 -0.399189 3.705627
-0.633108 -0.440417 3.696142
-0.490486 -0.451661 3.672765
-0.398068 -0.402937 3.660169
-0.319860 -0.315663 3.645121
-0.281510 -0.260530 3.635074
-0.250652 -0.181842 3.621773
-0.216814 -0.025001 3.597399
-0.260539 0.243184 2.625488
-0.462084 0.172066 2.697872
-0.563152 0.104901 2.739942
-0.634007 0.019840 2.775369
-0.746495 -0.154727 2.834859
-0.809051 -0.362726 2.889027
-0.791662 -0.685207 2.968200
-0.737226 -0.964606 3.013716
-0.610955 -1.247848 3.044565
-0.477550 -1.467603 3.020598
-0.242961 -1.667611 2.946020
0.008202 -1.475704 2.972214
0.150895 -1.260554 2.968681
0.277885 -0.981535 2.912605
0.331472 -0.703938 2.856330
0.343544 -0.381948 2.774222
0.278437 -0.171820 2.732770
0.162253 0.006560 2.696057
0.088651 0.094031 2.675019
-0.016454 0.164635 2.653485
-0.225856 0.242606 2.622033
0.343492 0.826484 0.994727
0.566285 0.982108 1.045359
0.670509 1.097076 1.063054
0.734356 1.221549 1.063878
0.825608 1.462983 1.046543
0.850083 1.727751 1.011521
0.757059 2.115358 0.983592
0.627618 2.429860 0.920270
0.412834 2.726743 0.844784
0.197465 2.920867 0.689972
-0.136573 3.044778 0.467158
-0.365866 2.814682 0.733733
-0.470692 2.560204 0.913418
-0.549619 2.207958 1.011720
-0.545452 1.869843 1.084774
-0.486593 1.475796 1.115357
-0.363017 1.238935 1.138878
-0.189075 1.047487 1.135612
-0.085395 0.954593 1.121774
0.049483 0.884694 1.085506
0.303269 0.818902 0.997851
-0.424392 -0.335396 1.165740
-0.768113 -0.348476 1.087377
-0.953578 -0.400246 1.031364
-1.098327 -0.490446 0.970257
-1.340401 -0.688047 0.845702
-1.521948 -0.957569 0.718824
-1.655248 -1.442722 0.592641
-1.697398 -1.873765 0.472366
-1.635211 -2.345406 0.374042
-1.492667 -2.705195 0.243298
-1.166271 -3.071325 0.115155
-0.836059 -2.985465 0.490114
-0.605391 -2.784978 0.761146
-0.325235 -2.459465 0.988156
-0.137067 -2.090748 1.163318
0.036056 -1.622594 1.304470
0.045036 -1.279412 1.366481
-0.021994 -0.949872 1.374845
-0.072513 -0.776324 1.362552
-0.165738 -0.605596 1.313807
-0.377508 -0.355408 1.183363
20 0 1 2 3 4 5 6 7 8 9 10 11 12 13 14 15 16 17 18 19
21 20 21 22 23 24 25 26 27 28 29 30 31 32 33 34 35 36 37 38 39 40
21 41 42 43 44 45 46 47 48 49 50 51 52 53 54 55 56 57 58 59 60 61
21 62 63 64 65 66 67 68 69 70 71 72 73 74 75 76 77 78 79 80 81 82
21 83 84 85 86 87 88 89 90 91 92 93 94 95 96 97 98 99 100 101 102 103
21 104 105 106 107 108 109 110 111 112 113 114 115 116 117 118 119 120 121 122 123 124
21 125 126 127 128 129 130 131 132 133 134 135 136 137 138 139 140 141 142 143 144 145
21 146 147 148 149 150 151 152 153 154 155 156 157 158 159 160 161 162 163 164 165 166
