ply
format ascii 1.0
comment Created by Blender 2.83.4 - www.blender.org, source file: 'plant3.blend'
element vertex 167
property float x
property float y
property float z
property float nx
property float ny
property float nz
property float s
property float t
element face 8
property list uchar uint vertex_indices
end_header
0.108117 -0.134416 3.532122 0.287359 -0.087046 0.953859 1.000000 0.833333
0.172421 -0.429924 3.554162 0.287359 -0.087046 0.953859 1.000000 1.000000
0.244587 -0.586438 3.551778 0.287359 -0.087046 0.953859 0.833333 1.000000
0.342592 -0.705870 3.532300 0.287359 -0.087046 0.953859 0.666667 1.000000
0.545505 -0.904628 3.478245 0.287359 -0.087046 0.953859 0.500000 1.000000
0.799431 -1.044729 3.402070 0.287359 -0.087046 0.953859 0.333333 1.000000
1.227727 -1.114305 3.299594 0.287359 -0.087046 0.953859 0.166667 1.000000
1.595907 -1.116796 3.182540 0.287359 -0.087046 0.953859 0.000000 1.000000
1.982158 -1.023560 3.054264 0.287359 -0.087046 0.953859 0.000000 0.833333
2.260472 -0.890384 2.886695 0.287359 -0.087046 0.953859 0.000000 0.666667
2.514839 -0.607477 2.674251 0.287359 -0.087046 0.953859 0.000000 0.500000
2.397370 -0.255929 2.903351 0.287359 -0.087046 0.953859 0.000000 0.333333
2.196868 -0.028485 3.080388 0.287359 -0.087046 0.953859 0.000000 0.166667
1.881993 0.209071 3.217348 0.287359 -0.087046 0.953859 0.000000 0.000000
1.544256 0.352654 3.338106 0.287359 -0.087046 0.953859 0.166667 0.000000
1.124263 0.460709 3.441592 0.287359 -0.087046 0.953859 0.333333 0.000000
0.834358 0.434066 3.513389 0.287359 -0.087046 0.953859 0.500000 0.000000
0.566999 0.334148 3.559603 0.287359 -0.087046 0.953859 0.666667 0.000000
0.428282 0.264901 3.574128 0.287359 -0.087046 0.953859 0.833333 0.000000
0.298012 0.152127 3.569443 0.287359 -0.087046 0.953859 1.000000 0.000000
-0.306540 0.133902 5.327285 0.022242 -0.000000 0.999753 1.000000 0.666667
-0.306540 0.114960 5.327285 0.022242 -0.000000 0.999753 1.000000 0.833333
-0.260698 0.002746 5.352898 0.022242 -0.000000 0.999753 1.000000 1.000000
-0.220179 -0.053552 5.365089 0.022242 -0.000000 0.999753 0.833333 1.000000
-0.170757 -0.092997 5.372129 0.022242 -0.000000 0.999753 0.666667 1.000000
-0.070756 -0.155439 5.379682 0.022242 -0.000000 0.999753 0.500000 1.000000
0.046668 -0.190299 5.382118 0.022242 -0.000000 0.999753 0.333333 1.000000
0.228449 -0.182255 5.390806 0.022242 -0.000000 0.999753 0.166667 1.000000
0.383414 -0.152758 5.384975 0.022242 -0.000000 0.999753 0.000000 1.000000
0.538943 -0.083601 5.373473 0.022242 -0.000000 0.999753 0.000000 0.833333
0.654249 -0.008209 5.333472 0.022242 -0.000000 0.999753 0.000000 0.666667
0.753465 0.124431 5.268204 0.022242 -0.000000 0.999753 0.000000 0.500000
0.654249 0.257072 5.333472 0.022242 -0.000000 0.999753 0.000000 0.333333
0.538943 0.332464 5.373473 0.022242 -0.000000 0.999753 0.000000 0.166667
0.383414 0.401620 5.384975 0.022242 -0.000000 0.999753 0.000000 0.000000
0.228449 0.431117 5.390806 0.022242 -0.000000 0.999753 0.166667 0.000000
0.046668 0.439162 5.382118 0.022242 -0.000000 0.999753 0.333333 0.000000
-0.070756 0.404302 5.379682 0.022242 -0.000000 0.999753 0.500000 0.000000
-0.170757 0.341860 5.372129 0.022242 -0.000000 0.999753 0.666667 0.000000
-0.220179 0.302414 5.365089 0.022242 -0.000000 0.999753 0.833333 0.000000
-0.260698 0.246116 5.352898 0.022242 -0.000000 0.999753 1.000000 0.000000
-0.347215 0.028576 3.552161 -0.158315 0.006577 0.987367 1.000000 0.833333
-0.381548 0.324112 3.610688 -0.158315 0.006577 0.987367 1.000000 1.000000
-0.439125 0.485062 3.632830 -0.158315 0.006577 0.987367 0.833333 1.000000
-0.527670 0.613054 3.637952 -0.158315 0.006577 0.987367 0.666667 1.000000
-0.717041 0.831416 3.630363 -0.158315 0.006577 0.987367 0.500000 1.000000
-0.964812 0.997898 3.602040 -0.158315 0.006577 0.987367 0.333333 1.000000
-1.394483 1.110643 3.563948 -0.158315 0.006577 0.987367 0.166667 1.000000
-1.772551 1.153826 3.497133 -0.158315 0.006577 0.987367 0.000000 1.000000
-2.178447 1.104691 3.412450 -0.158315 0.006577 0.987367 0.000000 0.833333
-2.486085 1.011868 3.270969 -0.158315 0.006577 0.987367 0.000000 0.666667
-2.789009 0.773551 3.067710 -0.158315 0.006577 0.987367 0.000000 0.500000
-2.676249 0.391631 3.244609 -0.158315 0.006577 0.987367 0.000000 0.333333
-2.476699 0.131915 3.371107 -0.158315 0.006577 0.987367 0.000000 0.166667
-2.169951 -0.142330 3.442047 -0.158315 0.006577 0.987367 0.000000 0.000000
-1.834172 -0.323442 3.503000 -0.158315 0.006577 0.987367 0.166667 0.000000
-1.416034 -0.473804 3.539493 -0.158315 0.006577 0.987367 0.333333 0.000000
-1.118285 -0.477279 3.574744 -0.158315 0.006577 0.987367 0.500000 0.000000
-0.839393 -0.403658 3.594742 -0.158315 0.006577 0.987367 0.666667 0.000000
-0.694295 -0.347199 3.597460 -0.158315 0.006577 0.987367 0.833333 0.000000
-0.556005 -0.244895 3.586506 -0.158315 0.006577 0.987367 1.000000 0.000000
-0.360793 -0.015710 3.550279 -0.158315 0.006577 0.987367 1.000000 0.166667
-0.218971 0.211524 4.484267 -0.060593 -0.015984 0.998035 1.000000 0.666667
-0.186505 0.205377 4.486140 -0.060593 -0.015984 0.998035 1.000000 0.833333
0.017599 0.245911 4.545794 -0.060593 -0.015984 0.998035 1.000000 1.000000
0.125677 0.296347 4.576079 -0.060593 -0.015984 0.998035 0.833333 1.000000
0.208300 0.367867 4.596488 -0.060593 -0.015984 0.998035 0.666667 1.000000
0.346461 0.518662 4.624403 -0.060593 -0.015984 0.998035 0.500000 1.000000
0.443497 0.708637 4.642174 -0.060593 -0.015984 0.998035 0.333333 1.000000
0.486876 1.022530 4.672120 -0.060593 -0.015984 0.998035 0.166667 1.000000
0.486548 1.298342 4.672345 -0.060593 -0.015984 0.998035 0.000000 1.000000
0.419066 1.588367 4.658818 -0.060593 -0.015984 0.998035 0.000000 0.833333
0.331250 1.813293 4.591567 -0.060593 -0.015984 0.998035 0.000000 0.666667
0.143019 2.030867 4.473252 -0.060593 -0.015984 0.998035 0.000000 0.500000
-0.123440 1.899387 4.565341 -0.060593 -0.015984 0.998035 0.000000 0.333333
-0.294067 1.723395 4.617685 -0.060593 -0.015984 0.998035 0.000000 0.166667
-0.463652 1.478259 4.617538 -0.060593 -0.015984 0.998035 0.000000 0.000000
-0.564439 1.221592 4.611481 -0.060593 -0.015984 0.998035 0.166667 0.000000
-0.635394 0.912920 4.579945 -0.060593 -0.015984 0.998035 0.333333 0.000000
-0.612931 0.700319 4.569066 -0.060593 -0.015984 0.998035 0.500000 0.000000
-0.537042 0.508994 4.553496 -0.060593 -0.015984 0.998035 0.666667 0.000000
-0.484446 0.411871 4.540887 -0.060593 -0.015984 0.998035 0.833333 0.000000
-0.399535 0.324894 4.521735 -0.060593 -0.015984 0.998035 1.000000 0.000000
-0.580878 0.124050 5.326285 -0.022242 -0.000000 0.999753 1.000000 0.833333
-0.633572 0.253036 5.355726 -0.022242 -0.000000 0.999753 1.000000 1.000000
-0.680146 0.317748 5.369739 -0.022242 -0.000000 0.999753 0.833333 1.000000
-0.736955 0.363089 5.377832 -0.022242 -0.000000 0.999753 0.666667 1.000000
-0.851903 0.434864 5.386513 -0.022242 -0.000000 0.999753 0.500000 1.000000
-0.986878 0.474934 5.389314 -0.022242 -0.000000 0.999753 0.333333 1.000000
-1.195828 0.465687 5.399300 -0.022242 -0.000000 0.999753 0.166667 1.000000
-1.373955 0.431782 5.392598 -0.022242 -0.000000 0.999753 0.000000 1.000000
-1.552729 0.352289 5.379376 -0.022242 -0.000000 0.999753 0.000000 0.833333
-1.685269 0.265629 5.333397 -0.022242 -0.000000 0.999753 0.000000 0.666667
-1.799315 0.113163 5.258374 -0.022242 -0.000000 0.999753 0.000000 0.500000
-1.685269 -0.039302 5.333397 -0.022242 -0.000000 0.999753 0.000000 0.333333
-1.552729 -0.125962 5.379376 -0.022242 -0.000000 0.999753 0.000000 0.166667
-1.373955 -0.205455 5.392598 -0.022242 -0.000000 0.999753 0.000000 0.000000
-1.195828 -0.239361 5.399300 -0.022242 -0.000000 0.999753 0.166667 0.000000
-0.986878 -0.248608 5.389314 -0.022242 -0.000000 0.999753 0.333333 0.000000
-0.851903 -0.208538 5.386513 -0.022242 -0.000000 0.999753 0.500000 0.000000
-0.736955 -0.136763 5.377832 -0.022242 -0.000000 0.999753 0.666667 0.000000
-0.680146 -0.091422 5.369739 -0.022242 -0.000000 0.999753 0.833333 0.000000
-0.633572 -0.026709 5.355726 -0.022242 -0.000000 0.999753 1.000000 0.000000
-0.580878 0.102277 5.326285 -0.022242 -0.000000 0.999753 1.000000 0.166667
-0.284756 -0.173648 4.485549 0.168845 0.016342 0.985507 1.000000 0.833333
-0.480906 -0.215389 4.567053 0.168845 0.016342 0.985507 1.000000 1.000000
-0.584744 -0.266462 4.608898 0.168845 0.016342 0.985507 0.833333 1.000000
-0.664231 -0.338470 4.638138 0.168845 0.016342 0.985507 0.666667 1.000000
-0.797640 -0.490080 4.680839 0.168845 0.016342 0.985507 0.500000 1.000000
-0.891045 -0.680624 4.708951 0.168845 0.016342 0.985507 0.333333 1.000000
-0.929058 -0.994769 4.743241 0.168845 0.016342 0.985507 0.166667 1.000000
-0.927087 -1.270574 4.743252 0.168845 0.016342 0.985507 0.000000 1.000000
-0.859776 -1.560194 4.722268 0.168845 0.016342 0.985507 0.000000 0.833333
-0.778488 -1.784598 4.645707 0.168845 0.016342 0.985507 0.000000 0.666667
-0.602988 -2.001055 4.507454 0.168845 0.016342 0.985507 0.000000 0.500000
-0.328861 -1.868002 4.570056 0.168845 0.016342 0.985507 0.000000 0.333333
-0.154586 -1.691004 4.603618 0.168845 0.016342 0.985507 0.000000 0.166667
0.012530 -1.444869 4.585159 0.168845 0.016342 0.985507 0.000000 0.000000
0.110548 -1.187612 4.568325 0.168845 0.016342 0.985507 0.166667 0.000000
0.175831 -0.878525 4.529447 0.168845 0.016342 0.985507 0.333333 0.000000
0.151067 -0.666061 4.521216 0.168845 0.016342 0.985507 0.500000 0.000000
0.072810 -0.475187 4.514129 0.168845 0.016342 0.985507 0.666667 0.000000
0.018584 -0.378377 4.507386 0.168845 0.016342 0.985507 0.833333 0.000000
-0.068418 -0.291903 4.497651 0.168845 0.016342 0.985507 1.000000 0.000000
-0.252652 -0.179603 4.480147 0.168845 0.016342 0.985507 1.000000 0.166667
-0.149293 0.202462 2.136218 -0.132249 0.269013 0.954014 1.000000 0.833333
0.022799 0.451147 2.158258 -0.132249 0.269013 0.954014 1.000000 1.000000
0.087938 0.610714 2.155874 -0.132249 0.269013 0.954014 0.833333 1.000000
0.108339 0.763857 2.136396 -0.132249 0.269013 0.954014 0.666667 1.000000
0.115116 1.047816 2.082341 -0.132249 0.269013 0.954014 0.500000 1.000000
0.044207 1.329025 2.006166 -0.132249 0.269013 0.954014 0.333333 1.000000
-0.197258 1.689543 1.903690 -0.132249 0.269013 0.954014 0.166667 1.000000
-0.446723 1.960338 1.786636 -0.132249 0.269013 0.954014 0.000000 1.000000
-0.778488 2.179005 1.658360 -0.132249 0.269013 0.954014 0.000000 0.833333
-1.065775 2.291524 1.490791 -0.132249 0.269013 0.954014 0.000000 0.666667
-1.446153 2.284349 1.278347 -0.132249 0.269013 0.954014 0.000000 0.500000
-1.622917 1.958559 1.507447 -0.132249 0.269013 0.954014 0.000000 0.333333
-1.652306 1.656784 1.684484 -0.132249 0.269013 0.954014 0.000000 0.166667
-1.611026 1.264514 1.821444 -0.132249 0.269013 0.954014 0.000000 0.000000
-1.485459 0.919674 1.942202 -0.132249 0.269013 0.954014 0.166667 0.000000
-1.277784 0.538962 2.045688 -0.132249 0.269013 0.954014 0.333333 0.000000
-1.060450 0.345261 2.117485 -0.132249 0.269013 0.954014 0.500000 0.000000
-0.804946 0.218049 2.163699 -0.132249 0.269013 0.954014 0.666667 0.000000
-0.659660 0.163926 2.178224 -0.132249 0.269013 0.954014 0.833333 0.000000
-0.488325 0.145684 2.173538 -0.132249 0.269013 0.954014 1.000000 0.000000
-0.189074 0.178688 2.137408 -0.132249 0.269013 0.954014 1.000000 0.166667
0.123868 -0.305369 1.960840 0.150422 -0.259290 0.954014 0.898219 0.911630
-0.084394 -0.655518 1.990530 0.150422 -0.259290 0.954014 0.758421 0.957680
-0.157167 -0.875996 1.987318 0.150422 -0.259290 0.954014 0.673949 0.966085
-0.170409 -1.083700 1.961078 0.150422 -0.259290 0.954014 0.597540 0.954317
-0.153231 -1.465953 1.888260 0.150422 -0.259290 0.954014 0.458725 0.917375
-0.031902 -1.837318 1.785643 0.150422 -0.259290 0.954014 0.330836 0.845086
0.325985 -2.299481 1.647595 0.150422 -0.259290 0.954014 0.189744 0.686851
0.686319 -2.640322 1.489908 0.150422 -0.259290 0.954014 0.089961 0.534765
1.152433 -2.903488 1.317103 0.150422 -0.259290 0.954014 0.025941 0.352414
1.548946 -3.028116 1.091366 0.150422 -0.259290 0.954014 0.000000 0.198579
2.059489 -2.983261 0.805177 0.150422 -0.259290 0.954014 0.039191 0.014907
2.266893 -2.529055 1.113804 0.150422 -0.259290 0.954014 0.242987 0.000000
2.278455 -2.120766 1.352295 0.150422 -0.259290 0.954014 0.407041 0.040963
2.186666 -1.597399 1.536798 0.150422 -0.259290 0.954014 0.597750 0.119779
1.985990 -1.145576 1.699475 0.150422 -0.259290 0.954014 0.751569 0.227704
1.671646 -0.653145 1.838884 0.150422 -0.259290 0.954014 0.907398 0.373895
1.361630 -0.412940 1.935604 0.150422 -0.259290 0.954014 0.971426 0.498374
1.006472 -0.265625 1.997860 0.150422 -0.259290 0.954014 0.995853 0.628799
0.806205 -0.206335 2.017426 0.150422 -0.259290 0.954014 1.000000 0.699623
0.574253 -0.197678 2.011115 0.150422 -0.259290 0.954014 0.981338 0.775502
0.175131 -0.269735 1.962442 0.150422 -0.259290 0.954014 0.915568 0.897451
20 0 1 2 3 4 5 6 7 8 9 10 11 12 13 14 15 16 17 18 19
21 20 21 22 23 24 25 26 27 28 29 30 31 32 33 34 35 36 37 38 39 40
21 41 42 43 44 45 46 47 48 49 50 51 52 53 54 55 56 57 58 59 60 61
21 62 63 64 65 66 67 68 69 70 71 72 73 74 75 76 77 78 79 80 81 82
21 83 84 85 86 87 88 89 90 91 92 93 94 95 96 97 98 99 100 101 102 103
21 104 105 106 107 108 109 110 111 112 113 114 115 116 117 118 119 120 121 122 123 124
21 125 126 127 128 129 130 131 132 133 134 135 136 137 138 139 140 141 142 143 144 145
21 146 147 148 149 150 151 152 153 154 155 156 157 158 159 160 161 162 163 164 165 166
