ply
format ascii 1.0
comment Created by Blender 2.83.4 - www.blender.org, source file: 'hole_leaf.blend'
element vertex 108
property float x
property float y
property float z
property float nx
property float ny
property float nz
property float s
property float t
element face 6
property list uchar uint vertex_indices
end_header
0.175131 -0.269735 1.962442 -0.014677 -0.018909 0.999713 0.915568 0.897451
0.123868 -0.305369 1.960840 -0.014677 -0.018909 0.999713 0.898219 0.911630
-0.084394 -0.655518 1.990530 -0.014677 -0.018909 0.999713 0.758421 0.957680
-0.157167 -0.875996 1.987318 -0.014677 -0.018909 0.999713 0.673949 0.966085
-0.170409 -1.083700 1.961078 -0.014677 -0.018909 0.999713 0.597540 0.954317
0.160650 -1.061385 1.932753 -0.014677 -0.018909 0.999713 0.633341 0.845777
0.129009 -0.997402 1.947764 -0.014677 -0.018909 0.999713 0.654177 0.861550
0.114270 -0.937452 1.960366 -0.014677 -0.018909 0.999713 0.674943 0.871360
0.111778 -0.832086 1.973927 -0.014677 -0.018909 0.999713 0.712883 0.880354
0.130406 -0.754637 1.979195 -0.014677 -0.018909 0.999713 0.742259 0.879956
0.185003 -0.678342 1.983687 -0.014677 -0.018909 0.999713 0.774452 0.867681
0.806205 -0.206335 2.017426 -0.014677 -0.018909 0.999713 1.000000 0.699623
0.574253 -0.197678 2.011115 -0.014677 -0.018909 0.999713 0.981338 0.775502
0.806205 -0.206335 2.017426 0.078194 -0.162847 0.983548 1.000000 0.699623
0.185003 -0.678342 1.983687 0.078194 -0.162847 0.983548 0.774452 0.867681
0.241787 -0.834589 1.966998 0.078194 -0.162847 0.983548 0.723320 0.837251
0.267901 -0.919978 1.948546 0.078194 -0.162847 0.983548 0.694169 0.821572
0.746800 -0.642952 1.953117 0.078194 -0.162847 0.983548 0.835861 0.684658
0.735728 -0.551176 1.971282 0.078194 -0.162847 0.983548 0.868597 0.695830
0.824962 -0.553053 1.962178 0.078194 -0.162847 0.983548 0.875350 0.665929
0.902278 -0.570831 1.951285 0.078194 -0.162847 0.983548 0.875276 0.638703
0.962311 -0.599429 1.940074 0.078194 -0.162847 0.983548 0.869793 0.616358
1.068744 -0.682576 1.909009 0.078194 -0.162847 0.983548 0.847738 0.573718
1.133728 -0.762609 1.881684 0.078194 -0.162847 0.983548 0.823294 0.545087
1.361630 -0.412940 1.935604 0.078194 -0.162847 0.983548 0.971426 0.498374
1.006472 -0.265625 1.997860 0.078194 -0.162847 0.983548 0.995853 0.628799
1.361630 -0.412940 1.935604 0.117886 -0.210943 0.970364 0.971426 0.498374
1.133728 -0.762609 1.881684 0.117886 -0.210943 0.970364 0.823294 0.545087
1.194673 -0.909633 1.842722 0.117886 -0.210943 0.970364 0.773995 0.512387
0.964150 -0.808757 1.892411 0.117886 -0.210943 0.970364 0.792459 0.598060
0.526472 -1.434221 1.810624 0.117886 -0.210943 0.970364 0.525865 0.692377
0.557772 -1.490337 1.794641 0.117886 -0.210943 0.970364 0.507701 0.677203
0.592599 -1.609591 1.764546 0.117886 -0.210943 0.970364 0.466520 0.655583
0.596159 -1.700725 1.744362 0.117886 -0.210943 0.970364 0.433147 0.646744
1.291946 -1.236871 1.761531 0.117886 -0.210943 0.970364 0.661450 0.452773
1.245096 -1.140920 1.787490 0.117886 -0.210943 0.970364 0.692961 0.476399
1.249615 -1.049992 1.806345 0.117886 -0.210943 0.970364 0.726835 0.482425
1.323857 -1.073841 1.792540 0.117886 -0.210943 0.970364 0.724131 0.455607
1.382659 -1.108906 1.778157 0.117886 -0.210943 0.970364 0.716025 0.433020
1.427388 -1.151756 1.763768 0.117886 -0.210943 0.970364 0.703897 0.414496
1.671646 -0.653145 1.838884 0.117886 -0.210943 0.970364 0.907398 0.373895
0.325985 -2.299481 1.647595 0.112457 -0.207438 0.971763 0.189744 0.686851
0.559784 -1.823088 1.722287 0.112457 -0.207438 0.971763 0.384982 0.648671
0.443385 -1.649717 1.774068 0.112457 -0.207438 0.971763 0.439494 0.702151
0.392724 -1.560573 1.799572 0.112457 -0.207438 0.971763 0.468276 0.726577
0.362435 -1.422034 1.833292 0.112457 -0.207438 0.971763 0.516965 0.748317
0.402457 -1.323244 1.849814 0.112457 -0.207438 0.971763 0.556712 0.743183
0.474464 -1.376310 1.829523 0.112457 -0.207438 0.971763 0.543000 0.714635
0.526472 -1.434221 1.810624 0.112457 -0.207438 0.971763 0.525865 0.692377
0.964150 -0.808757 1.892411 0.112457 -0.207438 0.971763 0.792459 0.598060
0.864978 -0.756660 1.917473 0.112457 -0.207438 0.971763 0.803772 0.635782
0.758727 -0.654420 1.949813 0.112457 -0.207438 0.971763 0.832650 0.679747
0.746800 -0.642952 1.953117 0.112457 -0.207438 0.971763 0.835861 0.684658
0.267901 -0.919978 1.948546 0.112457 -0.207438 0.971763 0.694169 0.821572
0.266776 -1.046863 1.925045 0.112457 -0.207438 0.971763 0.647520 0.811586
0.213330 -1.128858 1.915029 0.112457 -0.207438 0.971763 0.612979 0.822706
0.160650 -1.061385 1.932753 0.112457 -0.207438 0.971763 0.633341 0.845777
-0.170409 -1.083700 1.961078 0.112457 -0.207438 0.971763 0.597540 0.954317
-0.153231 -1.465953 1.888260 0.112457 -0.207438 0.971763 0.458725 0.917375
-0.031902 -1.837318 1.785643 0.112457 -0.207438 0.971763 0.330836 0.845086
1.671646 -0.653145 1.838884 0.146211 -0.246219 0.958122 0.907398 0.373895
1.427388 -1.151756 1.763768 0.146211 -0.246219 0.958122 0.703897 0.414496
1.491381 -1.248503 1.735626 0.146211 -0.246219 0.958122 0.673491 0.385061
1.522269 -1.334696 1.713309 0.146211 -0.246219 0.958122 0.644247 0.367567
1.527278 -1.466171 1.673957 0.146211 -0.246219 0.958122 0.595242 0.354135
1.370144 -1.320080 1.734606 0.146211 -0.246219 0.958122 0.637208 0.419720
1.302981 -1.251141 1.757192 0.146211 -0.246219 0.958122 0.657098 0.447899
1.291946 -1.236871 1.761531 0.146211 -0.246219 0.958122 0.661450 0.452773
0.596159 -1.700725 1.744362 0.146211 -0.246219 0.958122 0.433147 0.646744
0.559784 -1.823088 1.722287 0.146211 -0.246219 0.958122 0.384982 0.648671
0.325985 -2.299481 1.647595 0.146211 -0.246219 0.958122 0.189744 0.686851
0.686319 -2.640322 1.489908 0.146211 -0.246219 0.958122 0.089961 0.534765
0.969206 -2.652851 1.412893 0.146211 -0.246219 0.958122 0.158187 0.465197
0.847476 -2.215833 1.577376 0.146211 -0.246219 0.958122 0.261528 0.517832
0.822430 -2.097894 1.611905 0.146211 -0.246219 0.958122 0.303512 0.536501
0.831086 -1.945032 1.650636 0.146211 -0.246219 0.958122 0.361246 0.546903
0.893993 -1.857538 1.664316 0.146211 -0.246219 0.958122 0.398935 0.533382
0.952391 -1.926685 1.637668 0.146211 -0.246219 0.958122 0.377837 0.507758
0.958589 -1.934546 1.634703 0.146211 -0.246219 0.958122 0.375404 0.504994
1.442151 -1.801792 1.596152 0.146211 -0.246219 0.958122 0.462954 0.353314
1.436123 -1.775032 1.604331 0.146211 -0.246219 0.958122 0.472471 0.357681
1.524617 -1.767825 1.592647 0.146211 -0.246219 0.958122 0.482114 0.328434
1.556218 -1.770477 1.587059 0.146211 -0.246219 0.958122 0.483606 0.317534
2.186666 -1.597399 1.536798 0.146211 -0.246219 0.958122 0.597750 0.119779
1.985990 -1.145576 1.699475 0.146211 -0.246219 0.958122 0.751569 0.227704
2.186666 -1.597399 1.536798 0.238786 -0.383898 0.891966 0.597750 0.119779
1.556218 -1.770477 1.587059 0.238786 -0.383898 0.891966 0.483606 0.317534
1.604669 -1.777928 1.577813 0.238786 -0.383898 0.891966 0.484726 0.300622
1.669278 -1.800825 1.562095 0.238786 -0.383898 0.891966 0.481439 0.276998
1.793943 -1.877486 1.515773 0.238786 -0.383898 0.891966 0.462233 0.227923
1.877002 -1.956466 1.475758 0.238786 -0.383898 0.891966 0.438919 0.192714
1.979682 -2.121669 1.405198 0.238786 -0.383898 0.891966 0.384851 0.143311
1.699990 -2.020805 1.486195 0.238786 -0.383898 0.891966 0.401155 0.247023
1.588593 -1.972395 1.521361 0.238786 -0.383898 0.891966 0.410745 0.289060
1.469369 -1.875307 1.572942 0.238786 -0.383898 0.891966 0.438002 0.338069
1.442151 -1.801792 1.596152 0.238786 -0.383898 0.891966 0.462954 0.353314
0.958589 -1.934546 1.634703 0.238786 -0.383898 0.891966 0.375404 0.504994
0.992361 -2.001128 1.612333 0.238786 -0.383898 0.891966 0.353297 0.487877
1.061767 -2.211334 1.543072 0.238786 -0.383898 0.891966 0.329488 0.475480
1.090625 -2.373551 1.489839 0.238786 -0.383898 0.891966 0.272824 0.458738
1.078691 -2.521267 1.444260 0.238786 -0.383898 0.891966 0.228201 0.454222
0.969206 -2.652851 1.412893 0.238786 -0.383898 0.891966 0.158187 0.465197
0.686319 -2.640322 1.489908 0.238786 -0.383898 0.891966 0.089961 0.534765
1.152433 -2.903488 1.317103 0.238786 -0.383898 0.891966 0.025941 0.352414
1.548946 -3.028116 1.091366 0.238786 -0.383898 0.891966 0.000000 0.198579
2.059489 -2.983261 0.805177 0.238786 -0.383898 0.891966 0.039191 0.014907
2.266893 -2.529055 1.113804 0.238786 -0.383898 0.891966 0.242987 0.000000
2.278455 -2.120766 1.352295 0.238786 -0.383898 0.891966 0.407041 0.040963
13 0 1 2 3 4 5 6 7 8 9 10 11 12
13 13 14 15 16 17 18 19 20 21 22 23 24 25
15 26 27 28 29 30 31 32 33 34 35 36 37 38 39 40
19 41 42 43 44 45 46 47 48 49 50 51 52 53 54 55 56 57 58 59
25 60 61 62 63 64 65 66 67 68 69 70 71 72 73 74 75 76 77 78 79 80 81 82 83 84
23 85 86 87 88 89 90 91 92 93 94 95 96 97 98 99 100 101 102 103 104 105 106 107
