ply
format ascii 1.0
comment Created by Blender 2.83.4 - www.blender.org, source file: 'q_10_a.blend'
element vertex 167
property float x
property float y
property float z
element face 8
property list uchar uint vertex_indices
end_header
0.219041 0.043212 2.811669
0.293475 -0.249031 2.843283
0.371347 -0.402760 2.846976
0.474141 -0.518923 2.833271
0.685571 -0.711317 2.789881
0.946418 -0.843785 2.724152
1.379592 -0.899986 2.634815
1.750658 -0.891786 2.527542
2.136584 -0.787572 2.406966
2.414292 -0.648491 2.243233
2.663826 -0.361880 2.030023
2.527421 -0.009162 2.246483
2.314015 0.215148 2.412064
1.987073 0.444270 2.534334
1.641166 0.578244 2.642330
1.214853 0.673220 2.731864
0.924274 0.637663 2.796739
0.659587 0.529086 2.838599
0.523149 0.455120 2.851337
0.397260 0.337492 2.846264
-0.361836 0.095668 5.467370
-0.362104 0.076730 5.467102
-0.317499 -0.036467 5.490478
-0.277613 -0.093492 5.501300
-0.228660 -0.133719 5.507084
-0.129454 -0.197648 5.512341
-0.012512 -0.234171 5.512627
0.169468 -0.228782 5.518861
0.324738 -0.201365 5.511259
0.481052 -0.134222 5.498540
0.596843 -0.059878 5.457984
0.697004 0.072290 5.393201
0.600589 0.205350 5.461730
0.486927 0.281760 5.504415
0.332565 0.352903 5.519087
0.178128 0.384467 5.527522
-0.003624 0.395165 5.521516
-0.121551 0.361981 5.520245
-0.222520 0.301052 5.513224
-0.272587 0.262403 5.506326
-0.314063 0.206855 5.493915
-0.068983 0.310842 4.195151
-0.137111 0.589576 4.293192
-0.213473 0.736878 4.339895
-0.317541 0.849275 4.367914
-0.534391 1.037379 4.402460
-0.803816 1.168448 4.414313
-1.246397 1.221542 4.423407
-1.631387 1.217041 4.391355
-2.033094 1.119852 4.331997
-2.337249 1.000476 4.203495
-2.622941 0.745918 3.995045
-2.444049 0.366485 4.112942
-2.200599 0.125505 4.189975
-1.854575 -0.107858 4.202119
-1.493336 -0.244346 4.214034
-1.057233 -0.335891 4.199449
-0.759739 -0.300337 4.211394
-0.492611 -0.189983 4.219477
-0.356783 -0.113840 4.218388
-0.235090 0.007950 4.210119
-0.076609 0.265574 4.188685
-0.132635 -0.059670 5.037156
-0.100250 -0.066378 5.038403
0.105804 -0.028777 5.093065
0.215401 0.020082 5.120323
0.299712 0.090353 5.137981
0.441114 0.238972 5.160889
0.541882 0.427374 5.174030
0.591485 0.740791 5.198868
0.596070 1.016544 5.195450
0.533477 1.307543 5.179555
0.448220 1.533138 5.111258
0.261335 1.752542 4.994194
-0.005333 1.627093 5.093785
-0.177872 1.454901 5.152151
-0.351754 1.212888 5.158936
-0.457200 0.958029 5.158469
-0.534312 0.650310 5.132571
-0.515879 0.437216 5.124022
-0.443766 0.244366 5.109340
-0.393196 0.146154 5.096877
-0.310287 0.057417 5.077035
-0.468462 0.150379 5.675495
-0.505090 0.287981 5.677691
-0.543139 0.359388 5.675124
-0.593315 0.412132 5.668124
-0.696791 0.498044 5.649365
-0.823804 0.554446 5.626603
-1.031488 0.572956 5.607364
-1.210431 0.560759 5.579900
-1.395827 0.502961 5.552662
-1.532820 0.427001 5.501145
-1.657623 0.279562 5.433569
-1.577137 0.128653 5.545949
-1.465334 0.035034 5.622931
-1.303044 -0.062722 5.673529
-1.133956 -0.116871 5.710957
-0.928960 -0.153476 5.732912
-0.790300 -0.131468 5.743901
-0.665961 -0.076929 5.741567
-0.602606 -0.040948 5.735243
-0.545746 0.014276 5.718793
-0.471627 0.129076 5.678694
-0.356428 -0.078046 4.645158
-0.543283 -0.128994 4.741852
-0.640338 -0.184911 4.792798
-0.712607 -0.260643 4.830214
-0.832267 -0.418677 4.887778
-0.910484 -0.613545 4.929381
-0.924819 -0.927816 4.977714
-0.904282 -1.202684 4.987640
-0.819213 -1.487964 4.972502
-0.728427 -1.709599 4.898595
-0.548623 -1.919756 4.756214
-0.280439 -1.766803 4.794302
-0.116592 -1.577683 4.808929
0.031913 -1.322227 4.769690
0.111000 -1.060081 4.736570
0.152505 -0.749279 4.681912
0.112984 -0.539377 4.667720
0.021749 -0.354414 4.659252
-0.039207 -0.261670 4.652852
-0.132297 -0.181474 4.646173
-0.324441 -0.082130 4.637712
-0.425031 0.140560 1.894370
-0.213193 0.356126 1.869843
-0.122549 0.499301 1.838303
-0.077742 0.640916 1.791548
-0.025976 0.905678 1.687520
-0.052100 1.177199 1.563007
-0.234117 1.550200 1.400159
-0.439542 1.835022 1.239095
-0.735180 2.081410 1.077144
-1.006256 2.210407 0.895067
-1.390785 2.231423 0.691187
-1.609920 1.985711 0.976629
-1.681963 1.729000 1.205065
-1.701065 1.365459 1.409541
-1.629884 1.030669 1.588744
-1.484479 0.644040 1.756538
-1.299703 0.431573 1.859616
-1.067288 0.272588 1.925248
-0.932573 0.197795 1.947747
-0.766997 0.149990 1.944668
-0.468134 0.124516 1.900194
0.003658 -0.346902 3.135454
-0.266360 -0.650820 3.095664
-0.378283 -0.848845 3.049013
-0.428571 -1.041228 2.982195
-0.479449 -1.398281 2.835093
-0.424969 -1.758544 2.660719
-0.153574 -2.243607 2.433136
0.143227 -2.608491 2.210321
0.558753 -2.915449 1.987845
0.933242 -3.065676 1.741063
1.453033 -3.062293 1.468343
1.729492 -2.723965 1.860358
1.807586 -2.379513 2.174946
1.807211 -1.894394 2.459620
1.687482 -1.453519 2.708963
1.464378 -0.947731 2.943781
1.200633 -0.677275 3.086803
0.876668 -0.481086 3.177746
0.690161 -0.390323 3.209088
0.464123 -0.337334 3.205106
0.060512 -0.322504 3.143972
20 0 1 2 3 4 5 6 7 8 9 10 11 12 13 14 15 16 17 18 19
21 20 21 22 23 24 25 26 27 28 29 30 31 32 33 34 35 36 37 38 39 40
21 41 42 43 44 45 46 47 48 49 50 51 52 53 54 55 56 57 58 59 60 61
21 62 63 64 65 66 67 68 69 70 71 72 73 74 75 76 77 78 79 80 81 82
21 83 84 85 86 87 88 89 90 91 92 93 94 95 96 97 98 99 100 101 102 103
21 104 105 106 107 108 109 110 111 112 113 114 115 116 117 118 119 120 121 122 123 124
21 125 126 127 128 129 130 131 132 133 134 135 136 137 138 139 140 141 142 143 144 145
21 146 147 148 149 150 151 152 153 154 155 156 157 158 159 160 161 162 163 164 165 166
