ply
format ascii 1.0
comment Created by Blender 2.83.4 - www.blender.org, source file: 'q_2_a.blend'
element vertex 167
property float x
property float y
property float z
element face 8
property list uchar uint vertex_indices
end_header
0.041237 -0.238486 4.103330
0.087183 -0.538167 4.108454
0.148912 -0.698571 4.095396
0.238070 -0.822772 4.065848
0.425219 -1.030875 3.993260
0.666076 -1.182593 3.899030
1.084215 -1.273596 3.773903
1.446135 -1.293244 3.640139
1.831781 -1.218040 3.498863
2.110721 -1.094317 3.325199
2.373550 -0.817604 3.114908
2.288934 -0.471284 3.365455
2.111290 -0.240879 3.562001
1.818561 0.008756 3.724266
1.496273 0.166955 3.866982
1.088942 0.295744 3.994552
0.801248 0.283720 4.078201
0.530203 0.198523 4.131838
0.388047 0.137443 4.149415
0.250677 0.033406 4.145385
-0.351561 -0.084716 5.442552
-0.346680 -0.102303 5.447618
-0.284441 -0.186989 5.513224
-0.237070 -0.223871 5.550042
-0.184262 -0.243108 5.579864
-0.079702 -0.267085 5.629347
0.035264 -0.260667 5.671194
0.195654 -0.192287 5.723954
0.330874 -0.115315 5.750587
0.458238 -0.002339 5.761492
0.556727 0.098250 5.733904
0.634085 0.242272 5.663399
0.488363 0.344557 5.662955
0.351016 0.383966 5.650217
0.188008 0.399409 5.602320
0.037586 0.377211 5.559910
-0.126951 0.323770 5.502846
-0.223950 0.252619 5.479646
-0.296327 0.160645 5.463563
-0.328804 0.106634 5.454839
-0.347159 0.038973 5.448135
-0.173313 0.035256 4.393290
-0.165593 0.338201 4.403822
-0.199085 0.507125 4.396530
-0.267061 0.645504 4.374646
-0.419731 0.884387 4.317837
-0.636596 1.077529 4.243169
-1.040422 1.242355 4.150779
-1.402177 1.327315 4.045045
-1.804383 1.323166 3.933012
-2.112703 1.253311 3.780262
-2.434685 1.030747 3.588782
-2.393753 0.670135 3.829936
-2.245180 0.408516 4.010921
-1.989509 0.108608 4.148851
-1.690254 -0.106040 4.265632
-1.303473 -0.306235 4.361034
-1.012745 -0.346110 4.422647
-0.727767 -0.310457 4.456072
-0.576211 -0.275407 4.463184
-0.423429 -0.196807 4.449393
-0.193380 -0.006384 4.396837
-0.074543 0.415000 3.982444
-0.042751 0.415645 3.991618
0.126692 0.485466 4.106831
0.209284 0.550381 4.170913
0.264578 0.632057 4.222194
0.350378 0.799717 4.306666
0.389531 0.998146 4.376773
0.343801 1.301026 4.463262
0.272908 1.564361 4.504510
0.137970 1.829826 4.517569
0.011922 2.039856 4.464408
-0.196093 2.232032 4.335699
-0.433336 2.030827 4.335928
-0.560370 1.815666 4.316063
-0.657581 1.545493 4.236017
-0.685705 1.280150 4.166198
-0.666980 0.976723 4.071917
-0.589113 0.780667 4.035576
-0.465303 0.617257 4.011587
-0.388182 0.538266 3.998513
-0.281789 0.477184 3.988963
-0.676131 -0.026539 5.189332
-0.709321 0.111910 5.186006
-0.745488 0.184094 5.180112
-0.794139 0.237775 5.170119
-0.894946 0.325493 5.145960
-1.019924 0.384165 5.118217
-1.226563 0.407065 5.093295
-1.405059 0.398303 5.061890
-1.591158 0.344145 5.032084
-1.728767 0.269831 4.979815
-1.855616 0.123255 4.914201
-1.781634 -0.025640 5.033522
-1.674074 -0.119271 5.116317
-1.515539 -0.219167 5.174124
-1.348800 -0.276112 5.217473
-1.145367 -0.316932 5.245652
-1.006495 -0.297950 5.259281
-0.880800 -0.246571 5.258156
-0.816427 -0.212383 5.252178
-0.757821 -0.159157 5.235277
-0.679906 -0.047636 5.193167
-0.453867 -0.102159 4.572381
-0.622739 -0.166077 4.691782
-0.706928 -0.228418 4.756339
-0.765673 -0.308670 4.806006
-0.859556 -0.474225 4.885909
-0.909788 -0.672908 4.947749
-0.882230 -0.982411 5.016713
-0.828717 -1.251858 5.041344
-0.712758 -1.526377 5.034736
-0.604543 -1.741526 4.965259
-0.416639 -1.940560 4.817458
-0.165769 -1.756627 4.816624
-0.024588 -1.550062 4.801618
0.088222 -1.283417 4.730730
0.132284 -1.017327 4.673047
0.131337 -0.708740 4.595068
0.066254 -0.506089 4.572290
-0.046421 -0.333425 4.562359
-0.118162 -0.248682 4.556894
-0.220206 -0.179931 4.555424
-0.422537 -0.103237 4.561768
0.043639 0.241020 2.897836
0.230986 0.479383 2.903326
0.305884 0.634096 2.890498
0.335610 0.784110 2.861166
0.359611 1.063060 2.788973
0.305748 1.342704 2.695127
0.086397 1.710302 2.570480
-0.146610 1.988103 2.437069
-0.465072 2.218402 2.296065
-0.746010 2.337694 2.122523
-1.127607 2.340709 1.912175
-1.322610 2.041883 2.162271
-1.369406 1.754454 2.358406
-1.351573 1.369923 2.520134
-1.246791 1.026339 2.662384
-1.062411 0.640801 2.789442
-0.857009 0.438900 2.872841
-0.609570 0.299207 2.926322
-0.467822 0.237163 2.943834
-0.297988 0.208005 2.939791
0.002469 0.219899 2.900674
-0.341452 -0.465623 3.022836
-0.524844 -0.826592 3.076946
-0.581956 -1.051321 3.089265
-0.580426 -1.260776 3.077809
-0.536002 -1.645058 3.032330
-0.388249 -2.013279 2.956530
0.002077 -2.457692 2.852233
0.386468 -2.782604 2.719742
0.871032 -3.023848 2.566838
1.276807 -3.135886 2.351187
1.784849 -3.075530 2.063401
1.957828 -2.587176 2.339369
1.939140 -2.163255 2.548304
1.809649 -1.635923 2.695046
1.576704 -1.188989 2.824910
1.227682 -0.711297 2.928490
0.900946 -0.487284 3.007395
0.535925 -0.361313 3.058438
0.331868 -0.315038 3.073408
0.099927 -0.323203 3.066106
-0.292826 -0.426444 3.021992
20 0 1 2 3 4 5 6 7 8 9 10 11 12 13 14 15 16 17 18 19
21 20 21 22 23 24 25 26 27 28 29 30 31 32 33 34 35 36 37 38 39 40
21 41 42 43 44 45 46 47 48 49 50 51 52 53 54 55 56 57 58 59 60 61
21 62 63 64 65 66 67 68 69 70 71 72 73 74 75 76 77 78 79 80 81 82
21 83 84 85 86 87 88 89 90 91 92 93 94 95 96 97 98 99 100 101 102 103
21 104 105 106 107 108 109 110 111 112 113 114 115 116 117 118 119 120 121 122 123 124
21 125 126 127 128 129 130 131 132 133 134 135 136 137 138 139 140 141 142 143 144 145
21 146 147 148 149 150 151 152 153 154 155 156 157 158 159 160 161 162 163 164 165 166
