ply
format ascii 1.0
comment Created by Blender 2.83.4 - www.blender.org, source file: 'q_3_a.blend'
element vertex 167
property float x
property float y
property float z
element face 8
property list uchar uint vertex_indices
end_header
0.060150 -0.244175 3.628133
0.142535 -0.533337 3.667424
0.224854 -0.684533 3.676009
0.331349 -0.797782 3.666971
0.549345 -0.984519 3.632220
0.815440 -1.110322 3.574979
1.251997 -1.155166 3.496330
1.624973 -1.137892 3.397057
2.010235 -1.024484 3.282822
2.287286 -0.880375 3.122356
2.532896 -0.590680 2.908758
2.381198 -0.237978 3.114817
2.157526 -0.016952 3.270998
1.821229 0.204575 3.381303
1.469137 0.330158 3.478899
1.038275 0.413963 3.557090
0.747499 0.370935 3.616313
0.485293 0.255256 3.654613
0.350869 0.177465 3.665893
0.228690 0.056001 3.660508
-0.314458 0.174911 5.407794
-0.316792 0.156261 5.405442
-0.282631 0.037304 5.411077
-0.248281 -0.024177 5.411097
-0.203627 -0.069317 5.407041
-0.111855 -0.142628 5.394401
-0.000049 -0.189958 5.378003
0.181205 -0.202850 5.365157
0.337083 -0.189729 5.343985
0.497791 -0.136839 5.322084
0.616513 -0.069545 5.277854
0.723689 0.059329 5.217839
0.649200 0.191645 5.310796
0.549058 0.272811 5.373750
0.405392 0.356101 5.412826
0.256783 0.401063 5.441324
0.077511 0.429797 5.456168
-0.042886 0.408482 5.463908
-0.150046 0.358835 5.461040
-0.204420 0.326300 5.455299
-0.252644 0.276921 5.441298
-0.495722 -0.061172 3.116232
-0.527924 0.235075 3.172327
-0.584294 0.396651 3.192965
-0.671822 0.525388 3.196696
-0.859380 0.745206 3.186557
-1.105663 0.913459 3.155814
-1.534228 1.029370 3.114879
-1.911627 1.075084 3.045995
-2.317520 1.028574 2.959825
-2.625254 0.937145 2.817647
-2.929173 0.699719 2.614835
-2.820317 0.318278 2.795182
-2.623455 0.057946 2.924590
-2.319264 -0.218209 2.999047
-1.985244 -0.401549 3.062935
-1.568509 -0.554994 3.102508
-1.270961 -0.560599 3.139155
-0.991575 -0.489079 3.159869
-0.846038 -0.433773 3.162820
-0.706875 -0.332676 3.151717
-0.509650 -0.105360 3.114628
-0.286153 0.217932 4.559824
-0.254311 0.209001 4.558527
-0.042036 0.234320 4.592561
0.072626 0.276459 4.607352
0.162704 0.341291 4.613735
0.315209 0.480372 4.616160
0.429092 0.661534 4.610424
0.501560 0.971438 4.614364
0.524177 1.245719 4.596179
0.479916 1.539397 4.570778
0.403930 1.767115 4.498687
0.222052 1.993654 4.387475
-0.042018 1.892187 4.516855
-0.219506 1.735560 4.599272
-0.407754 1.507093 4.634145
-0.529542 1.260625 4.656371
-0.629056 0.958307 4.653532
-0.625738 0.744274 4.654495
-0.568308 0.546314 4.643516
-0.525767 0.444286 4.631731
-0.451151 0.349062 4.609228
-0.531889 0.150064 5.455211
-0.582023 0.281023 5.480054
-0.627282 0.347200 5.491253
-0.683112 0.394117 5.496766
-0.796393 0.468894 5.500736
-0.930343 0.512327 5.499124
-1.139642 0.508476 5.504071
-1.318348 0.478795 5.493739
-1.498691 0.403403 5.478025
-1.632203 0.318866 5.430919
-1.748177 0.167361 5.356913
-1.639887 0.014129 5.438606
-1.510743 -0.074545 5.490080
-1.334407 -0.158037 5.509802
-1.157409 -0.196124 5.521844
-0.948576 -0.210756 5.517363
-0.812607 -0.174099 5.516955
-0.695708 -0.105418 5.509367
-0.637593 -0.061710 5.501568
-0.589072 0.001456 5.487106
-0.532437 0.128305 5.455760
-0.370013 -0.073553 4.648786
-0.554665 -0.126384 4.748651
-0.650128 -0.183267 4.801497
-0.720715 -0.259719 4.840622
-0.837169 -0.418978 4.901301
-0.911876 -0.614599 4.945727
-0.920846 -0.928606 4.996977
-0.896096 -1.203044 5.008973
-0.807038 -1.487167 4.995051
-0.714063 -1.708089 4.921734
-0.533256 -1.916833 4.778547
-0.266842 -1.759626 4.811370
-0.105620 -1.567997 4.821956
0.038495 -1.310744 4.778336
0.113199 -1.047768 4.741796
0.149293 -0.736886 4.683853
0.106463 -0.527721 4.668432
0.012384 -0.344200 4.659709
-0.050027 -0.252422 4.653404
-0.144383 -0.173664 4.647401
-0.338081 -0.077233 4.640906
-0.411558 0.150970 1.230330
-0.250940 0.405930 1.264137
-0.193116 0.568228 1.269226
-0.179693 0.722873 1.256851
-0.185822 1.009034 1.215921
-0.269433 1.289943 1.152607
-0.527026 1.643465 1.066310
-0.788536 1.907760 0.961308
-1.129892 2.116818 0.842529
-1.421995 2.223778 0.679712
-1.801656 2.209132 0.466371
-1.963437 1.865460 0.679884
-1.979086 1.554835 0.842799
-1.920028 1.158956 0.961667
-1.778925 0.814978 1.066707
-1.554170 0.439724 1.153014
-1.328260 0.252986 1.216284
-1.067242 0.135507 1.257132
-0.919647 0.087421 1.269456
-0.747660 0.077208 1.264294
-0.450218 0.125385 1.230342
0.362946 -0.235166 2.016516
0.097365 -0.543651 1.982417
-0.011735 -0.744033 1.939277
-0.059349 -0.938183 1.875690
-0.105334 -1.298257 1.734456
-0.046006 -1.660413 1.565677
0.231917 -2.144974 1.345007
0.533468 -2.508933 1.127111
0.952869 -2.813213 0.908260
1.328839 -2.961797 0.662736
1.847734 -2.955067 0.388377
2.120260 -2.606457 0.774085
2.194129 -2.255901 1.082898
2.187360 -1.766353 1.359805
2.061806 -1.323373 1.602463
1.831882 -0.817261 1.829886
1.564557 -0.548493 1.969401
1.237973 -0.355700 2.058217
1.050229 -0.267222 2.088690
0.823417 -0.217661 2.084569
0.419456 -0.209794 2.024466
20 0 1 2 3 4 5 6 7 8 9 10 11 12 13 14 15 16 17 18 19
21 20 21 22 23 24 25 26 27 28 29 30 31 32 33 34 35 36 37 38 39 40
21 41 42 43 44 45 46 47 48 49 50 51 52 53 54 55 56 57 58 59 60 61
21 62 63 64 65 66 67 68 69 70 71 72 73 74 75 76 77 78 79 80 81 82
21 83 84 85 86 87 88 89 90 91 92 93 94 95 96 97 98 99 100 101 102 103
21 104 105 106 107 108 109 110 111 112 113 114 115 116 117 118 119 120 121 122 123 124
21 125 126 127 128 129 130 131 132 133 134 135 136 137 138 139 140 141 142 143 144 145
21 146 147 148 149 150 151 152 153 154 155 156 157 158 159 160 161 162 163 164 165 166
