ply
format ascii 1.0
comment Created by Blender 2.83.4 - www.blender.org, source file: 'q_4_a.blend'
element vertex 167
property float x
property float y
property float z
element face 8
property list uchar uint vertex_indices
end_header
0.098309 -0.272389 3.201514
0.210398 -0.545341 3.271366
0.308962 -0.683905 3.299568
0.428621 -0.783070 3.309392
0.669784 -0.942572 3.309725
0.953403 -1.037229 3.287152
1.397842 -1.031616 3.252195
1.774094 -0.974033 3.185990
2.152461 -0.820801 3.098264
2.424875 -0.654122 2.952378
2.654097 -0.351049 2.739129
2.441456 -0.007069 2.901403
2.178466 0.194033 3.018315
1.808743 0.378163 3.079463
1.436179 0.464473 3.134332
0.992746 0.498102 3.166198
0.704769 0.422704 3.202167
0.455800 0.277600 3.225832
0.331211 0.184340 3.231167
0.225610 0.048268 3.224601
-0.187217 0.239035 5.043937
-0.187565 0.220100 5.043589
-0.143339 0.106617 5.066286
-0.103650 0.049378 5.076692
-0.054842 0.008922 5.082096
0.044114 -0.055446 5.086658
0.160902 -0.092459 5.086294
0.342927 -0.087862 5.091784
0.498278 -0.061063 5.083647
0.654819 0.005478 5.070561
0.770751 0.079512 5.029840
0.871196 0.211539 4.965209
0.775630 0.344704 5.034719
0.662471 0.421403 5.078214
0.508473 0.493128 5.093843
0.354207 0.525303 5.103065
0.172478 0.536789 5.097871
0.054408 0.504106 5.096953
-0.046845 0.443632 5.090094
-0.097103 0.405224 5.083240
-0.138864 0.349904 5.070762
-0.670876 -0.254492 2.939599
-0.656273 0.048371 2.942137
-0.685785 0.217758 2.929993
-0.750328 0.357012 2.903713
-0.896873 0.597701 2.838949
-1.108470 0.793660 2.756875
-1.507446 0.965107 2.655864
-1.866074 1.055420 2.544087
-2.267133 1.057432 2.427961
-2.575448 0.990544 2.273877
-2.900558 0.770313 2.085004
-2.870360 0.415474 2.336099
-2.729671 0.155494 2.525549
-2.482373 -0.146349 2.674116
-2.189328 -0.364547 2.799729
-1.808238 -0.570872 2.904514
-1.519135 -0.615694 2.970236
-1.233757 -0.585662 3.005708
-1.081511 -0.553898 3.013484
-0.926827 -0.479201 2.999219
-0.691933 -0.295553 2.944042
-0.151840 0.296553 4.243037
-0.119331 0.293804 4.248596
0.069948 0.350522 4.337008
0.166896 0.409354 4.384774
0.237429 0.487213 4.421124
0.352413 0.648861 4.478181
0.423421 0.845780 4.522937
0.425390 1.158460 4.582392
0.392334 1.431439 4.603888
0.293033 1.712491 4.604232
0.187813 1.931818 4.543812
-0.009433 2.137690 4.419400
-0.267486 1.970327 4.465945
-0.421054 1.772888 4.482107
-0.559137 1.511914 4.441163
-0.627332 1.247499 4.402350
-0.656914 0.937154 4.338173
-0.608263 0.730115 4.313882
-0.508910 0.550338 4.293482
-0.444043 0.461027 4.280288
-0.347744 0.385850 4.265572
-0.698690 0.140587 5.022433
-0.764768 0.252835 5.080007
-0.817602 0.305571 5.111325
-0.878398 0.338329 5.135396
-0.999672 0.386151 5.173415
-1.136462 0.400183 5.203800
-1.335963 0.351707 5.244970
-1.504714 0.287000 5.261087
-1.668104 0.178596 5.263679
-1.791478 0.075913 5.225920
-1.891843 -0.083746 5.146444
-1.743445 -0.221254 5.177263
-1.592769 -0.287478 5.187366
-1.404336 -0.334012 5.159406
-1.224903 -0.335390 5.132469
-1.022489 -0.304937 5.088347
-0.898323 -0.240869 5.070750
-0.799660 -0.148797 5.055636
-0.753149 -0.093181 5.046036
-0.720703 -0.019787 5.035369
-0.695260 0.119368 5.018959
-0.277416 -0.387643 4.037061
-0.469249 -0.433943 4.126033
-0.569922 -0.487436 4.172350
-0.646030 -0.561327 4.205607
-0.773004 -0.716197 4.255604
-0.859270 -0.909002 4.290337
-0.886050 -1.223475 4.331541
-0.875278 -1.499033 4.336423
-0.799510 -1.786752 4.318315
-0.713750 -2.009917 4.243020
-0.536233 -2.223364 4.102680
-0.264523 -2.080636 4.153373
-0.094945 -1.897667 4.177713
0.063506 -1.646820 4.149082
0.152634 -1.386988 4.124264
0.206659 -1.076805 4.077623
0.174862 -0.865414 4.066450
0.090357 -0.677251 4.058655
0.032871 -0.582330 4.052059
-0.057127 -0.498821 4.043791
-0.245340 -0.392692 4.030660
0.180145 0.298653 2.783944
0.328519 0.559085 2.829833
0.378561 0.723531 2.842634
0.384576 0.879053 2.837630
0.364732 1.166217 2.810361
0.267693 1.445511 2.760488
-0.006642 1.790052 2.691123
-0.280684 2.046270 2.598831
-0.631883 2.244225 2.490153
-0.929126 2.344753 2.332626
-1.308155 2.322178 2.118853
-1.452890 1.961427 2.315783
-1.453351 1.643019 2.463737
-1.375233 1.245205 2.563633
-1.217666 0.903742 2.652179
-0.975098 0.535953 2.720523
-0.740405 0.357402 2.774822
-0.473994 0.250693 2.810020
-0.324249 0.209167 2.820033
-0.151984 0.207421 2.814381
0.142747 0.271282 2.782741
0.063833 -0.422392 1.237742
-0.068095 -0.795324 1.339604
-0.093068 -1.022136 1.382609
-0.061409 -1.228716 1.400698
0.038659 -1.605028 1.410211
0.239673 -1.954739 1.388801
0.692438 -2.347755 1.353042
1.123285 -2.628404 1.272512
1.642019 -2.815310 1.161334
2.066531 -2.895667 0.968864
2.570110 -2.802127 0.682109
2.662677 -2.260652 0.889005
2.577011 -1.819357 1.036084
2.369097 -1.301366 1.105625
2.070821 -0.879501 1.168395
1.654213 -0.447972 1.199311
1.296522 -0.265152 1.241709
0.915813 -0.187780 1.269791
0.706867 -0.170045 1.275451
0.478812 -0.212759 1.266341
0.106400 -0.377051 1.232040
20 0 1 2 3 4 5 6 7 8 9 10 11 12 13 14 15 16 17 18 19
21 20 21 22 23 24 25 26 27 28 29 30 31 32 33 34 35 36 37 38 39 40
21 41 42 43 44 45 46 47 48 49 50 51 52 53 54 55 56 57 58 59 60 61
21 62 63 64 65 66 67 68 69 70 71 72 73 74 75 76 77 78 79 80 81 82
21 83 84 85 86 87 88 89 90 91 92 93 94 95 96 97 98 99 100 101 102 103
21 104 105 106 107 108 109 110 111 112 113 114 115 116 117 118 119 120 121 122 123 124
21 125 126 127 128 129 130 131 132 133 134 135 136 137 138 139 140 141 142 143 144 145
21 146 147 148 149 150 151 152 153 154 155 156 157 158 159 160 161 162 163 164 165 166
