ply
format ascii 1.0
comment Created by Blender 2.83.4 - www.blender.org, source file: 'q_5_a.blend'
element vertex 167
property float x
property float y
property float z
element face 8
property list uchar uint vertex_indices
end_header
0.104025 -0.148074 4.189673
0.113297 -0.449877 4.161837
0.153940 -0.613983 4.128255
0.225024 -0.743713 4.079618
0.379925 -0.962942 3.972170
0.593392 -1.130317 3.844394
0.987673 -1.254707 3.677513
1.334401 -1.301271 3.513575
1.715680 -1.256060 3.349501
1.994994 -1.147280 3.166678
2.274504 -0.881649 2.963734
2.250259 -0.556548 3.252859
2.116036 -0.329561 3.484666
1.867848 -0.066775 3.693673
1.577886 0.111157 3.876776
1.199087 0.271374 4.048884
0.918532 0.283496 4.154010
0.643463 0.224633 4.220887
0.496466 0.178687 4.243896
0.347479 0.092062 4.240899
-0.396832 -0.009356 5.521139
-0.394519 -0.028011 5.523469
-0.339269 -0.129526 5.568095
-0.294237 -0.178125 5.591973
-0.241805 -0.209451 5.609793
-0.136915 -0.256438 5.637121
-0.017565 -0.274413 5.658145
0.158953 -0.240647 5.687903
0.308484 -0.190969 5.697450
0.454504 -0.102756 5.696602
0.564130 -0.016937 5.662009
0.654416 0.120379 5.593524
0.531744 0.244330 5.629375
0.403710 0.307013 5.645420
0.240805 0.355020 5.629253
0.084072 0.363443 5.612449
-0.094410 0.345523 5.580711
-0.205249 0.294833 5.568264
-0.294893 0.218825 5.556299
-0.337694 0.172454 5.548184
-0.368979 0.110161 5.538157
-0.437871 0.182809 3.011475
-0.521293 0.449787 3.128561
-0.605833 0.588087 3.187182
-0.716340 0.690548 3.226403
-0.944413 0.859452 3.281674
-1.221801 0.968810 3.313395
-1.666081 0.987520 3.345718
-2.050820 0.955514 3.331037
-2.446773 0.831445 3.284495
-2.747373 0.696478 3.163263
-3.023649 0.432690 2.953599
-2.811761 0.062091 3.040958
-2.547758 -0.163523 3.092672
-2.185376 -0.370212 3.075446
-1.814955 -0.479282 3.062929
-1.374581 -0.536467 3.023188
-1.080271 -0.479100 3.023611
-0.821886 -0.349358 3.025916
-0.692232 -0.263162 3.023067
-0.580363 -0.132201 3.016358
-0.442468 0.137513 3.002742
-0.060840 0.163270 4.491391
-0.028503 0.161762 4.498274
0.154107 0.223661 4.596673
0.246182 0.285016 4.650520
0.311511 0.364598 4.692435
0.416529 0.529080 4.759695
0.476574 0.727269 4.813900
0.461838 1.037497 4.883533
0.415548 1.307856 4.912440
0.303667 1.584094 4.917596
0.191244 1.800538 4.859808
-0.009717 2.001709 4.733663
-0.261641 1.821662 4.763412
-0.406634 1.617226 4.766409
-0.530879 1.352003 4.710995
-0.585303 1.086341 4.660650
-0.598034 0.777394 4.585171
-0.539054 0.573654 4.556300
-0.430871 0.399227 4.534420
-0.361518 0.313362 4.521172
-0.261371 0.243041 4.508238
-0.626437 0.043869 5.255739
-0.669743 0.178897 5.268879
-0.711404 0.248187 5.272943
-0.764458 0.298515 5.271946
-0.872951 0.379799 5.264065
-1.003652 0.430674 5.251390
-1.212727 0.439254 5.243686
-1.392033 0.419294 5.224326
-1.575478 0.353532 5.202479
-1.711018 0.273806 5.152843
-1.831666 0.124525 5.081851
-1.737915 -0.028733 5.179846
-1.617663 -0.120970 5.244831
-1.448241 -0.212946 5.280756
-1.274917 -0.260265 5.306121
-1.067473 -0.287194 5.315463
-0.929703 -0.258557 5.321041
-0.808548 -0.197418 5.316211
-0.747495 -0.157774 5.309177
-0.694419 -0.098654 5.293652
-0.628357 0.022266 5.257667
-0.263210 -0.382059 4.057755
-0.457503 -0.425830 4.142576
-0.559974 -0.477986 4.186406
-0.638000 -0.550840 4.217428
-0.768628 -0.703920 4.263365
-0.858939 -0.895497 4.294415
-0.892060 -1.209845 4.331776
-0.886257 -1.485588 4.333948
-0.815255 -1.774415 4.314240
-0.732027 -1.998295 4.238231
-0.555654 -2.213435 4.099036
-0.282484 -2.076114 4.156385
-0.110196 -1.896465 4.185873
0.053185 -1.648211 4.162908
0.147353 -1.389774 4.142535
0.207738 -1.080145 4.100210
0.179903 -0.868116 4.090671
0.098904 -0.678402 4.083264
0.043242 -0.582406 4.076581
-0.045091 -0.497221 4.067490
-0.231112 -0.387615 4.051911
-0.231432 0.179996 2.323653
-0.028425 0.404860 2.310601
0.056529 0.552835 2.286179
0.095882 0.698047 2.246011
0.137622 0.968951 2.153984
0.101440 1.244321 2.040972
-0.094336 1.616311 1.892398
-0.309891 1.899249 1.741578
-0.613994 2.140191 1.587286
-0.888559 2.265818 1.408105
-1.271854 2.279984 1.201329
-1.483164 2.013434 1.473672
-1.546568 1.744354 1.690120
-1.552481 1.371824 1.878598
-1.469155 1.032761 2.043999
-1.309441 0.645464 2.196550
-1.116989 0.436424 2.292330
-0.878813 0.284332 2.353491
-0.741338 0.214176 2.374159
-0.573917 0.173322 2.370752
-0.273888 0.161975 2.328335
0.129763 -0.313741 1.763558
-0.063990 -0.670637 1.807644
-0.127618 -0.893870 1.813573
-0.132228 -1.102857 1.796019
-0.099136 -1.486780 1.739247
0.037652 -1.856781 1.652351
0.414629 -2.309148 1.534077
0.789111 -2.641118 1.391117
1.266126 -2.891815 1.229912
1.668041 -3.009289 1.009966
2.177075 -2.955391 0.722652
2.364775 -2.480547 1.012241
2.358879 -2.062540 1.233481
2.245129 -1.536166 1.395872
2.025588 -1.086613 1.539338
1.690867 -0.602179 1.657749
1.370967 -0.371139 1.744048
1.009880 -0.236127 1.799749
0.807291 -0.184381 1.816626
0.575196 -0.185567 1.809731
0.179512 -0.275987 1.763720
20 0 1 2 3 4 5 6 7 8 9 10 11 12 13 14 15 16 17 18 19
21 20 21 22 23 24 25 26 27 28 29 30 31 32 33 34 35 36 37 38 39 40
21 41 42 43 44 45 46 47 48 49 50 51 52 53 54 55 56 57 58 59 60 61
21 62 63 64 65 66 67 68 69 70 71 72 73 74 75 76 77 78 79 80 81 82
21 83 84 85 86 87 88 89 90 91 92 93 94 95 96 97 98 99 100 101 102 103
21 104 105 106 107 108 109 110 111 112 113 114 115 116 117 118 119 120 121 122 123 124
21 125 126 127 128 129 130 131 132 133 134 135 136 137 138 139 140 141 142 143 144 145
21 146 147 148 149 150 151 152 153 154 155 156 157 158 159 160 161 162 163 164 165 166
