ply
format ascii 1.0
comment Created by Blender 2.83.4 - www.blender.org, source file: 'q_6_a.blend'
element vertex 167
property float x
property float y
property float z
element face 8
property list uchar uint vertex_indices
end_header
0.245132 0.107706 2.848927
0.301427 -0.189890 2.863529
0.369052 -0.348279 2.856441
0.463221 -0.469967 2.832514
0.659302 -0.673135 2.770260
0.907599 -0.818641 2.686081
1.331652 -0.897989 2.573553
1.697246 -0.908300 2.449058
2.083403 -0.823210 2.314966
2.362051 -0.694344 2.144607
2.620145 -0.414212 1.932982
2.517234 -0.064472 2.171651
2.326791 0.164676 2.357382
2.021544 0.407990 2.505574
1.690459 0.558372 2.636083
1.275819 0.675922 2.750251
0.986737 0.655888 2.827322
0.717602 0.562538 2.876845
0.577284 0.496911 2.892730
0.443793 0.387956 2.888339
-0.265686 0.203027 5.268505
-0.267350 0.184232 5.266834
-0.229642 0.066777 5.278320
-0.193381 0.006509 5.281890
-0.147212 -0.037260 5.281053
-0.052802 -0.107948 5.274251
0.060921 -0.152177 5.263276
0.242815 -0.159587 5.256632
0.398806 -0.142180 5.239831
0.558386 -0.084926 5.220853
0.676294 -0.015547 5.177682
0.781232 0.114333 5.115905
0.699604 0.247670 5.201084
0.594946 0.327901 5.257556
0.447520 0.407884 5.288736
0.296713 0.449011 5.310740
0.116233 0.472386 5.318804
-0.003616 0.447437 5.323629
-0.109000 0.394213 5.319414
-0.162102 0.359705 5.313292
-0.208257 0.308253 5.299789
-0.565095 0.066488 2.657340
-0.640365 0.340120 2.764136
-0.720580 0.483485 2.816313
-0.827717 0.591515 2.849470
-1.049940 0.771176 2.893514
-1.323280 0.892648 2.914465
-1.767087 0.930395 2.934211
-2.152317 0.913620 2.910106
-2.551743 0.804377 2.856603
-2.854458 0.678070 2.731368
-3.135941 0.419394 2.522262
-2.941920 0.043356 2.626297
-2.688917 -0.191104 2.691810
-2.335093 -0.412789 2.690531
-1.969313 -0.537163 2.691270
-1.530810 -0.613404 2.665152
-1.234484 -0.568065 2.671815
-0.971088 -0.448927 2.677234
-0.837940 -0.368202 2.675324
-0.720603 -0.242168 2.667744
-0.571340 0.021168 2.649837
-0.283327 0.491503 3.893692
-0.250749 0.486807 3.897156
-0.052351 0.534589 3.969372
0.051375 0.588860 4.007284
0.129225 0.663354 4.034637
0.258230 0.819293 4.075227
0.344871 1.012801 4.104728
0.371349 1.327080 4.147564
0.357676 1.602390 4.157039
0.277076 1.889267 4.149542
0.182236 2.112160 4.085117
-0.009652 2.324899 3.963919
-0.274013 2.177940 4.036611
-0.438501 1.992436 4.073464
-0.595782 1.739855 4.055672
-0.683571 1.479173 4.035410
-0.737719 1.168883 3.989632
-0.704451 0.958087 3.972878
-0.618672 0.771182 3.955123
-0.560840 0.677126 3.942196
-0.470916 0.594936 3.924871
-0.694114 -0.009511 5.089072
-0.737804 0.125329 5.102853
-0.779670 0.194472 5.107308
-0.832885 0.244635 5.106666
-0.941658 0.325604 5.099428
-1.072558 0.376112 5.087352
-1.281682 0.384059 5.080334
-1.460984 0.363604 5.061460
-1.644289 0.297344 5.039941
-1.779732 0.217376 4.990431
-1.900130 0.067981 4.919256
-1.805590 -0.085346 5.016383
-1.684844 -0.177443 5.080644
-1.515021 -0.269017 5.115695
-1.341470 -0.315882 5.140340
-1.133914 -0.342189 5.148932
-0.996219 -0.313137 5.154187
-0.875272 -0.251597 5.149208
-0.814367 -0.211734 5.142132
-0.761527 -0.152389 5.126662
-0.695960 -0.031126 5.090925
-0.308073 -0.123485 4.576075
-0.501764 -0.167890 4.661934
-0.603796 -0.220383 4.706386
-0.681352 -0.293498 4.737966
-0.811083 -0.447031 4.784917
-0.900402 -0.638922 4.816887
-0.931959 -0.953316 4.855210
-0.924933 -1.229024 4.858059
-0.852754 -1.517586 4.838751
-0.768903 -1.741294 4.762918
-0.592250 -1.956015 4.623434
-0.319418 -1.817348 4.679126
-0.147783 -1.636869 4.707332
0.014392 -1.387960 4.682953
0.107323 -1.129165 4.661470
0.166142 -0.819385 4.618066
0.137328 -0.607505 4.608118
0.055460 -0.418169 4.600612
-0.000656 -0.322436 4.593950
-0.089404 -0.237663 4.585063
-0.275979 -0.128915 4.570092
-0.141341 0.277048 1.473034
-0.024947 0.546557 1.548950
0.004910 0.713252 1.581069
-0.008194 0.867820 1.594686
-0.063468 1.151528 1.602101
-0.194843 1.420617 1.586560
-0.510505 1.734392 1.560458
-0.815566 1.963889 1.501018
-1.190417 2.128385 1.418762
-1.500829 2.209322 1.276048
-1.878520 2.165510 1.063207
-1.974153 1.768926 1.216330
-1.932775 1.437669 1.325101
-1.804707 1.043559 1.376221
-1.604904 0.716126 1.422381
-1.317949 0.375640 1.444861
-1.062178 0.222294 1.476097
-0.784082 0.145907 1.496794
-0.630217 0.122308 1.500937
-0.459176 0.142535 1.494164
-0.175137 0.245603 1.468769
0.477811 -0.196252 0.977292
0.265031 -0.544035 1.002398
0.189405 -0.763490 0.996285
0.173469 -0.970639 0.967298
0.185681 -1.352082 0.889413
0.302174 -1.723596 0.781847
0.654024 -2.188488 0.637581
1.009890 -2.531849 0.475284
1.472533 -2.798720 0.298871
1.867371 -2.925471 0.071386
2.378418 -2.883447 -0.214332
2.591729 -2.436100 0.100229
2.608612 -2.031192 0.344108
2.523636 -1.509172 0.535560
2.328854 -1.056983 0.704270
2.020936 -0.562411 0.850287
1.714071 -0.319511 0.950272
1.360860 -0.168445 1.014579
1.161381 -0.106828 1.034988
0.929559 -0.095084 1.028859
0.529532 -0.161310 0.979351
20 0 1 2 3 4 5 6 7 8 9 10 11 12 13 14 15 16 17 18 19
21 20 21 22 23 24 25 26 27 28 29 30 31 32 33 34 35 36 37 38 39 40
21 41 42 43 44 45 46 47 48 49 50 51 52 53 54 55 56 57 58 59 60 61
21 62 63 64 65 66 67 68 69 70 71 72 73 74 75 76 77 78 79 80 81 82
21 83 84 85 86 87 88 89 90 91 92 93 94 95 96 97 98 99 100 101 102 103
21 104 105 106 107 108 109 110 111 112 113 114 115 116 117 118 119 120 121 122 123 124
21 125 126 127 128 129 130 131 132 133 134 135 136 137 138 139 140 141 142 143 144 145
21 146 147 148 149 150 151 152 153 154 155 156 157 158 159 160 161 162 163 164 165 166
