ply
format ascii 1.0
comment Created by Blender 2.83.4 - www.blender.org, source file: 'q_9_a.blend'
element vertex 167
property float x
property float y
property float z
element face 8
property list uchar uint vertex_indices
end_header
0.100547 -0.152513 3.529520
0.169330 -0.446666 3.555768
0.244024 -0.602008 3.556051
0.344156 -0.720053 3.539104
0.550854 -0.916109 3.489722
0.807870 -1.052948 3.418118
1.238395 -1.116755 3.321390
1.607908 -1.114633 3.208607
1.994082 -1.016640 3.083687
2.272156 -0.880919 2.917770
2.524405 -0.596402 2.704950
2.398637 -0.244179 2.928540
2.192454 -0.017981 3.100578
1.872225 0.216010 3.231114
1.530839 0.355488 3.346292
1.107985 0.457912 3.443673
0.817728 0.427407 3.512446
0.551488 0.323711 3.556758
0.413742 0.252398 3.570503
0.285364 0.137481 3.565648
-0.206736 0.260271 5.141708
-0.208951 0.241592 5.139477
-0.174150 0.122875 5.146159
-0.139453 0.061592 5.146813
-0.094523 0.016679 5.143332
-0.002267 -0.056196 5.131732
0.109895 -0.103004 5.116298
0.291289 -0.114955 5.104554
0.447206 -0.101097 5.084156
0.607732 -0.047450 5.062769
0.726317 0.020200 5.018717
0.833097 0.149250 4.958372
0.757340 0.281802 5.049957
0.656388 0.362845 5.111766
0.512036 0.445593 5.149440
0.363018 0.489911 5.176786
0.183506 0.517728 5.190424
0.063190 0.495783 5.197647
-0.043669 0.445506 5.194541
-0.097826 0.412622 5.188733
-0.145690 0.362869 5.174819
-0.565282 -0.154890 3.068682
-0.574937 0.146648 3.099128
-0.618439 0.313364 3.103987
-0.695016 0.448522 3.093187
-0.863043 0.680949 3.056509
-1.093003 0.865104 3.000698
-1.508410 1.010935 2.930345
-1.877586 1.080614 2.840242
-2.282117 1.059503 2.739015
-2.590384 0.981241 2.590286
-2.904560 0.752555 2.393138
-2.835258 0.380198 2.608588
-2.666175 0.116831 2.767720
-2.389317 -0.175432 2.878489
-2.074596 -0.378771 2.972662
-1.674041 -0.561056 3.044125
-1.379724 -0.587247 3.095126
-1.096421 -0.536727 3.123188
-0.947022 -0.493142 3.128546
-0.799585 -0.404751 3.115918
-0.582766 -0.197806 3.069988
-0.285348 0.155422 4.726463
-0.253935 0.145351 4.723801
-0.039472 0.163956 4.746601
0.077156 0.202363 4.754633
0.169593 0.264116 4.754940
0.326662 0.397768 4.746376
0.446199 0.574638 4.730556
0.529260 0.881812 4.723316
0.560234 1.154646 4.697335
0.524748 1.449046 4.667005
0.452993 1.677600 4.593245
0.273524 1.907813 4.485723
0.013042 1.818654 4.630523
-0.165268 1.670274 4.725472
-0.359165 1.449416 4.775239
-0.487976 1.207950 4.809511
-0.597721 0.909331 4.819012
-0.601631 0.695390 4.825034
-0.551589 0.495336 4.816049
-0.513190 0.391635 4.804656
-0.443085 0.293359 4.780800
-0.724102 -0.060557 5.061213
-0.759272 0.077442 5.061061
-0.796525 0.149203 5.057079
-0.846058 0.202368 5.048804
-0.948409 0.289091 5.027743
-1.074569 0.346500 5.002853
-1.281834 0.366926 4.981188
-1.460606 0.356227 4.952035
-1.646321 0.300007 4.923693
-1.783584 0.224767 4.871840
-1.909259 0.077699 4.805077
-1.831556 -0.072420 4.920433
-1.721560 -0.166100 4.999906
-1.560856 -0.264827 5.053583
-1.392752 -0.320218 5.093542
-1.188396 -0.358668 5.118155
-1.049629 -0.337972 5.130273
-0.924695 -0.284791 5.128458
-0.860896 -0.249576 5.122283
-0.803281 -0.195199 5.105640
-0.727527 -0.081777 5.064682
-0.387733 -0.317333 4.142263
-0.562415 -0.377600 4.255021
-0.650733 -0.438197 4.315598
-0.713801 -0.517298 4.361681
-0.815927 -0.680991 4.435043
-0.875053 -0.878978 4.490967
-0.860610 -1.190634 4.553971
-0.817438 -1.462284 4.574339
-0.711089 -1.740598 4.565291
-0.608410 -1.958012 4.494477
-0.423108 -2.160568 4.348183
-0.166000 -1.985795 4.359035
-0.017216 -1.784173 4.352866
0.107100 -1.520344 4.291297
0.162311 -1.254872 4.240810
0.174701 -0.944901 4.169592
0.117555 -0.739612 4.149263
0.011411 -0.562841 4.139661
-0.057088 -0.475478 4.133856
-0.156546 -0.403088 4.130767
-0.356144 -0.319317 4.132593
0.032044 0.249269 2.555279
0.196122 0.502460 2.585590
0.256149 0.664012 2.588454
0.271672 0.818276 2.573960
0.269428 1.103905 2.529112
0.189635 1.385031 2.461951
-0.063141 1.740809 2.370813
-0.321049 2.007173 2.262196
-0.659551 2.219208 2.140558
-0.950200 2.327888 1.976286
-1.330063 2.315486 1.763162
-1.496466 1.977006 1.981364
-1.516310 1.668885 2.148522
-1.462622 1.273906 2.272807
-1.326193 0.929512 2.382554
-1.106548 0.552453 2.474000
-0.883188 0.363545 2.539826
-0.623784 0.243097 2.582284
-0.476855 0.193181 2.595268
-0.305025 0.180559 2.590248
-0.006960 0.224215 2.555642
0.155127 -0.289867 2.399393
-0.093906 -0.613352 2.385288
-0.192488 -0.821327 2.354554
-0.230142 -1.021010 2.302457
-0.257872 -1.390435 2.182162
-0.180514 -1.757949 2.033459
0.121282 -2.238926 1.837715
0.440280 -2.598261 1.637723
0.873782 -2.891940 1.432276
1.255459 -3.034191 1.191860
1.771406 -3.015699 0.912529
2.027604 -2.631905 1.275344
2.084810 -2.260998 1.563211
2.053891 -1.757574 1.812185
1.906603 -1.308779 2.030742
1.651638 -0.803403 2.231549
1.371349 -0.541616 2.358311
1.035583 -0.361571 2.439306
0.843611 -0.281523 2.466576
0.614463 -0.244294 2.461876
0.210259 -0.261143 2.405354
20 0 1 2 3 4 5 6 7 8 9 10 11 12 13 14 15 16 17 18 19
21 20 21 22 23 24 25 26 27 28 29 30 31 32 33 34 35 36 37 38 39 40
21 41 42 43 44 45 46 47 48 49 50 51 52 53 54 55 56 57 58 59 60 61
21 62 63 64 65 66 67 68 69 70 71 72 73 74 75 76 77 78 79 80 81 82
21 83 84 85 86 87 88 89 90 91 92 93 94 95 96 97 98 99 100 101 102 103
21 104 105 106 107 108 109 110 111 112 113 114 115 116 117 118 119 120 121 122 123 124
21 125 126 127 128 129 130 131 132 133 134 135 136 137 138 139 140 141 142 143 144 145
21 146 147 148 149 150 151 152 153 154 155 156 157 158 159 160 161 162 163 164 165 166
